%TF.GenerationSoftware,KiCad,Pcbnew,7.0.9*%
%TF.CreationDate,2024-01-09T08:16:38-05:00*%
%TF.ProjectId,mixed_signal_hw,6d697865-645f-4736-9967-6e616c5f6877,rev?*%
%TF.SameCoordinates,Original*%
%TF.FileFunction,Copper,L1,Top*%
%TF.FilePolarity,Positive*%
%FSLAX46Y46*%
G04 Gerber Fmt 4.6, Leading zero omitted, Abs format (unit mm)*
G04 Created by KiCad (PCBNEW 7.0.9) date 2024-01-09 08:16:38*
%MOMM*%
%LPD*%
G01*
G04 APERTURE LIST*
G04 Aperture macros list*
%AMRoundRect*
0 Rectangle with rounded corners*
0 $1 Rounding radius*
0 $2 $3 $4 $5 $6 $7 $8 $9 X,Y pos of 4 corners*
0 Add a 4 corners polygon primitive as box body*
4,1,4,$2,$3,$4,$5,$6,$7,$8,$9,$2,$3,0*
0 Add four circle primitives for the rounded corners*
1,1,$1+$1,$2,$3*
1,1,$1+$1,$4,$5*
1,1,$1+$1,$6,$7*
1,1,$1+$1,$8,$9*
0 Add four rect primitives between the rounded corners*
20,1,$1+$1,$2,$3,$4,$5,0*
20,1,$1+$1,$4,$5,$6,$7,0*
20,1,$1+$1,$6,$7,$8,$9,0*
20,1,$1+$1,$8,$9,$2,$3,0*%
%AMFreePoly0*
4,1,9,3.862500,-0.866500,0.737500,-0.866500,0.737500,-0.450000,-0.737500,-0.450000,-0.737500,0.450000,0.737500,0.450000,0.737500,0.866500,3.862500,0.866500,3.862500,-0.866500,3.862500,-0.866500,$1*%
G04 Aperture macros list end*
%TA.AperFunction,SMDPad,CuDef*%
%ADD10RoundRect,0.140000X0.170000X-0.140000X0.170000X0.140000X-0.170000X0.140000X-0.170000X-0.140000X0*%
%TD*%
%TA.AperFunction,SMDPad,CuDef*%
%ADD11RoundRect,0.150000X0.512500X0.150000X-0.512500X0.150000X-0.512500X-0.150000X0.512500X-0.150000X0*%
%TD*%
%TA.AperFunction,SMDPad,CuDef*%
%ADD12RoundRect,0.140000X0.140000X0.170000X-0.140000X0.170000X-0.140000X-0.170000X0.140000X-0.170000X0*%
%TD*%
%TA.AperFunction,SMDPad,CuDef*%
%ADD13RoundRect,0.075000X-0.662500X-0.075000X0.662500X-0.075000X0.662500X0.075000X-0.662500X0.075000X0*%
%TD*%
%TA.AperFunction,SMDPad,CuDef*%
%ADD14RoundRect,0.075000X-0.075000X-0.662500X0.075000X-0.662500X0.075000X0.662500X-0.075000X0.662500X0*%
%TD*%
%TA.AperFunction,SMDPad,CuDef*%
%ADD15RoundRect,0.135000X0.135000X0.185000X-0.135000X0.185000X-0.135000X-0.185000X0.135000X-0.185000X0*%
%TD*%
%TA.AperFunction,SMDPad,CuDef*%
%ADD16RoundRect,0.135000X-0.185000X0.135000X-0.185000X-0.135000X0.185000X-0.135000X0.185000X0.135000X0*%
%TD*%
%TA.AperFunction,SMDPad,CuDef*%
%ADD17RoundRect,0.225000X0.225000X0.250000X-0.225000X0.250000X-0.225000X-0.250000X0.225000X-0.250000X0*%
%TD*%
%TA.AperFunction,SMDPad,CuDef*%
%ADD18RoundRect,0.225000X0.250000X-0.225000X0.250000X0.225000X-0.250000X0.225000X-0.250000X-0.225000X0*%
%TD*%
%TA.AperFunction,SMDPad,CuDef*%
%ADD19RoundRect,0.225000X-0.250000X0.225000X-0.250000X-0.225000X0.250000X-0.225000X0.250000X0.225000X0*%
%TD*%
%TA.AperFunction,ComponentPad*%
%ADD20C,1.900000*%
%TD*%
%TA.AperFunction,ComponentPad*%
%ADD21C,3.000000*%
%TD*%
%TA.AperFunction,SMDPad,CuDef*%
%ADD22RoundRect,0.112500X0.112500X-0.187500X0.112500X0.187500X-0.112500X0.187500X-0.112500X-0.187500X0*%
%TD*%
%TA.AperFunction,SMDPad,CuDef*%
%ADD23RoundRect,0.140000X-0.140000X-0.170000X0.140000X-0.170000X0.140000X0.170000X-0.140000X0.170000X0*%
%TD*%
%TA.AperFunction,SMDPad,CuDef*%
%ADD24RoundRect,0.250000X0.475000X-0.250000X0.475000X0.250000X-0.475000X0.250000X-0.475000X-0.250000X0*%
%TD*%
%TA.AperFunction,SMDPad,CuDef*%
%ADD25R,0.300000X1.450000*%
%TD*%
%TA.AperFunction,SMDPad,CuDef*%
%ADD26RoundRect,0.135000X0.185000X-0.135000X0.185000X0.135000X-0.185000X0.135000X-0.185000X-0.135000X0*%
%TD*%
%TA.AperFunction,SMDPad,CuDef*%
%ADD27RoundRect,0.135000X-0.135000X-0.185000X0.135000X-0.185000X0.135000X0.185000X-0.135000X0.185000X0*%
%TD*%
%TA.AperFunction,SMDPad,CuDef*%
%ADD28R,1.300000X0.900000*%
%TD*%
%TA.AperFunction,SMDPad,CuDef*%
%ADD29FreePoly0,0.000000*%
%TD*%
%TA.AperFunction,SMDPad,CuDef*%
%ADD30R,2.350000X3.500000*%
%TD*%
%TA.AperFunction,SMDPad,CuDef*%
%ADD31RoundRect,0.250000X-0.475000X0.250000X-0.475000X-0.250000X0.475000X-0.250000X0.475000X0.250000X0*%
%TD*%
%TA.AperFunction,SMDPad,CuDef*%
%ADD32RoundRect,0.112500X-0.112500X0.187500X-0.112500X-0.187500X0.112500X-0.187500X0.112500X0.187500X0*%
%TD*%
%TA.AperFunction,SMDPad,CuDef*%
%ADD33R,1.100000X1.500000*%
%TD*%
%TA.AperFunction,SMDPad,CuDef*%
%ADD34RoundRect,0.140000X-0.170000X0.140000X-0.170000X-0.140000X0.170000X-0.140000X0.170000X0.140000X0*%
%TD*%
%TA.AperFunction,SMDPad,CuDef*%
%ADD35RoundRect,0.250000X-0.450000X0.262500X-0.450000X-0.262500X0.450000X-0.262500X0.450000X0.262500X0*%
%TD*%
%TA.AperFunction,SMDPad,CuDef*%
%ADD36R,1.200000X0.700000*%
%TD*%
%TA.AperFunction,SMDPad,CuDef*%
%ADD37R,0.740000X2.400000*%
%TD*%
%TA.AperFunction,SMDPad,CuDef*%
%ADD38RoundRect,0.112500X0.187500X0.112500X-0.187500X0.112500X-0.187500X-0.112500X0.187500X-0.112500X0*%
%TD*%
%TA.AperFunction,SMDPad,CuDef*%
%ADD39RoundRect,0.150000X0.150000X-0.512500X0.150000X0.512500X-0.150000X0.512500X-0.150000X-0.512500X0*%
%TD*%
%TA.AperFunction,SMDPad,CuDef*%
%ADD40R,1.400000X1.200000*%
%TD*%
%TA.AperFunction,SMDPad,CuDef*%
%ADD41RoundRect,0.250000X0.250000X0.475000X-0.250000X0.475000X-0.250000X-0.475000X0.250000X-0.475000X0*%
%TD*%
%TA.AperFunction,SMDPad,CuDef*%
%ADD42RoundRect,0.112500X-0.187500X-0.112500X0.187500X-0.112500X0.187500X0.112500X-0.187500X0.112500X0*%
%TD*%
%TA.AperFunction,SMDPad,CuDef*%
%ADD43RoundRect,0.150000X-0.512500X-0.150000X0.512500X-0.150000X0.512500X0.150000X-0.512500X0.150000X0*%
%TD*%
%TA.AperFunction,SMDPad,CuDef*%
%ADD44RoundRect,0.147500X0.147500X0.172500X-0.147500X0.172500X-0.147500X-0.172500X0.147500X-0.172500X0*%
%TD*%
%TA.AperFunction,SMDPad,CuDef*%
%ADD45R,1.450000X0.600000*%
%TD*%
%TA.AperFunction,SMDPad,CuDef*%
%ADD46R,1.450000X0.300000*%
%TD*%
%TA.AperFunction,ComponentPad*%
%ADD47O,2.100000X1.000000*%
%TD*%
%TA.AperFunction,ComponentPad*%
%ADD48O,1.600000X1.000000*%
%TD*%
%TA.AperFunction,SMDPad,CuDef*%
%ADD49RoundRect,0.218750X0.218750X0.256250X-0.218750X0.256250X-0.218750X-0.256250X0.218750X-0.256250X0*%
%TD*%
%TA.AperFunction,SMDPad,CuDef*%
%ADD50RoundRect,0.150000X0.587500X0.150000X-0.587500X0.150000X-0.587500X-0.150000X0.587500X-0.150000X0*%
%TD*%
%TA.AperFunction,ViaPad*%
%ADD51C,0.700000*%
%TD*%
%TA.AperFunction,ViaPad*%
%ADD52C,0.800000*%
%TD*%
%TA.AperFunction,Conductor*%
%ADD53C,0.300000*%
%TD*%
%TA.AperFunction,Conductor*%
%ADD54C,0.500000*%
%TD*%
%TA.AperFunction,Conductor*%
%ADD55C,0.293370*%
%TD*%
%TA.AperFunction,Conductor*%
%ADD56C,0.200000*%
%TD*%
%TA.AperFunction,Conductor*%
%ADD57C,0.261100*%
%TD*%
G04 APERTURE END LIST*
D10*
%TO.P,C300,1*%
%TO.N,/ADC/IN_RF*%
X115260600Y-112120000D03*
%TO.P,C300,2*%
%TO.N,GND*%
X115260600Y-111160000D03*
%TD*%
D11*
%TO.P,U100,1,EN*%
%TO.N,+5V*%
X139037500Y-66500000D03*
%TO.P,U100,2,GND*%
%TO.N,GND*%
X139037500Y-65550000D03*
%TO.P,U100,3,SW*%
%TO.N,/Power/BUCK_SW*%
X139037500Y-64600000D03*
%TO.P,U100,4,VIN*%
%TO.N,+5V*%
X136762500Y-64600000D03*
%TO.P,U100,5,FB*%
%TO.N,/Power/BUCK_FB*%
X136762500Y-66500000D03*
%TD*%
D12*
%TO.P,C305,1*%
%TO.N,/ADC/IN_AA_BUF_OUT*%
X111856400Y-107746800D03*
%TO.P,C305,2*%
%TO.N,Net-(C305-Pad2)*%
X110896400Y-107746800D03*
%TD*%
D13*
%TO.P,U200,1,VBAT*%
%TO.N,+3V3*%
X120125000Y-77549999D03*
%TO.P,U200,2,PC13*%
%TO.N,unconnected-(U200-PC13-Pad2)*%
X120125000Y-78049999D03*
%TO.P,U200,3,PC14*%
%TO.N,unconnected-(U200-PC14-Pad3)*%
X120125000Y-78549999D03*
%TO.P,U200,4,PC15*%
%TO.N,unconnected-(U200-PC15-Pad4)*%
X120125000Y-79049999D03*
%TO.P,U200,5,PD0*%
%TO.N,/MCU/HSE_IN*%
X120125000Y-79549999D03*
%TO.P,U200,6,PD1*%
%TO.N,/MCU/HSE_OUT*%
X120125000Y-80049999D03*
%TO.P,U200,7,NRST*%
%TO.N,/MCU/NRST*%
X120125000Y-80549999D03*
%TO.P,U200,8,VSSA*%
%TO.N,GND*%
X120125000Y-81049999D03*
%TO.P,U200,9,VDDA*%
%TO.N,VDDA*%
X120125000Y-81549999D03*
%TO.P,U200,10,PA0*%
%TO.N,unconnected-(U200-PA0-Pad10)*%
X120125000Y-82049999D03*
%TO.P,U200,11,PA1*%
%TO.N,unconnected-(U200-PA1-Pad11)*%
X120125000Y-82549999D03*
%TO.P,U200,12,PA2*%
%TO.N,unconnected-(U200-PA2-Pad12)*%
X120125000Y-83049999D03*
D14*
%TO.P,U200,13,PA3*%
%TO.N,unconnected-(U200-PA3-Pad13)*%
X121537500Y-84462499D03*
%TO.P,U200,14,PA4*%
%TO.N,SPI1_NSS*%
X122037500Y-84462499D03*
%TO.P,U200,15,PA5*%
%TO.N,SPI1_SCK*%
X122537500Y-84462499D03*
%TO.P,U200,16,PA6*%
%TO.N,SPI1_MISO*%
X123037500Y-84462499D03*
%TO.P,U200,17,PA7*%
%TO.N,unconnected-(U200-PA7-Pad17)*%
X123537500Y-84462499D03*
%TO.P,U200,18,PB0*%
%TO.N,unconnected-(U200-PB0-Pad18)*%
X124037500Y-84462499D03*
%TO.P,U200,19,PB1*%
%TO.N,unconnected-(U200-PB1-Pad19)*%
X124537500Y-84462499D03*
%TO.P,U200,20,PB2*%
%TO.N,DAC_NCLR*%
X125037500Y-84462499D03*
%TO.P,U200,21,PB10*%
%TO.N,DAC_NLDAC*%
X125537500Y-84462499D03*
%TO.P,U200,22,PB11*%
%TO.N,unconnected-(U200-PB11-Pad22)*%
X126037500Y-84462499D03*
%TO.P,U200,23,VSS*%
%TO.N,GND*%
X126537500Y-84462499D03*
%TO.P,U200,24,VDD*%
%TO.N,+3V3*%
X127037500Y-84462499D03*
D13*
%TO.P,U200,25,PB12*%
%TO.N,SPI2_NSS*%
X128450000Y-83049999D03*
%TO.P,U200,26,PB13*%
%TO.N,SPI2_SCK*%
X128450000Y-82549999D03*
%TO.P,U200,27,PB14*%
%TO.N,unconnected-(U200-PB14-Pad27)*%
X128450000Y-82049999D03*
%TO.P,U200,28,PB15*%
%TO.N,SPI2_MOSI*%
X128450000Y-81549999D03*
%TO.P,U200,29,PA8*%
%TO.N,unconnected-(U200-PA8-Pad29)*%
X128450000Y-81049999D03*
%TO.P,U200,30,PA9*%
%TO.N,unconnected-(U200-PA9-Pad30)*%
X128450000Y-80549999D03*
%TO.P,U200,31,PA10*%
%TO.N,unconnected-(U200-PA10-Pad31)*%
X128450000Y-80049999D03*
%TO.P,U200,32,PA11*%
%TO.N,/MCU/USB_D-*%
X128450000Y-79549999D03*
%TO.P,U200,33,PA12*%
%TO.N,/MCU/USB_D+*%
X128450000Y-79049999D03*
%TO.P,U200,34,PA13*%
%TO.N,/MCU/SWDIO*%
X128450000Y-78549999D03*
%TO.P,U200,35,VSS*%
%TO.N,GND*%
X128450000Y-78049999D03*
%TO.P,U200,36,VDD*%
%TO.N,+3V3*%
X128450000Y-77549999D03*
D14*
%TO.P,U200,37,PA14*%
%TO.N,/MCU/SWCLK*%
X127037500Y-76137499D03*
%TO.P,U200,38,PA15*%
%TO.N,unconnected-(U200-PA15-Pad38)*%
X126537500Y-76137499D03*
%TO.P,U200,39,PB3*%
%TO.N,/MCU/SWO*%
X126037500Y-76137499D03*
%TO.P,U200,40,PB4*%
%TO.N,unconnected-(U200-PB4-Pad40)*%
X125537500Y-76137499D03*
%TO.P,U200,41,PB5*%
%TO.N,unconnected-(U200-PB5-Pad41)*%
X125037500Y-76137499D03*
%TO.P,U200,42,PB6*%
%TO.N,/MCU/TIM4_CH2*%
X124537500Y-76137499D03*
%TO.P,U200,43,PB7*%
%TO.N,/MCU/TIM4_CH3*%
X124037500Y-76137499D03*
%TO.P,U200,44,BOOT0*%
%TO.N,/MCU/BOOT0*%
X123537500Y-76137499D03*
%TO.P,U200,45,PB8*%
%TO.N,/MCU/TIM4_CH1*%
X123037500Y-76137499D03*
%TO.P,U200,46,PB9*%
%TO.N,unconnected-(U200-PB9-Pad46)*%
X122537500Y-76137499D03*
%TO.P,U200,47,VSS*%
%TO.N,GND*%
X122037500Y-76137499D03*
%TO.P,U200,48,VDD*%
%TO.N,+3V3*%
X121537500Y-76137499D03*
%TD*%
D15*
%TO.P,R212,1*%
%TO.N,/MCU/CONN_SWO*%
X113410000Y-65760000D03*
%TO.P,R212,2*%
%TO.N,/MCU/SWO*%
X112390000Y-65760000D03*
%TD*%
D10*
%TO.P,C212,1*%
%TO.N,/MCU/NRST*%
X106940000Y-61350000D03*
%TO.P,C212,2*%
%TO.N,GND*%
X106940000Y-60390000D03*
%TD*%
D16*
%TO.P,R403,1*%
%TO.N,Net-(C403-Pad1)*%
X137000000Y-104160000D03*
%TO.P,R403,2*%
%TO.N,Net-(C405-Pad1)*%
X137000000Y-105180000D03*
%TD*%
D17*
%TO.P,C309,1*%
%TO.N,/ADC/ADC_VREF_VIN*%
X105019031Y-102910000D03*
%TO.P,C309,2*%
%TO.N,GND*%
X103469031Y-102910000D03*
%TD*%
D16*
%TO.P,R202,1*%
%TO.N,SPI2_NSS*%
X130390000Y-83370000D03*
%TO.P,R202,2*%
%TO.N,+3V3*%
X130390000Y-84390000D03*
%TD*%
D10*
%TO.P,C205,1*%
%TO.N,VDDA*%
X118287500Y-81779999D03*
%TO.P,C205,2*%
%TO.N,GND*%
X118287500Y-80819999D03*
%TD*%
D18*
%TO.P,C206,1*%
%TO.N,VDDA*%
X116787500Y-82079999D03*
%TO.P,C206,2*%
%TO.N,GND*%
X116787500Y-80529999D03*
%TD*%
D11*
%TO.P,U401,1*%
%TO.N,/DAC/OUT_AA_BUF_OUT*%
X137557500Y-108650000D03*
%TO.P,U401,2,V-*%
%TO.N,GND*%
X137557500Y-107700000D03*
%TO.P,U401,3,+*%
%TO.N,/DAC/OUT_AA_BUF_IN*%
X137557500Y-106750000D03*
%TO.P,U401,4,-*%
%TO.N,/DAC/OUT_AA_BUF_OUT*%
X135282500Y-106750000D03*
%TO.P,U401,5,V+*%
%TO.N,+3.3VA*%
X135282500Y-108650000D03*
%TD*%
D12*
%TO.P,C202,1*%
%TO.N,+3V3*%
X127267500Y-86299999D03*
%TO.P,C202,2*%
%TO.N,GND*%
X126307500Y-86299999D03*
%TD*%
D15*
%TO.P,R205,1*%
%TO.N,/MCU/USB_CONN_CC2*%
X151930000Y-73550000D03*
%TO.P,R205,2*%
%TO.N,GND*%
X150910000Y-73550000D03*
%TD*%
D19*
%TO.P,C100,1*%
%TO.N,VBUS*%
X143185000Y-83565000D03*
%TO.P,C100,2*%
%TO.N,GND*%
X143185000Y-85115000D03*
%TD*%
D20*
%TO.P,J300,1,In*%
%TO.N,/ADC/IN*%
X113080000Y-119920000D03*
D21*
%TO.P,J300,2,Ext*%
%TO.N,GND*%
X118160000Y-125000000D03*
D20*
X115620000Y-119920000D03*
D21*
X108000000Y-125000000D03*
%TD*%
D10*
%TO.P,C201,1*%
%TO.N,+3V3*%
X118287500Y-77529999D03*
%TO.P,C201,2*%
%TO.N,GND*%
X118287500Y-76569999D03*
%TD*%
D18*
%TO.P,C200,1*%
%TO.N,+3V3*%
X116787500Y-77849999D03*
%TO.P,C200,2*%
%TO.N,GND*%
X116787500Y-76299999D03*
%TD*%
D11*
%TO.P,U201,1,I/O1*%
%TO.N,/MCU/USB_CONN_D-*%
X144812500Y-80250000D03*
%TO.P,U201,2,GND*%
%TO.N,GND*%
X144812500Y-79300000D03*
%TO.P,U201,3,I/O2*%
%TO.N,/MCU/USB_CONN_D+*%
X144812500Y-78350000D03*
%TO.P,U201,4,I/O2*%
%TO.N,/MCU/USB_CMC_D+*%
X142537500Y-78350000D03*
%TO.P,U201,5,VBUS*%
%TO.N,VBUS*%
X142537500Y-79300000D03*
%TO.P,U201,6,I/O1*%
%TO.N,/MCU/USB_CMD_D-*%
X142537500Y-80250000D03*
%TD*%
D12*
%TO.P,C315,1*%
%TO.N,+3V3*%
X110069031Y-92750000D03*
%TO.P,C315,2*%
%TO.N,GND*%
X109109031Y-92750000D03*
%TD*%
D18*
%TO.P,C207,1*%
%TO.N,+3V3*%
X114887500Y-82079999D03*
%TO.P,C207,2*%
%TO.N,GND*%
X114887500Y-80529999D03*
%TD*%
D12*
%TO.P,C302,1*%
%TO.N,GND*%
X116510000Y-105450000D03*
%TO.P,C302,2*%
%TO.N,+3.3VA*%
X115550000Y-105450000D03*
%TD*%
D15*
%TO.P,R211,1*%
%TO.N,/MCU/CONN_SWCLK*%
X116850000Y-65790000D03*
%TO.P,R211,2*%
%TO.N,/MCU/SWCLK*%
X115830000Y-65790000D03*
%TD*%
D22*
%TO.P,D205,1,A1*%
%TO.N,GND*%
X109790000Y-62490000D03*
%TO.P,D205,2,A2*%
%TO.N,/MCU/CONN_NRST*%
X109790000Y-60390000D03*
%TD*%
D23*
%TO.P,C209,1*%
%TO.N,/MCU/XTAL_IN*%
X111827500Y-78299999D03*
%TO.P,C209,2*%
%TO.N,GND*%
X112787500Y-78299999D03*
%TD*%
D15*
%TO.P,R103,1*%
%TO.N,/Power/LED_PWR_K*%
X149690000Y-66240000D03*
%TO.P,R103,2*%
%TO.N,GND*%
X148670000Y-66240000D03*
%TD*%
D24*
%TO.P,C103,1*%
%TO.N,+3.3VA*%
X121676800Y-103657800D03*
%TO.P,C103,2*%
%TO.N,GND*%
X121676800Y-101757800D03*
%TD*%
D25*
%TO.P,U303,1,V_REF*%
%TO.N,/ADC/ADC_VREF*%
X110174031Y-98930000D03*
%TO.P,U303,2,+IN*%
%TO.N,/ADC/ADC_IN+*%
X110674031Y-98930000D03*
%TO.P,U303,3,-IN*%
%TO.N,/ADC/ADC_IN-*%
X111174031Y-98930000D03*
%TO.P,U303,4,GND*%
%TO.N,GND*%
X111674031Y-98930000D03*
%TO.P,U303,5,GND*%
X112174031Y-98930000D03*
%TO.P,U303,6,NCS*%
%TO.N,SPI1_NSS*%
X112174031Y-94530000D03*
%TO.P,U303,7,DOUT*%
%TO.N,SPI1_MISO*%
X111674031Y-94530000D03*
%TO.P,U303,8,SCLK*%
%TO.N,/ADC/ADC_SCLK*%
X111174031Y-94530000D03*
%TO.P,U303,9,VIO*%
%TO.N,+3V3*%
X110674031Y-94530000D03*
%TO.P,U303,10,VA*%
%TO.N,+3.3VA*%
X110174031Y-94530000D03*
%TD*%
D26*
%TO.P,R306,1*%
%TO.N,/ADC/IN_AA_BUF_OUT*%
X109340000Y-102600000D03*
%TO.P,R306,2*%
%TO.N,/ADC/ADC_IN+*%
X109340000Y-101580000D03*
%TD*%
D27*
%TO.P,R402,1*%
%TO.N,/DAC/DAC_OUT_A*%
X135990000Y-103030000D03*
%TO.P,R402,2*%
%TO.N,Net-(C403-Pad1)*%
X137010000Y-103030000D03*
%TD*%
D28*
%TO.P,U101,1,GND*%
%TO.N,GND*%
X123905700Y-101091000D03*
D29*
%TO.P,U101,2,VIN*%
%TO.N,/Power/+5V_FILT*%
X123993200Y-102591000D03*
D28*
%TO.P,U101,3,VOUT*%
%TO.N,+3.3VA*%
X123905700Y-104091000D03*
%TD*%
D10*
%TO.P,C108,1*%
%TO.N,GND*%
X128814200Y-108820000D03*
%TO.P,C108,2*%
%TO.N,+3.3VA*%
X128814200Y-107860000D03*
%TD*%
D19*
%TO.P,C101,1*%
%TO.N,+5V*%
X141335000Y-83565000D03*
%TO.P,C101,2*%
%TO.N,GND*%
X141335000Y-85115000D03*
%TD*%
D16*
%TO.P,R405,1*%
%TO.N,/DAC/OUT_AA_BUF_OUT*%
X139110000Y-108800000D03*
%TO.P,R405,2*%
%TO.N,/DAC/OUT*%
X139110000Y-109820000D03*
%TD*%
D30*
%TO.P,L101,1,1*%
%TO.N,/Power/BUCK_SW*%
X134975000Y-60000000D03*
%TO.P,L101,2,2*%
%TO.N,+3V3*%
X141025000Y-60000000D03*
%TD*%
D31*
%TO.P,C105,1*%
%TO.N,+3V3*%
X141258300Y-64584800D03*
%TO.P,C105,2*%
%TO.N,GND*%
X141258300Y-66484800D03*
%TD*%
D32*
%TO.P,D201,1,A1*%
%TO.N,+3V3*%
X119840000Y-56470000D03*
%TO.P,D201,2,A2*%
%TO.N,GND*%
X119840000Y-58570000D03*
%TD*%
D26*
%TO.P,R204,1*%
%TO.N,/MCU/USB_D+*%
X134800000Y-78800000D03*
%TO.P,R204,2*%
%TO.N,+3V3*%
X134800000Y-77780000D03*
%TD*%
D16*
%TO.P,R213,1*%
%TO.N,/MCU/CONN_NRST*%
X108100000Y-60350000D03*
%TO.P,R213,2*%
%TO.N,/MCU/NRST*%
X108100000Y-61370000D03*
%TD*%
D33*
%TO.P,D200,1,A*%
%TO.N,+3V3*%
X99740000Y-72580000D03*
%TO.P,D200,2,BK*%
%TO.N,/MCU/LED_B_K*%
X99740000Y-75580000D03*
%TO.P,D200,3,GK*%
%TO.N,/MCU/LED_G_K*%
X98240000Y-75580000D03*
%TO.P,D200,4,RK*%
%TO.N,/MCU/LED_R_K*%
X98240000Y-72580000D03*
%TD*%
D34*
%TO.P,C306,1*%
%TO.N,+3.3VA*%
X113512600Y-104272200D03*
%TO.P,C306,2*%
%TO.N,GND*%
X113512600Y-105232200D03*
%TD*%
D26*
%TO.P,R308,1*%
%TO.N,/ADC/ADC_VREF_VIN*%
X101696800Y-93193200D03*
%TO.P,R308,2*%
%TO.N,+5V*%
X101696800Y-92173200D03*
%TD*%
D16*
%TO.P,R309,1*%
%TO.N,SPI1_SCK*%
X113980000Y-90020000D03*
%TO.P,R309,2*%
%TO.N,/ADC/ADC_SCLK*%
X113980000Y-91040000D03*
%TD*%
D23*
%TO.P,C301,1*%
%TO.N,/ADC/IN_RF*%
X116422800Y-112105200D03*
%TO.P,C301,2*%
%TO.N,/ADC/IN_BUF*%
X117382800Y-112105200D03*
%TD*%
D15*
%TO.P,R302,1*%
%TO.N,VCOM*%
X118440000Y-110930000D03*
%TO.P,R302,2*%
%TO.N,/ADC/IN_BUF*%
X117420000Y-110930000D03*
%TD*%
D23*
%TO.P,C204,1*%
%TO.N,+3V3*%
X121327500Y-74299999D03*
%TO.P,C204,2*%
%TO.N,GND*%
X122287500Y-74299999D03*
%TD*%
D15*
%TO.P,R209,1*%
%TO.N,/MCU/TIM4_CH3*%
X102650000Y-74890000D03*
%TO.P,R209,2*%
%TO.N,/MCU/LED_B_K*%
X101630000Y-74890000D03*
%TD*%
D26*
%TO.P,R304,1*%
%TO.N,Net-(C303-Pad1)*%
X109778800Y-108716000D03*
%TO.P,R304,2*%
%TO.N,Net-(C305-Pad2)*%
X109778800Y-107696000D03*
%TD*%
D12*
%TO.P,C401,1*%
%TO.N,+3V3*%
X136825000Y-92980000D03*
%TO.P,C401,2*%
%TO.N,GND*%
X135865000Y-92980000D03*
%TD*%
D35*
%TO.P,R100,1*%
%TO.N,+5V*%
X125690000Y-94670000D03*
%TO.P,R100,2*%
%TO.N,/Power/+5V_FILT*%
X125690000Y-96495000D03*
%TD*%
D36*
%TO.P,FL201,1,1*%
%TO.N,/MCU/USB_CMD_D-*%
X139775000Y-79875000D03*
%TO.P,FL201,2,2*%
%TO.N,/MCU/USB_CMC_D+*%
X139775000Y-78775000D03*
%TO.P,FL201,3,3*%
%TO.N,/MCU/USB_D+*%
X137125000Y-78775000D03*
%TO.P,FL201,4,4*%
%TO.N,/MCU/USB_D-*%
X137125000Y-79875000D03*
%TD*%
D34*
%TO.P,C203,1*%
%TO.N,+3V3*%
X130320000Y-76940000D03*
%TO.P,C203,2*%
%TO.N,GND*%
X130320000Y-77900000D03*
%TD*%
D23*
%TO.P,C403,1*%
%TO.N,Net-(C403-Pad1)*%
X138180000Y-103040000D03*
%TO.P,C403,2*%
%TO.N,GND*%
X139140000Y-103040000D03*
%TD*%
D37*
%TO.P,J200,1,Pin_1*%
%TO.N,+3V3*%
X117320000Y-56530000D03*
%TO.P,J200,2,Pin_2*%
%TO.N,/MCU/CONN_SWDIO*%
X117320000Y-60430000D03*
%TO.P,J200,3,Pin_3*%
%TO.N,GND*%
X116050000Y-56530000D03*
%TO.P,J200,4,Pin_4*%
%TO.N,/MCU/CONN_SWCLK*%
X116050000Y-60430000D03*
%TO.P,J200,5,Pin_5*%
%TO.N,GND*%
X114780000Y-56530000D03*
%TO.P,J200,6,Pin_6*%
%TO.N,/MCU/CONN_SWO*%
X114780000Y-60430000D03*
%TO.P,J200,7,Pin_7*%
%TO.N,unconnected-(J200-Pin_7-Pad7)*%
X113510000Y-56530000D03*
%TO.P,J200,8,Pin_8*%
%TO.N,unconnected-(J200-Pin_8-Pad8)*%
X113510000Y-60430000D03*
%TO.P,J200,9,Pin_9*%
%TO.N,GND*%
X112240000Y-56530000D03*
%TO.P,J200,10,Pin_10*%
%TO.N,/MCU/CONN_NRST*%
X112240000Y-60430000D03*
%TD*%
D15*
%TO.P,R102,1*%
%TO.N,/Power/BUCK_FB*%
X135721100Y-68161200D03*
%TO.P,R102,2*%
%TO.N,GND*%
X134701100Y-68161200D03*
%TD*%
%TO.P,R104,1*%
%TO.N,+3.3VA*%
X127675200Y-111180000D03*
%TO.P,R104,2*%
%TO.N,/Power/VREF*%
X126655200Y-111180000D03*
%TD*%
D23*
%TO.P,C210,1*%
%TO.N,VBUS*%
X143670000Y-76390000D03*
%TO.P,C210,2*%
%TO.N,GND*%
X144630000Y-76390000D03*
%TD*%
D38*
%TO.P,D300,1,A1*%
%TO.N,GND*%
X114975000Y-114950000D03*
%TO.P,D300,2,A2*%
%TO.N,/ADC/IN*%
X112875000Y-114950000D03*
%TD*%
D17*
%TO.P,C308,1*%
%TO.N,+5V*%
X101730000Y-90750000D03*
%TO.P,C308,2*%
%TO.N,GND*%
X100180000Y-90750000D03*
%TD*%
D15*
%TO.P,R207,1*%
%TO.N,/MCU/TIM4_CH1*%
X102680000Y-73380000D03*
%TO.P,R207,2*%
%TO.N,/MCU/LED_R_K*%
X101660000Y-73380000D03*
%TD*%
D10*
%TO.P,C310,1*%
%TO.N,/ADC/ADC_VREF*%
X108744031Y-99100000D03*
%TO.P,C310,2*%
%TO.N,GND*%
X108744031Y-98140000D03*
%TD*%
D25*
%TO.P,U400,1,VOUT_A*%
%TO.N,/DAC/DAC_OUT_A*%
X136770000Y-98970000D03*
%TO.P,U400,2,VOUT_B*%
%TO.N,/DAC/DAC_OUT_B*%
X137270000Y-98970000D03*
%TO.P,U400,3,GND*%
%TO.N,GND*%
X137770000Y-98970000D03*
%TO.P,U400,4,NLDAC*%
%TO.N,DAC_NLDAC*%
X138270000Y-98970000D03*
%TO.P,U400,5,NCLR*%
%TO.N,DAC_NCLR*%
X138770000Y-98970000D03*
%TO.P,U400,6,NSYNC*%
%TO.N,SPI2_NSS*%
X138770000Y-94570000D03*
%TO.P,U400,7,SCLK*%
%TO.N,/DAC/DAC_SCLK*%
X138270000Y-94570000D03*
%TO.P,U400,8,DIN*%
%TO.N,SPI2_MOSI*%
X137770000Y-94570000D03*
%TO.P,U400,9,AVDD*%
%TO.N,+3V3*%
X137270000Y-94570000D03*
%TO.P,U400,10,VREFIN/VREFOUT*%
%TO.N,/DAC/DAC_VREF*%
X136770000Y-94570000D03*
%TD*%
D39*
%TO.P,U300,1*%
%TO.N,/ADC/IN_BUF_OUT*%
X115536800Y-109283600D03*
%TO.P,U300,2,V-*%
%TO.N,GND*%
X116486800Y-109283600D03*
%TO.P,U300,3,+*%
%TO.N,/ADC/IN_BUF*%
X117436800Y-109283600D03*
%TO.P,U300,4,-*%
%TO.N,/ADC/IN_BUF_OUT*%
X117436800Y-107008600D03*
%TO.P,U300,5,V+*%
%TO.N,+3.3VA*%
X115536800Y-107008600D03*
%TD*%
D27*
%TO.P,R210,1*%
%TO.N,/MCU/CONN_SWDIO*%
X118240000Y-65760000D03*
%TO.P,R210,2*%
%TO.N,/MCU/SWDIO*%
X119260000Y-65760000D03*
%TD*%
D20*
%TO.P,J400,1,In*%
%TO.N,/DAC/OUT*%
X138023600Y-119920000D03*
D21*
%TO.P,J400,2,Ext*%
%TO.N,GND*%
X143103600Y-125000000D03*
D20*
X140563600Y-119920000D03*
D21*
X132943600Y-125000000D03*
%TD*%
D27*
%TO.P,R401,1*%
%TO.N,/DAC/DAC_OUT_B*%
X137195000Y-101370000D03*
%TO.P,R401,2*%
%TO.N,GND*%
X138215000Y-101370000D03*
%TD*%
D40*
%TO.P,Y200,1,1*%
%TO.N,/MCU/HSE_IN*%
X114362500Y-75099999D03*
%TO.P,Y200,2,2*%
%TO.N,GND*%
X112162500Y-75099999D03*
%TO.P,Y200,3,3*%
%TO.N,/MCU/XTAL_IN*%
X112162500Y-76799999D03*
%TO.P,Y200,4,4*%
%TO.N,GND*%
X114362500Y-76799999D03*
%TD*%
D15*
%TO.P,R105,1*%
%TO.N,/Power/VREF*%
X124877200Y-111180000D03*
%TO.P,R105,2*%
%TO.N,GND*%
X123857200Y-111180000D03*
%TD*%
%TO.P,R206,1*%
%TO.N,/MCU/USB_CONN_CC1*%
X151980000Y-86180000D03*
%TO.P,R206,2*%
%TO.N,GND*%
X150960000Y-86180000D03*
%TD*%
D10*
%TO.P,C304,1*%
%TO.N,/ADC/IN_AA_BUF_IN*%
X106500000Y-107750000D03*
%TO.P,C304,2*%
%TO.N,GND*%
X106500000Y-106790000D03*
%TD*%
D41*
%TO.P,C107,1*%
%TO.N,/Power/VREF*%
X125100000Y-112860000D03*
%TO.P,C107,2*%
%TO.N,GND*%
X123200000Y-112860000D03*
%TD*%
D27*
%TO.P,R404,1*%
%TO.N,Net-(C405-Pad1)*%
X138190000Y-105200000D03*
%TO.P,R404,2*%
%TO.N,/DAC/OUT_AA_BUF_IN*%
X139210000Y-105200000D03*
%TD*%
D34*
%TO.P,C406,1*%
%TO.N,GND*%
X133618400Y-107800000D03*
%TO.P,C406,2*%
%TO.N,+3.3VA*%
X133618400Y-108760000D03*
%TD*%
D23*
%TO.P,C404,1*%
%TO.N,/DAC/OUT_AA_BUF_IN*%
X139120000Y-106700000D03*
%TO.P,C404,2*%
%TO.N,GND*%
X140080000Y-106700000D03*
%TD*%
D42*
%TO.P,D400,1,A1*%
%TO.N,/DAC/OUT*%
X139120000Y-114320000D03*
%TO.P,D400,2,A2*%
%TO.N,GND*%
X141220000Y-114320000D03*
%TD*%
D17*
%TO.P,C400,1*%
%TO.N,+3V3*%
X136840000Y-91450000D03*
%TO.P,C400,2*%
%TO.N,GND*%
X135290000Y-91450000D03*
%TD*%
D26*
%TO.P,R300,1*%
%TO.N,/ADC/IN*%
X112850600Y-113190000D03*
%TO.P,R300,2*%
%TO.N,/ADC/IN_RF*%
X112850600Y-112170000D03*
%TD*%
D43*
%TO.P,U102,1*%
%TO.N,VCOM*%
X124902600Y-107857600D03*
%TO.P,U102,2,V-*%
%TO.N,GND*%
X124902600Y-108807600D03*
%TO.P,U102,3,+*%
%TO.N,/Power/VREF*%
X124902600Y-109757600D03*
%TO.P,U102,4,-*%
%TO.N,VCOM*%
X127177600Y-109757600D03*
%TO.P,U102,5,V+*%
%TO.N,+3.3VA*%
X127177600Y-107857600D03*
%TD*%
D16*
%TO.P,R200,1*%
%TO.N,GND*%
X123560000Y-73540000D03*
%TO.P,R200,2*%
%TO.N,/MCU/BOOT0*%
X123560000Y-74560000D03*
%TD*%
D42*
%TO.P,D204,1,A1*%
%TO.N,GND*%
X111330000Y-64030000D03*
%TO.P,D204,2,A2*%
%TO.N,/MCU/CONN_SWO*%
X113430000Y-64030000D03*
%TD*%
D15*
%TO.P,R303,1*%
%TO.N,/ADC/IN_BUF_OUT*%
X112990000Y-108810000D03*
%TO.P,R303,2*%
%TO.N,Net-(C303-Pad1)*%
X111970000Y-108810000D03*
%TD*%
D44*
%TO.P,L100,1,1*%
%TO.N,VBUS*%
X142755000Y-82140000D03*
%TO.P,L100,2,2*%
%TO.N,+5V*%
X141785000Y-82140000D03*
%TD*%
D34*
%TO.P,C312,1*%
%TO.N,+3.3VA*%
X108764031Y-94150000D03*
%TO.P,C312,2*%
%TO.N,GND*%
X108764031Y-95110000D03*
%TD*%
D12*
%TO.P,C208,1*%
%TO.N,/MCU/HSE_IN*%
X115037500Y-78299999D03*
%TO.P,C208,2*%
%TO.N,GND*%
X114077500Y-78299999D03*
%TD*%
%TO.P,C405,1*%
%TO.N,Net-(C405-Pad1)*%
X135850000Y-105190000D03*
%TO.P,C405,2*%
%TO.N,/DAC/OUT_AA_BUF_OUT*%
X134890000Y-105190000D03*
%TD*%
D16*
%TO.P,R301,1*%
%TO.N,GND*%
X114060600Y-111140000D03*
%TO.P,R301,2*%
%TO.N,/ADC/IN_RF*%
X114060600Y-112160000D03*
%TD*%
D34*
%TO.P,C303,1*%
%TO.N,Net-(C303-Pad1)*%
X110930000Y-108780000D03*
%TO.P,C303,2*%
%TO.N,GND*%
X110930000Y-109740000D03*
%TD*%
D45*
%TO.P,J201,A1,GND*%
%TO.N,GND*%
X148765000Y-83075000D03*
%TO.P,J201,A4,VBUS*%
%TO.N,VBUS*%
X148765000Y-82275000D03*
D46*
%TO.P,J201,A5,CC1*%
%TO.N,/MCU/USB_CONN_CC1*%
X148765000Y-81075000D03*
%TO.P,J201,A6,D+*%
%TO.N,/MCU/USB_CONN_D+*%
X148765000Y-80075000D03*
%TO.P,J201,A7,D-*%
%TO.N,/MCU/USB_CONN_D-*%
X148765000Y-79575000D03*
%TO.P,J201,A8,SBU1*%
%TO.N,unconnected-(J201-SBU1-PadA8)*%
X148765000Y-78575000D03*
D45*
%TO.P,J201,A9,VBUS*%
%TO.N,VBUS*%
X148765000Y-77375000D03*
%TO.P,J201,A12,GND*%
%TO.N,GND*%
X148765000Y-76575000D03*
%TO.P,J201,B1,GND*%
X148765000Y-76575000D03*
%TO.P,J201,B4,VBUS*%
%TO.N,VBUS*%
X148765000Y-77375000D03*
D46*
%TO.P,J201,B5,CC2*%
%TO.N,/MCU/USB_CONN_CC2*%
X148765000Y-78075000D03*
%TO.P,J201,B6,D+*%
%TO.N,/MCU/USB_CONN_D+*%
X148765000Y-79075000D03*
%TO.P,J201,B7,D-*%
%TO.N,/MCU/USB_CONN_D-*%
X148765000Y-80575000D03*
%TO.P,J201,B8,SBU2*%
%TO.N,unconnected-(J201-SBU2-PadB8)*%
X148765000Y-81575000D03*
D45*
%TO.P,J201,B9,VBUS*%
%TO.N,VBUS*%
X148765000Y-82275000D03*
%TO.P,J201,B12,GND*%
%TO.N,GND*%
X148765000Y-83075000D03*
D47*
%TO.P,J201,S1,SHIELD*%
%TO.N,unconnected-(J201-SHIELD-PadS1)*%
X149680000Y-84145000D03*
D48*
X153860000Y-84145000D03*
D47*
X149680000Y-75505000D03*
D48*
X153860000Y-75505000D03*
%TD*%
D16*
%TO.P,R400,1*%
%TO.N,SPI2_SCK*%
X138365000Y-88890000D03*
%TO.P,R400,2*%
%TO.N,/DAC/DAC_SCLK*%
X138365000Y-89910000D03*
%TD*%
D41*
%TO.P,C102,1*%
%TO.N,/Power/+5V_FILT*%
X125791600Y-98730200D03*
%TO.P,C102,2*%
%TO.N,GND*%
X123891600Y-98730200D03*
%TD*%
D15*
%TO.P,R101,1*%
%TO.N,+3V3*%
X137831300Y-68151000D03*
%TO.P,R101,2*%
%TO.N,/Power/BUCK_FB*%
X136811300Y-68151000D03*
%TD*%
D19*
%TO.P,C402,1*%
%TO.N,/DAC/DAC_VREF*%
X135240000Y-94500000D03*
%TO.P,C402,2*%
%TO.N,GND*%
X135240000Y-96050000D03*
%TD*%
D38*
%TO.P,D203,1,A1*%
%TO.N,/MCU/CONN_SWCLK*%
X116820000Y-64030000D03*
%TO.P,D203,2,A2*%
%TO.N,GND*%
X114720000Y-64030000D03*
%TD*%
D12*
%TO.P,C106,1*%
%TO.N,+3V3*%
X137829300Y-69304200D03*
%TO.P,C106,2*%
%TO.N,/Power/BUCK_FB*%
X136869300Y-69304200D03*
%TD*%
D26*
%TO.P,R307,1*%
%TO.N,VCOM*%
X112522000Y-102610000D03*
%TO.P,R307,2*%
%TO.N,/ADC/ADC_IN-*%
X112522000Y-101590000D03*
%TD*%
D31*
%TO.P,C104,1*%
%TO.N,+5V*%
X134527300Y-64584800D03*
%TO.P,C104,2*%
%TO.N,GND*%
X134527300Y-66484800D03*
%TD*%
D15*
%TO.P,R208,1*%
%TO.N,/MCU/TIM4_CH2*%
X102650000Y-76440000D03*
%TO.P,R208,2*%
%TO.N,/MCU/LED_G_K*%
X101630000Y-76440000D03*
%TD*%
D23*
%TO.P,C307,1*%
%TO.N,/ADC/ADC_IN+*%
X110440000Y-101620000D03*
%TO.P,C307,2*%
%TO.N,/ADC/ADC_IN-*%
X111400000Y-101620000D03*
%TD*%
D42*
%TO.P,D202,1,A1*%
%TO.N,/MCU/CONN_SWDIO*%
X118240000Y-64020000D03*
%TO.P,D202,2,A2*%
%TO.N,GND*%
X120340000Y-64020000D03*
%TD*%
D43*
%TO.P,U301,1*%
%TO.N,/ADC/IN_AA_BUF_OUT*%
X109739000Y-104267000D03*
%TO.P,U301,2,V-*%
%TO.N,GND*%
X109739000Y-105217000D03*
%TO.P,U301,3,+*%
%TO.N,/ADC/IN_AA_BUF_IN*%
X109739000Y-106167000D03*
%TO.P,U301,4,-*%
%TO.N,/ADC/IN_AA_BUF_OUT*%
X112014000Y-106167000D03*
%TO.P,U301,5,V+*%
%TO.N,+3.3VA*%
X112014000Y-104267000D03*
%TD*%
D49*
%TO.P,D100,1,K*%
%TO.N,/Power/LED_PWR_K*%
X149695000Y-64700000D03*
%TO.P,D100,2,A*%
%TO.N,+3V3*%
X148120000Y-64700000D03*
%TD*%
D23*
%TO.P,C211,1*%
%TO.N,+3V3*%
X99715000Y-70748400D03*
%TO.P,C211,2*%
%TO.N,GND*%
X100675000Y-70748400D03*
%TD*%
D50*
%TO.P,U302,1,IN*%
%TO.N,/ADC/ADC_VREF_VIN*%
X105161531Y-101040000D03*
%TO.P,U302,2,OUT*%
%TO.N,/ADC/ADC_VREF*%
X105161531Y-99140000D03*
%TO.P,U302,3,GND*%
%TO.N,GND*%
X103286531Y-100090000D03*
%TD*%
D27*
%TO.P,R201,1*%
%TO.N,/MCU/XTAL_IN*%
X111777500Y-79424999D03*
%TO.P,R201,2*%
%TO.N,/MCU/HSE_OUT*%
X112797500Y-79424999D03*
%TD*%
D18*
%TO.P,C311,1*%
%TO.N,/ADC/ADC_VREF*%
X107344031Y-99110000D03*
%TO.P,C311,2*%
%TO.N,GND*%
X107344031Y-97560000D03*
%TD*%
D15*
%TO.P,R305,1*%
%TO.N,Net-(C305-Pad2)*%
X108675000Y-107750000D03*
%TO.P,R305,2*%
%TO.N,/ADC/IN_AA_BUF_IN*%
X107655000Y-107750000D03*
%TD*%
%TO.P,R203,1*%
%TO.N,SPI1_NSS*%
X121540000Y-86310000D03*
%TO.P,R203,2*%
%TO.N,+3V3*%
X120520000Y-86310000D03*
%TD*%
D19*
%TO.P,C313,1*%
%TO.N,+3.3VA*%
X107344031Y-94160000D03*
%TO.P,C313,2*%
%TO.N,GND*%
X107344031Y-95710000D03*
%TD*%
D44*
%TO.P,L200,1,1*%
%TO.N,VDDA*%
X116257500Y-83479999D03*
%TO.P,L200,2,2*%
%TO.N,+3V3*%
X115287500Y-83479999D03*
%TD*%
D17*
%TO.P,C314,1*%
%TO.N,+3V3*%
X110055000Y-91360000D03*
%TO.P,C314,2*%
%TO.N,GND*%
X108505000Y-91360000D03*
%TD*%
D51*
%TO.N,GND*%
X147790000Y-84200000D03*
X135250000Y-97225000D03*
X140240000Y-114310000D03*
D52*
X105000000Y-67000000D03*
D51*
X126537500Y-83124999D03*
X106960000Y-59400000D03*
D52*
X110000000Y-112500000D03*
X155000000Y-105000000D03*
X122500000Y-120000000D03*
X147500000Y-67500000D03*
X105000000Y-55000000D03*
X125000000Y-127500000D03*
D51*
X123560000Y-72685000D03*
D52*
X100000000Y-64500000D03*
X102500000Y-122500000D03*
X150000000Y-105000000D03*
D51*
X146050000Y-79300000D03*
X103290000Y-89850000D03*
D52*
X97500000Y-102500000D03*
X125000000Y-115000000D03*
X97500000Y-112500000D03*
X152500000Y-72500000D03*
X142500000Y-130000000D03*
X142500000Y-75000000D03*
X120000000Y-120000000D03*
X127500000Y-127500000D03*
D51*
X127590000Y-108795000D03*
D52*
X105000000Y-70000000D03*
X147500000Y-72500000D03*
D51*
X108750000Y-97250000D03*
X116890000Y-90770000D03*
D52*
X130000000Y-112500000D03*
D51*
X113437500Y-77849999D03*
D52*
X125000000Y-117500000D03*
X107500000Y-112500000D03*
X100000000Y-122500000D03*
X130000000Y-95000000D03*
X102500000Y-117500000D03*
D51*
X107350000Y-96625000D03*
D52*
X97500000Y-107500000D03*
X107500000Y-120000000D03*
X142500000Y-122500000D03*
X120000000Y-115000000D03*
D51*
X122395627Y-100337882D03*
X101590000Y-70755000D03*
D52*
X140000000Y-75000000D03*
D51*
X139070000Y-101345000D03*
D52*
X145000000Y-105000000D03*
X147500000Y-95000000D03*
X137500000Y-115000000D03*
X126100000Y-77540000D03*
X97500000Y-100000000D03*
X137500000Y-125000000D03*
X130000000Y-57500000D03*
X100000000Y-112500000D03*
X102500000Y-64500000D03*
D51*
X117687500Y-75924999D03*
D52*
X135000000Y-122500000D03*
X145000000Y-110000000D03*
X102500000Y-112500000D03*
X132500000Y-92500000D03*
X152500000Y-67500000D03*
X142500000Y-107500000D03*
X120000000Y-60000000D03*
X132500000Y-95000000D03*
X115000000Y-100000000D03*
X150000000Y-97500000D03*
X115000000Y-130000000D03*
X112500000Y-125000000D03*
D51*
X112225000Y-64040000D03*
X114675000Y-110575000D03*
X147120000Y-76400000D03*
D52*
X122500000Y-117500000D03*
D51*
X116960000Y-87930000D03*
D52*
X130000000Y-60000000D03*
X110000000Y-130000000D03*
D51*
X140230000Y-103060000D03*
D52*
X152500000Y-110000000D03*
X115000000Y-127500000D03*
X100000000Y-107500000D03*
D51*
X143960000Y-63750000D03*
D52*
X105000000Y-87500000D03*
X152500000Y-92500000D03*
X120000000Y-55000000D03*
D51*
X116060000Y-54810000D03*
D52*
X117500000Y-122500000D03*
X147500000Y-105000000D03*
X137500000Y-130000000D03*
X97500000Y-115000000D03*
X147500000Y-70000000D03*
D51*
X140510000Y-80910000D03*
D52*
X132500000Y-130000000D03*
X127500000Y-125000000D03*
X122500000Y-132500000D03*
X110000000Y-55000000D03*
D51*
X116525000Y-104475000D03*
D52*
X125000000Y-55000000D03*
D51*
X136480000Y-88820000D03*
X115837500Y-80099999D03*
D52*
X140000000Y-127500000D03*
X152500000Y-112500000D03*
X152500000Y-100000000D03*
X155000000Y-90000000D03*
X100000000Y-85000000D03*
X97500000Y-82500000D03*
X127500000Y-115000000D03*
X102500000Y-97500000D03*
D51*
X145480500Y-76400000D03*
D52*
X142500000Y-92500000D03*
X147500000Y-97500000D03*
X140000000Y-125000000D03*
X100000000Y-117500000D03*
X145000000Y-102500000D03*
X155000000Y-100000000D03*
X110000000Y-120000000D03*
D51*
X136630000Y-65570000D03*
X141660000Y-67530000D03*
D52*
X127062500Y-78024999D03*
X145000000Y-67500000D03*
D51*
X114780000Y-54820000D03*
D52*
X105000000Y-62500000D03*
D51*
X123490000Y-108770000D03*
D52*
X145000000Y-62500000D03*
X122500000Y-127500000D03*
X150000000Y-115000000D03*
X105000000Y-92500000D03*
X145000000Y-122500000D03*
X132500000Y-112500000D03*
D51*
X114188721Y-101696627D03*
D52*
X140000000Y-122500000D03*
X150000000Y-72500000D03*
X155000000Y-70000000D03*
D51*
X103275000Y-101975000D03*
D52*
X97500000Y-87500000D03*
X155000000Y-97500000D03*
X150000000Y-90000000D03*
X112500000Y-122500000D03*
X147500000Y-90000000D03*
D51*
X109760000Y-61600000D03*
D52*
X130000000Y-97500000D03*
X102500000Y-107500000D03*
X145000000Y-90000000D03*
X142500000Y-115000000D03*
X147500000Y-102500000D03*
X155000000Y-65000000D03*
X155000000Y-115000000D03*
X142500000Y-90000000D03*
X155000000Y-95000000D03*
X142500000Y-105000000D03*
X147500000Y-120000000D03*
X145000000Y-97500000D03*
X155000000Y-110000000D03*
D51*
X150000000Y-86160000D03*
D52*
X147500000Y-115000000D03*
X122500000Y-60000000D03*
X107500000Y-87500000D03*
X145000000Y-112500000D03*
D51*
X133430000Y-67420000D03*
D52*
X152500000Y-117500000D03*
D51*
X121270000Y-100410000D03*
D52*
X107500000Y-130000000D03*
X100000000Y-87500000D03*
D51*
X108750000Y-96000000D03*
D52*
X117500000Y-115000000D03*
D51*
X133940000Y-86750000D03*
X104570000Y-94760000D03*
D52*
X150000000Y-100000000D03*
X142500000Y-127500000D03*
X102500000Y-85000000D03*
D51*
X125730000Y-92202000D03*
D52*
X152500000Y-95000000D03*
X137500000Y-112500000D03*
X127500000Y-132500000D03*
X142500000Y-72500000D03*
X97500000Y-90000000D03*
X135000000Y-120000000D03*
D51*
X149970000Y-73560000D03*
D52*
X100000000Y-120000000D03*
X120000000Y-97500000D03*
X107500000Y-70000000D03*
D51*
X135185000Y-92455000D03*
D52*
X150000000Y-110000000D03*
X122500000Y-130000000D03*
X150000000Y-112500000D03*
X155000000Y-102500000D03*
D51*
X113000000Y-98925000D03*
X140600000Y-97600000D03*
D52*
X97500000Y-105000000D03*
X132500000Y-127500000D03*
X130000000Y-62500000D03*
X120000000Y-95000000D03*
X122500000Y-55000000D03*
X150000000Y-120000000D03*
X145000000Y-130000000D03*
X155000000Y-120000000D03*
X117500000Y-127500000D03*
X132500000Y-115000000D03*
X137500000Y-127500000D03*
X97500000Y-110000000D03*
X145000000Y-57500000D03*
X110000000Y-122500000D03*
X147500000Y-107500000D03*
X102500000Y-115000000D03*
X147500000Y-110000000D03*
X150000000Y-95000000D03*
X145000000Y-92500000D03*
X142500000Y-100000000D03*
X155000000Y-67500000D03*
D51*
X122360000Y-98430000D03*
D52*
X115000000Y-125000000D03*
X105000000Y-115000000D03*
X105000000Y-57500000D03*
X145000000Y-87500000D03*
X150000000Y-122500000D03*
X107500000Y-122500000D03*
X120000000Y-127500000D03*
X105000000Y-110000000D03*
D51*
X103275000Y-101050000D03*
D52*
X142500000Y-110000000D03*
X150000000Y-107500000D03*
X132500000Y-122500000D03*
X145000000Y-115000000D03*
X147500000Y-92500000D03*
X102500000Y-80000000D03*
D51*
X119350000Y-64000000D03*
D52*
X100000000Y-67000000D03*
X155000000Y-122500000D03*
X102500000Y-110000000D03*
D51*
X137500000Y-84810000D03*
D52*
X127500000Y-122500000D03*
X155000000Y-112500000D03*
D51*
X106500800Y-105858200D03*
X141340000Y-86080000D03*
D52*
X122500000Y-122500000D03*
X152500000Y-70000000D03*
D51*
X122890000Y-111240000D03*
D52*
X102500000Y-87500000D03*
X135000000Y-112500000D03*
D51*
X114425000Y-105225000D03*
D52*
X130000000Y-115000000D03*
X105000000Y-60000000D03*
X107500000Y-55000000D03*
X127500000Y-120000000D03*
X135000000Y-127500000D03*
X155000000Y-117500000D03*
X107500000Y-115000000D03*
X102500000Y-82500000D03*
X117500000Y-130000000D03*
X117500000Y-97500000D03*
X107500000Y-72500000D03*
D51*
X117687500Y-80099999D03*
D52*
X122500000Y-95000000D03*
X145000000Y-60000000D03*
X142500000Y-95000000D03*
D51*
X133920000Y-68200000D03*
D52*
X107500000Y-110000000D03*
D51*
X108235000Y-92755000D03*
D52*
X122037500Y-77499999D03*
X127500000Y-62500000D03*
X127500000Y-130000000D03*
X100000000Y-115000000D03*
X147500000Y-112500000D03*
X152500000Y-97500000D03*
D51*
X139040000Y-107760000D03*
D52*
X105000000Y-64500000D03*
X147500000Y-100000000D03*
D51*
X147200000Y-83290000D03*
D52*
X97500000Y-64500000D03*
X125000000Y-125000000D03*
D51*
X122360000Y-99400000D03*
D52*
X142500000Y-102500000D03*
X125050000Y-79410000D03*
X150000000Y-67500000D03*
D51*
X112250000Y-100250000D03*
D52*
X107500000Y-127500000D03*
X132500000Y-102500000D03*
X132500000Y-97500000D03*
D51*
X147730000Y-66200000D03*
D52*
X110000000Y-57500000D03*
X150000000Y-92500000D03*
X135000000Y-130000000D03*
X122500000Y-62500000D03*
D51*
X147840000Y-75540000D03*
X114050000Y-114950000D03*
X110970000Y-110660000D03*
X140730000Y-67540000D03*
D52*
X97500000Y-95000000D03*
X127500000Y-117500000D03*
X97500000Y-92500000D03*
D51*
X116460000Y-110700000D03*
D52*
X97500000Y-80000000D03*
X125000000Y-122500000D03*
X140000000Y-130000000D03*
X112500000Y-127500000D03*
D51*
X136470000Y-87080000D03*
X121290000Y-98430000D03*
D52*
X145000000Y-100000000D03*
X145000000Y-72500000D03*
X102500000Y-120000000D03*
X100000000Y-80000000D03*
D51*
X137670000Y-65540000D03*
D52*
X135000000Y-115000000D03*
X150000000Y-87500000D03*
X97500000Y-120000000D03*
X127500000Y-60000000D03*
X97500000Y-67000000D03*
X145000000Y-95000000D03*
X155000000Y-107500000D03*
X97500000Y-97500000D03*
X132500000Y-100000000D03*
X142500000Y-97500000D03*
X152500000Y-115000000D03*
X97500000Y-122500000D03*
X100000000Y-82500000D03*
D51*
X134780000Y-107750000D03*
D52*
X122500000Y-125000000D03*
X152500000Y-105000000D03*
D51*
X139380000Y-84920000D03*
D52*
X152500000Y-90000000D03*
X125000000Y-132500000D03*
X113070000Y-85200000D03*
X152500000Y-122500000D03*
X150000000Y-102500000D03*
X125000000Y-120000000D03*
D51*
X139460000Y-76750000D03*
D52*
X147500000Y-87500000D03*
X113060000Y-81230000D03*
X145000000Y-70000000D03*
X155000000Y-92500000D03*
X145000000Y-107500000D03*
X147500000Y-122500000D03*
X142500000Y-87500000D03*
X145000000Y-127500000D03*
X137500000Y-122500000D03*
D51*
X98900000Y-90720000D03*
D52*
X150000000Y-70000000D03*
X115000000Y-97500000D03*
X120000000Y-130000000D03*
X152500000Y-120000000D03*
X105000000Y-112500000D03*
X102500000Y-67000000D03*
X107500000Y-57500000D03*
X120560000Y-75980000D03*
X112500000Y-130000000D03*
D51*
X140090000Y-105840000D03*
D52*
X115000000Y-122500000D03*
X155000000Y-72500000D03*
D51*
X116240000Y-103490000D03*
D52*
X110000000Y-127500000D03*
X152500000Y-107500000D03*
X145000000Y-120000000D03*
D51*
X121290000Y-99400000D03*
X143170000Y-86070000D03*
D52*
X125000000Y-130000000D03*
X152500000Y-102500000D03*
D51*
X108500000Y-105250000D03*
D52*
X130000000Y-100000000D03*
X97500000Y-85000000D03*
D51*
X119835000Y-57605000D03*
D52*
X132500000Y-120000000D03*
X142500000Y-112500000D03*
D51*
X115730000Y-64030000D03*
D52*
X132500000Y-105000000D03*
X97500000Y-117500000D03*
D51*
X110562500Y-75099999D03*
X112250000Y-54830000D03*
D52*
X110000000Y-115000000D03*
X100000000Y-110000000D03*
X130000000Y-102500000D03*
D51*
X138047376Y-100239681D03*
D52*
X127500000Y-57500000D03*
X145000000Y-55000000D03*
X120000000Y-122500000D03*
X122500000Y-115000000D03*
D51*
%TO.N,+5V*%
X139210000Y-81100000D03*
X103140000Y-90750000D03*
X125700000Y-93340000D03*
X138420000Y-76840000D03*
%TO.N,+3.3VA*%
X105580000Y-95010000D03*
X115120000Y-103306185D03*
X115100000Y-101890000D03*
%TO.N,+3V3*%
X144550000Y-64700000D03*
X128220000Y-86300000D03*
X132930000Y-87130000D03*
X110060000Y-90070000D03*
X115260000Y-85270000D03*
X134740000Y-76850000D03*
X121600000Y-56470000D03*
X98936185Y-70820000D03*
X143330000Y-64710000D03*
X138690000Y-69300000D03*
X119380000Y-86280000D03*
X130330000Y-75860000D03*
X121310000Y-73180000D03*
X135400000Y-90236185D03*
%TO.N,/MCU/NRST*%
X119500000Y-75990000D03*
X121870000Y-78500000D03*
%TO.N,SPI2_NSS*%
X139393815Y-85850000D03*
X136730000Y-85390000D03*
%TO.N,SPI1_NSS*%
X118640000Y-87940000D03*
X116870000Y-89660000D03*
%TO.N,/MCU/TIM4_CH1*%
X112330000Y-82000000D03*
X122810000Y-78230000D03*
%TO.N,/MCU/TIM4_CH2*%
X112290000Y-84370000D03*
X125990000Y-78630000D03*
%TO.N,/MCU/TIM4_CH3*%
X112290000Y-83020000D03*
X124060000Y-79020000D03*
%TO.N,DAC_NCLR*%
X137190000Y-89540000D03*
X139620000Y-98050000D03*
%TO.N,DAC_NLDAC*%
X139650000Y-97060000D03*
X137210000Y-87850000D03*
%TD*%
D53*
%TO.N,VBUS*%
X143670000Y-79300000D02*
X143670000Y-80790000D01*
D54*
X148765000Y-77375000D02*
X146685000Y-77375000D01*
D53*
X143670000Y-79300000D02*
X143670000Y-77760000D01*
D54*
X144160000Y-75130000D02*
X143670000Y-75620000D01*
X143670000Y-80830000D02*
X143690000Y-80810000D01*
X146280000Y-76970000D02*
X146280000Y-75490000D01*
X146685000Y-77375000D02*
X146280000Y-76970000D01*
X147445000Y-82275000D02*
X147310000Y-82140000D01*
D53*
X143670000Y-80790000D02*
X143690000Y-80810000D01*
D54*
X143670000Y-82140000D02*
X142755000Y-82140000D01*
X143670000Y-75620000D02*
X143670000Y-76390000D01*
X143670000Y-76390000D02*
X143670000Y-77760000D01*
X146280000Y-75490000D02*
X145920000Y-75130000D01*
D53*
X142537500Y-79300000D02*
X143670000Y-79300000D01*
D54*
X143670000Y-82140000D02*
X143670000Y-80830000D01*
X147310000Y-82140000D02*
X143670000Y-82140000D01*
X148765000Y-82275000D02*
X147445000Y-82275000D01*
X145920000Y-75130000D02*
X144160000Y-75130000D01*
D55*
%TO.N,GND*%
X109790000Y-61630000D02*
X109760000Y-61600000D01*
D54*
X140080000Y-105850000D02*
X140090000Y-105840000D01*
D53*
X140210000Y-103040000D02*
X140230000Y-103060000D01*
X126307500Y-85533119D02*
X126307500Y-86299999D01*
D54*
X128814200Y-108820000D02*
X127615000Y-108820000D01*
X150020000Y-86180000D02*
X150000000Y-86160000D01*
X150910000Y-73550000D02*
X149980000Y-73550000D01*
D53*
X127087500Y-78049999D02*
X127062500Y-78024999D01*
X135240000Y-96050000D02*
X135240000Y-97215000D01*
X123560000Y-73540000D02*
X123560000Y-72685000D01*
X112215000Y-64030000D02*
X112225000Y-64040000D01*
X107350000Y-95715969D02*
X107344031Y-95710000D01*
D54*
X137557500Y-107700000D02*
X138980000Y-107700000D01*
D53*
X107344031Y-96630969D02*
X107350000Y-96625000D01*
X115260600Y-111160000D02*
X115260000Y-111160000D01*
D54*
X110930000Y-110620000D02*
X110970000Y-110660000D01*
D53*
X112995000Y-98930000D02*
X113000000Y-98925000D01*
X107350000Y-96625000D02*
X107350000Y-95715969D01*
D54*
X101583400Y-70748400D02*
X101590000Y-70755000D01*
X114417800Y-105232200D02*
X114425000Y-105225000D01*
D53*
X107344031Y-97560000D02*
X107344031Y-96630969D01*
D54*
X138980000Y-107700000D02*
X139040000Y-107760000D01*
X140080000Y-106700000D02*
X140080000Y-105850000D01*
X116460000Y-110700000D02*
X116460000Y-109310400D01*
D53*
X122037500Y-75274999D02*
X122287500Y-75024999D01*
D54*
X133618400Y-107800000D02*
X134730000Y-107800000D01*
D53*
X109109031Y-92750000D02*
X108240000Y-92750000D01*
D54*
X106500000Y-105859000D02*
X106500800Y-105858200D01*
D53*
X108764031Y-95985969D02*
X108750000Y-96000000D01*
D54*
X144630000Y-76390000D02*
X145470500Y-76390000D01*
D53*
X122037500Y-76137499D02*
X122037500Y-75274999D01*
D55*
X109790000Y-62490000D02*
X109790000Y-61630000D01*
D54*
X141220000Y-114320000D02*
X140250000Y-114320000D01*
X112240000Y-54840000D02*
X112250000Y-54830000D01*
X100180000Y-90750000D02*
X98930000Y-90750000D01*
X112240000Y-56530000D02*
X112240000Y-54840000D01*
X114362500Y-76799999D02*
X114362500Y-76924999D01*
X123527600Y-108807600D02*
X123490000Y-108770000D01*
X140250000Y-114320000D02*
X140240000Y-114310000D01*
D53*
X126537500Y-85303119D02*
X126307500Y-85533119D01*
D54*
X148670000Y-66240000D02*
X147770000Y-66240000D01*
X114362500Y-76924999D02*
X113437500Y-77849999D01*
X138215000Y-101370000D02*
X139045000Y-101370000D01*
X145470500Y-76390000D02*
X145480500Y-76400000D01*
D53*
X130170001Y-78049999D02*
X130320000Y-77900000D01*
D54*
X114780000Y-56530000D02*
X114780000Y-54820000D01*
D53*
X108744031Y-98140000D02*
X108744031Y-97255969D01*
X103469031Y-102910000D02*
X103469031Y-102169031D01*
D55*
X106940000Y-60390000D02*
X106940000Y-59420000D01*
D54*
X150960000Y-86180000D02*
X150020000Y-86180000D01*
X139045000Y-101370000D02*
X139070000Y-101345000D01*
X116050000Y-56530000D02*
X116050000Y-54820000D01*
X108533000Y-105217000D02*
X108500000Y-105250000D01*
D53*
X111330000Y-64030000D02*
X112215000Y-64030000D01*
X128450000Y-78049999D02*
X127087500Y-78049999D01*
D54*
X149980000Y-73550000D02*
X149970000Y-73560000D01*
X134730000Y-107800000D02*
X134780000Y-107750000D01*
D53*
X128450000Y-78049999D02*
X130170001Y-78049999D01*
D55*
X111674031Y-99674031D02*
X112250000Y-100250000D01*
D54*
X116510000Y-105450000D02*
X116510000Y-104490000D01*
X110930000Y-109740000D02*
X110930000Y-110620000D01*
X144812500Y-79300000D02*
X146050000Y-79300000D01*
D53*
X137770000Y-98970000D02*
X137770000Y-99962305D01*
X120125000Y-81049999D02*
X119284380Y-81049999D01*
X103286531Y-101038469D02*
X103275000Y-101050000D01*
D55*
X106940000Y-59420000D02*
X106960000Y-59400000D01*
X114720000Y-64030000D02*
X115730000Y-64030000D01*
D53*
X119840000Y-57610000D02*
X119835000Y-57605000D01*
X126537500Y-84462499D02*
X126537500Y-83124999D01*
D54*
X116050000Y-54820000D02*
X116060000Y-54810000D01*
X116510000Y-104490000D02*
X116525000Y-104475000D01*
X100675000Y-70748400D02*
X101583400Y-70748400D01*
D53*
X103469031Y-102169031D02*
X103275000Y-101975000D01*
D54*
X110562500Y-75099999D02*
X112162500Y-75099999D01*
X106500000Y-106790000D02*
X106500000Y-105859000D01*
D53*
X119840000Y-58570000D02*
X119840000Y-57610000D01*
X115260000Y-111160000D02*
X114675000Y-110575000D01*
D55*
X111674031Y-98930000D02*
X111674031Y-99674031D01*
D53*
X108764031Y-95110000D02*
X108764031Y-95985969D01*
D55*
X120340000Y-64020000D02*
X119370000Y-64020000D01*
D53*
X108240000Y-92750000D02*
X108235000Y-92755000D01*
D54*
X109739000Y-105217000D02*
X108533000Y-105217000D01*
X127615000Y-108820000D02*
X127590000Y-108795000D01*
D53*
X112174031Y-98930000D02*
X112995000Y-98930000D01*
D55*
X119370000Y-64020000D02*
X119350000Y-64000000D01*
D53*
X137770000Y-99962305D02*
X138047376Y-100239681D01*
D54*
X116460000Y-109310400D02*
X116486800Y-109283600D01*
X124902600Y-108807600D02*
X123527600Y-108807600D01*
D53*
X126537500Y-84462499D02*
X126537500Y-85303119D01*
X135240000Y-97215000D02*
X135250000Y-97225000D01*
X122037500Y-76137499D02*
X122037500Y-77499999D01*
X119284380Y-81049999D02*
X119054380Y-80819999D01*
D54*
X113512600Y-105232200D02*
X114417800Y-105232200D01*
D53*
X119054380Y-80819999D02*
X118287500Y-80819999D01*
X139140000Y-103040000D02*
X140210000Y-103040000D01*
X114625600Y-110575000D02*
X114060600Y-111140000D01*
D54*
X147770000Y-66240000D02*
X147730000Y-66200000D01*
D53*
X103286531Y-100090000D02*
X103286531Y-101038469D01*
X122287500Y-75024999D02*
X122287500Y-74299999D01*
X108744031Y-97255969D02*
X108750000Y-97250000D01*
X114975000Y-114950000D02*
X114050000Y-114950000D01*
D54*
X98930000Y-90750000D02*
X98900000Y-90720000D01*
D53*
X114675000Y-110575000D02*
X114625600Y-110575000D01*
D54*
%TO.N,+5V*%
X101696800Y-92173200D02*
X101696800Y-90783200D01*
X139490000Y-66952500D02*
X139490000Y-71910000D01*
X134900000Y-72100000D02*
X132020000Y-69220000D01*
X139210000Y-81100000D02*
X140180000Y-82070000D01*
X140180000Y-82070000D02*
X140180000Y-82080000D01*
X140240000Y-82140000D02*
X141785000Y-82140000D01*
X139300000Y-72100000D02*
X138800000Y-72100000D01*
X125700000Y-94660000D02*
X125690000Y-94670000D01*
X101773600Y-92250000D02*
X101696800Y-92173200D01*
X132020000Y-64930000D02*
X132365200Y-64584800D01*
X138800000Y-72100000D02*
X134900000Y-72100000D01*
X140180000Y-82080000D02*
X140240000Y-82140000D01*
X132365200Y-64584800D02*
X134527300Y-64584800D01*
X132020000Y-69220000D02*
X132020000Y-64930000D01*
X103140000Y-90750000D02*
X101730000Y-90750000D01*
X138420000Y-72480000D02*
X138420000Y-76840000D01*
X139037500Y-66500000D02*
X139490000Y-66952500D01*
X125700000Y-93340000D02*
X125700000Y-94660000D01*
X139490000Y-71910000D02*
X139300000Y-72100000D01*
X101696800Y-90783200D02*
X101730000Y-90750000D01*
X138800000Y-72100000D02*
X138420000Y-72480000D01*
%TO.N,+3.3VA*%
X105580000Y-95010000D02*
X105580000Y-94420000D01*
X115970000Y-100800000D02*
X115100000Y-101670000D01*
X130270000Y-111180000D02*
X127675200Y-111180000D01*
X105880000Y-94160000D02*
X107344031Y-94160000D01*
D53*
X128811800Y-107857600D02*
X128814200Y-107860000D01*
D55*
X110174031Y-94530000D02*
X109794031Y-94150000D01*
D54*
X113507400Y-104267000D02*
X113512600Y-104272200D01*
X119700000Y-103030000D02*
X119700000Y-101570000D01*
D53*
X128814200Y-107860000D02*
X127180000Y-107860000D01*
D54*
X115550000Y-104470000D02*
X115352200Y-104272200D01*
X128790000Y-106250000D02*
X129960000Y-106250000D01*
X116060000Y-100710000D02*
X115970000Y-100800000D01*
X128790000Y-106250000D02*
X128814200Y-106274200D01*
X115120000Y-104202200D02*
X115050000Y-104272200D01*
X112014000Y-104267000D02*
X113507400Y-104267000D01*
X121676800Y-103657800D02*
X120327800Y-103657800D01*
X115120000Y-103306185D02*
X115120000Y-104202200D01*
X115050000Y-104272200D02*
X113512600Y-104272200D01*
X115550000Y-105450000D02*
X115550000Y-104470000D01*
X120327800Y-103657800D02*
X119970000Y-103300000D01*
X121676800Y-103657800D02*
X121676800Y-105636800D01*
X130760000Y-110690000D02*
X130270000Y-111180000D01*
D55*
X109794031Y-94150000D02*
X108764031Y-94150000D01*
D54*
X119700000Y-101570000D02*
X119700000Y-101230000D01*
X119180000Y-100710000D02*
X116060000Y-100710000D01*
X133618400Y-108760000D02*
X130720000Y-108760000D01*
X105860000Y-94140000D02*
X105880000Y-94160000D01*
X128814200Y-106274200D02*
X128814200Y-107860000D01*
X122290000Y-106250000D02*
X128790000Y-106250000D01*
X119970000Y-103300000D02*
X119700000Y-103030000D01*
X130710000Y-108750000D02*
X130710000Y-110640000D01*
X115536800Y-105463200D02*
X115550000Y-105450000D01*
X115352200Y-104272200D02*
X115050000Y-104272200D01*
X115536800Y-107008600D02*
X115536800Y-105463200D01*
X105580000Y-94420000D02*
X105860000Y-94140000D01*
D53*
X127180000Y-107860000D02*
X127177600Y-107857600D01*
D54*
X119700000Y-101230000D02*
X119180000Y-100710000D01*
X133728400Y-108650000D02*
X133618400Y-108760000D01*
X130710000Y-107000000D02*
X130710000Y-108750000D01*
X129960000Y-106250000D02*
X130710000Y-107000000D01*
X130710000Y-110640000D02*
X130760000Y-110690000D01*
X135282500Y-108650000D02*
X133728400Y-108650000D01*
X115100000Y-101670000D02*
X115100000Y-101890000D01*
X130720000Y-108760000D02*
X130710000Y-108750000D01*
X121676800Y-105636800D02*
X122290000Y-106250000D01*
D55*
%TO.N,/Power/BUCK_FB*%
X136762500Y-66500000D02*
X136762500Y-68102200D01*
X135721100Y-68161200D02*
X136801100Y-68161200D01*
X136811300Y-69246200D02*
X136869300Y-69304200D01*
X136811300Y-68151000D02*
X136811300Y-69246200D01*
X136762500Y-68102200D02*
X136811300Y-68151000D01*
X136801100Y-68161200D02*
X136811300Y-68151000D01*
%TO.N,/Power/VREF*%
X124877200Y-111180000D02*
X124877200Y-111567200D01*
X124877200Y-111180000D02*
X126655200Y-111180000D01*
X124877200Y-111567200D02*
X125100000Y-111790000D01*
X124902600Y-111154600D02*
X124877200Y-111180000D01*
X124902600Y-109757600D02*
X124902600Y-111154600D01*
X125100000Y-111790000D02*
X125100000Y-112860000D01*
%TO.N,+3V3*%
X110060000Y-90070000D02*
X110060000Y-91355000D01*
X134740000Y-76850000D02*
X134740000Y-77720000D01*
X137831300Y-68151000D02*
X137831300Y-69302200D01*
X138685800Y-69304200D02*
X138690000Y-69300000D01*
X143330000Y-64710000D02*
X141383500Y-64710000D01*
D54*
X136840000Y-90700000D02*
X136840000Y-91450000D01*
D55*
X134740000Y-77720000D02*
X134800000Y-77780000D01*
D54*
X119780000Y-56530000D02*
X119840000Y-56470000D01*
D55*
X120125000Y-77549999D02*
X118307500Y-77549999D01*
D54*
X135400000Y-90236185D02*
X136376185Y-90236185D01*
X115260000Y-83507499D02*
X115287500Y-83479999D01*
X132099999Y-86299999D02*
X132930000Y-87130000D01*
X130389999Y-86299999D02*
X127267500Y-86299999D01*
D55*
X130330000Y-76930000D02*
X130320000Y-76940000D01*
X121537500Y-76944026D02*
X121537500Y-76137499D01*
X144550000Y-64700000D02*
X148120000Y-64700000D01*
D54*
X117320000Y-56530000D02*
X119780000Y-56530000D01*
D55*
X137270000Y-94570000D02*
X137270000Y-93425000D01*
D54*
X128220001Y-86299999D02*
X128220000Y-86300000D01*
D55*
X121600000Y-56470000D02*
X119840000Y-56470000D01*
D54*
X99740000Y-72580000D02*
X99740000Y-70773400D01*
X130390000Y-84390000D02*
X130389999Y-86299999D01*
D53*
X127037500Y-84462499D02*
X127037500Y-85324999D01*
D54*
X119380000Y-86280000D02*
X120490000Y-86280000D01*
D55*
X110069031Y-92759031D02*
X110674031Y-93364031D01*
D53*
X121327500Y-75014999D02*
X121327500Y-74299999D01*
D55*
X110674031Y-93364031D02*
X110674031Y-94530000D01*
X130330000Y-75860000D02*
X130330000Y-76930000D01*
D54*
X120490000Y-86280000D02*
X120520000Y-86310000D01*
D55*
X141383500Y-64710000D02*
X141258300Y-64584800D01*
D54*
X136376185Y-90236185D02*
X136840000Y-90700000D01*
D53*
X121537500Y-76137499D02*
X121537500Y-75224999D01*
D55*
X98936185Y-70820000D02*
X99643400Y-70820000D01*
D54*
X99740000Y-70773400D02*
X99715000Y-70748400D01*
D55*
X118307500Y-77549999D02*
X118287500Y-77529999D01*
D53*
X127037500Y-85324999D02*
X127267500Y-85554999D01*
D55*
X129059999Y-76940000D02*
X130320000Y-76940000D01*
X137831300Y-69302200D02*
X137829300Y-69304200D01*
X110069031Y-92750000D02*
X110069031Y-92759031D01*
X120931527Y-77549999D02*
X121537500Y-76944026D01*
X137829300Y-69304200D02*
X138685800Y-69304200D01*
X121310000Y-73180000D02*
X121310000Y-74282499D01*
X120125000Y-77549999D02*
X120931527Y-77549999D01*
D54*
X115260000Y-85270000D02*
X115260000Y-83507499D01*
D53*
X127267500Y-85554999D02*
X127267500Y-86299999D01*
X121537500Y-75224999D02*
X121327500Y-75014999D01*
D55*
X121310000Y-74282499D02*
X121327500Y-74299999D01*
X137270000Y-93425000D02*
X136825000Y-92980000D01*
X128450000Y-77549999D02*
X129059999Y-76940000D01*
X110060000Y-91355000D02*
X110055000Y-91360000D01*
D54*
X130389999Y-86299999D02*
X132099999Y-86299999D01*
D55*
X99643400Y-70820000D02*
X99715000Y-70748400D01*
D53*
%TO.N,VDDA*%
X120125000Y-81549999D02*
X119284380Y-81549999D01*
X119054380Y-81779999D02*
X118287500Y-81779999D01*
X119284380Y-81549999D02*
X119054380Y-81779999D01*
D55*
%TO.N,/MCU/HSE_IN*%
X116012500Y-78849999D02*
X115462500Y-78299999D01*
X119062500Y-79549999D02*
X118362500Y-78849999D01*
X115587500Y-77449999D02*
X115587500Y-75374999D01*
X115037500Y-78299999D02*
X115037500Y-77999999D01*
X115587500Y-75374999D02*
X115312500Y-75099999D01*
X118362500Y-78849999D02*
X116012500Y-78849999D01*
X115037500Y-77999999D02*
X115587500Y-77449999D01*
X115312500Y-75099999D02*
X114362500Y-75099999D01*
X120125000Y-79549999D02*
X119062500Y-79549999D01*
X115462500Y-78299999D02*
X115037500Y-78299999D01*
%TO.N,/MCU/XTAL_IN*%
X111777500Y-79424999D02*
X111777500Y-78349999D01*
X111827500Y-78299999D02*
X111827500Y-77984999D01*
X112162500Y-77649999D02*
X112162500Y-76799999D01*
X111777500Y-78349999D02*
X111827500Y-78299999D01*
X111827500Y-77984999D02*
X112162500Y-77649999D01*
X111767500Y-78359999D02*
X111827500Y-78299999D01*
%TO.N,/MCU/NRST*%
X108080000Y-61350000D02*
X108100000Y-61370000D01*
X113380000Y-73210000D02*
X108100000Y-67930000D01*
X121870000Y-79640931D02*
X120960932Y-80549999D01*
X106940000Y-61350000D02*
X108080000Y-61350000D01*
X108100000Y-67930000D02*
X108100000Y-61370000D01*
X121870000Y-78500000D02*
X121870000Y-79640931D01*
X106960000Y-61370000D02*
X106940000Y-61350000D01*
X119500000Y-75990000D02*
X119500000Y-74400000D01*
X118310000Y-73210000D02*
X113380000Y-73210000D01*
X120960932Y-80549999D02*
X120125000Y-80549999D01*
X119500000Y-74400000D02*
X118310000Y-73210000D01*
D53*
%TO.N,/ADC/IN_RF*%
X112850600Y-112170000D02*
X116358000Y-112170000D01*
X116358000Y-112170000D02*
X116422800Y-112105200D01*
%TO.N,/ADC/IN_BUF*%
X117382800Y-109337600D02*
X117436800Y-109283600D01*
X117382800Y-112105200D02*
X117382800Y-109337600D01*
D55*
%TO.N,Net-(C303-Pad1)*%
X111970000Y-108810000D02*
X109872800Y-108810000D01*
X109872800Y-108810000D02*
X109778800Y-108716000D01*
%TO.N,/ADC/IN_AA_BUF_IN*%
X109738800Y-106166800D02*
X109739000Y-106167000D01*
X107655000Y-106595000D02*
X108083000Y-106167000D01*
X106500000Y-107750000D02*
X107655000Y-107750000D01*
X107655000Y-107750000D02*
X107655000Y-106595000D01*
X108083000Y-106167000D02*
X109739000Y-106167000D01*
%TO.N,Net-(C305-Pad2)*%
X110893200Y-107750000D02*
X110896400Y-107746800D01*
X108675000Y-107750000D02*
X110893200Y-107750000D01*
%TO.N,/ADC/ADC_IN+*%
X109340000Y-101580000D02*
X110400000Y-101580000D01*
X110680661Y-100750000D02*
X110674031Y-100743370D01*
X110674031Y-100743370D02*
X110674031Y-98930000D01*
X110440000Y-100990661D02*
X110680661Y-100750000D01*
X110400000Y-101580000D02*
X110440000Y-101620000D01*
X110440000Y-101620000D02*
X110440000Y-100990661D01*
%TO.N,/ADC/ADC_IN-*%
X112492000Y-101620000D02*
X112522000Y-101590000D01*
X111174031Y-101394031D02*
X111174031Y-98930000D01*
X111400000Y-101620000D02*
X111174031Y-101394031D01*
X111400000Y-101620000D02*
X112492000Y-101620000D01*
D54*
%TO.N,/ADC/ADC_VREF_VIN*%
X104200000Y-105060000D02*
X105019031Y-104240969D01*
X105019031Y-104240969D02*
X105019031Y-102910000D01*
X99580000Y-96510000D02*
X99580000Y-104130000D01*
X101696800Y-94393200D02*
X99580000Y-96510000D01*
X100510000Y-105060000D02*
X104200000Y-105060000D01*
X99580000Y-104130000D02*
X100510000Y-105060000D01*
X101696800Y-93193200D02*
X101696800Y-94393200D01*
D55*
%TO.N,/ADC/ADC_VREF*%
X105191531Y-99110000D02*
X105161531Y-99140000D01*
X108914031Y-98930000D02*
X108744031Y-99100000D01*
X110174031Y-98930000D02*
X108914031Y-98930000D01*
X107344031Y-99110000D02*
X105191531Y-99110000D01*
%TO.N,/DAC/DAC_VREF*%
X135240000Y-94500000D02*
X136700000Y-94500000D01*
X136700000Y-94500000D02*
X136770000Y-94570000D01*
%TO.N,Net-(C403-Pad1)*%
X138170000Y-103030000D02*
X138180000Y-103040000D01*
X137000000Y-103040000D02*
X137010000Y-103030000D01*
X137000000Y-104160000D02*
X137000000Y-103040000D01*
X137010000Y-103030000D02*
X138170000Y-103030000D01*
%TO.N,/DAC/OUT_AA_BUF_IN*%
X139120000Y-105290000D02*
X139210000Y-105200000D01*
X137557500Y-106750000D02*
X139070000Y-106750000D01*
X139070000Y-106750000D02*
X139120000Y-106700000D01*
X139120000Y-106700000D02*
X139120000Y-105290000D01*
%TO.N,Net-(C405-Pad1)*%
X135850000Y-105190000D02*
X138180000Y-105190000D01*
X138180000Y-105190000D02*
X138190000Y-105200000D01*
%TO.N,/DAC/OUT_AA_BUF_OUT*%
X136410000Y-108400000D02*
X136660000Y-108650000D01*
X136410000Y-107130000D02*
X136410000Y-108400000D01*
X135282500Y-106750000D02*
X136030000Y-106750000D01*
X136030000Y-106750000D02*
X136410000Y-107130000D01*
X135282500Y-106750000D02*
X134390000Y-106750000D01*
X134060000Y-105470000D02*
X134340000Y-105190000D01*
X134390000Y-106750000D02*
X134060000Y-106420000D01*
X137707500Y-108800000D02*
X137557500Y-108650000D01*
X134340000Y-105190000D02*
X134890000Y-105190000D01*
X136660000Y-108650000D02*
X137557500Y-108650000D01*
X134060000Y-106420000D02*
X134060000Y-105470000D01*
X139110000Y-108800000D02*
X137707500Y-108800000D01*
%TO.N,/Power/LED_PWR_K*%
X149690000Y-64705000D02*
X149695000Y-64700000D01*
X149690000Y-66240000D02*
X149690000Y-64705000D01*
%TO.N,/MCU/LED_B_K*%
X100970000Y-74890000D02*
X101630000Y-74890000D01*
X99740000Y-75580000D02*
X100280000Y-75580000D01*
X100280000Y-75580000D02*
X100970000Y-74890000D01*
%TO.N,/MCU/LED_G_K*%
X98240000Y-76650000D02*
X98240000Y-75580000D01*
X98810000Y-77220000D02*
X98240000Y-76650000D01*
X101630000Y-76550000D02*
X100960000Y-77220000D01*
X100960000Y-77220000D02*
X98810000Y-77220000D01*
X101630000Y-76440000D02*
X101630000Y-76550000D01*
%TO.N,/MCU/LED_R_K*%
X102380000Y-69680000D02*
X103310000Y-70610000D01*
X103310000Y-71980000D02*
X103120000Y-72170000D01*
X101660000Y-72450000D02*
X101660000Y-73380000D01*
X101940000Y-72170000D02*
X101660000Y-72450000D01*
X98240000Y-72580000D02*
X98240000Y-70070000D01*
X103120000Y-72170000D02*
X101940000Y-72170000D01*
X103310000Y-70610000D02*
X103310000Y-71980000D01*
X98630000Y-69680000D02*
X102380000Y-69680000D01*
X98240000Y-70070000D02*
X98630000Y-69680000D01*
D53*
%TO.N,/MCU/CONN_SWDIO*%
X118240000Y-65760000D02*
X118240000Y-64020000D01*
X117320000Y-62440000D02*
X117320000Y-60430000D01*
X118240000Y-63360000D02*
X117320000Y-62440000D01*
X118240000Y-64020000D02*
X118240000Y-63360000D01*
%TO.N,/MCU/CONN_SWCLK*%
X116820000Y-64030000D02*
X116820000Y-63280000D01*
X116820000Y-63280000D02*
X116050000Y-62510000D01*
X116850000Y-64060000D02*
X116820000Y-64030000D01*
X116850000Y-65790000D02*
X116850000Y-64060000D01*
X116050000Y-62510000D02*
X116050000Y-60430000D01*
D55*
%TO.N,/MCU/CONN_SWO*%
X113430000Y-64030000D02*
X113430000Y-62810000D01*
X113850000Y-62390000D02*
X114340000Y-62390000D01*
X114780000Y-61950000D02*
X114780000Y-60430000D01*
X113430000Y-64030000D02*
X113430000Y-65740000D01*
X113410000Y-64050000D02*
X113430000Y-64030000D01*
X113430000Y-65740000D02*
X113410000Y-65760000D01*
X114340000Y-62390000D02*
X114780000Y-61950000D01*
X113430000Y-62810000D02*
X113850000Y-62390000D01*
%TO.N,/MCU/CONN_NRST*%
X109790000Y-60390000D02*
X112200000Y-60390000D01*
X108140000Y-60390000D02*
X108100000Y-60350000D01*
X112200000Y-60390000D02*
X112240000Y-60430000D01*
X109830000Y-60430000D02*
X109790000Y-60390000D01*
X109750000Y-60350000D02*
X109790000Y-60390000D01*
X108100000Y-60350000D02*
X109750000Y-60350000D01*
D53*
%TO.N,/ADC/IN*%
X112875000Y-119715000D02*
X113080000Y-119920000D01*
X112875000Y-114950000D02*
X112875000Y-119715000D01*
X112875000Y-113214400D02*
X112850600Y-113190000D01*
X112875000Y-114950000D02*
X112875000Y-113214400D01*
D55*
%TO.N,/DAC/OUT*%
X139120000Y-116540000D02*
X139120000Y-114320000D01*
X138023600Y-119920000D02*
X138023600Y-117636400D01*
X138023600Y-117636400D02*
X139120000Y-116540000D01*
X139120000Y-114320000D02*
X139120000Y-109830000D01*
X139120000Y-109830000D02*
X139110000Y-109820000D01*
%TO.N,/MCU/USB_CMD_D-*%
X142537500Y-80250000D02*
X141525000Y-80250000D01*
X141150000Y-79875000D02*
X139775000Y-79875000D01*
X141525000Y-80250000D02*
X141150000Y-79875000D01*
%TO.N,/MCU/USB_CMC_D+*%
X142537500Y-78350000D02*
X141525000Y-78350000D01*
X141100000Y-78775000D02*
X139775000Y-78775000D01*
X141525000Y-78350000D02*
X141100000Y-78775000D01*
D56*
%TO.N,/MCU/USB_D-*%
X128499999Y-79500000D02*
X128450000Y-79549999D01*
X128450000Y-79549999D02*
X135899999Y-79550000D01*
X136224999Y-79875000D02*
X137125000Y-79875000D01*
X135899999Y-79550000D02*
X136224999Y-79875000D01*
%TO.N,/MCU/USB_D+*%
X128450000Y-79049999D02*
X128500001Y-79100000D01*
X135899999Y-79100000D02*
X136224999Y-78775000D01*
X128500001Y-79100000D02*
X135899999Y-79100000D01*
X136224999Y-78775000D02*
X137125000Y-78775000D01*
X128450000Y-79049999D02*
X128499999Y-79099998D01*
X128499999Y-79099998D02*
X128500001Y-79100000D01*
D55*
%TO.N,/MCU/USB_CONN_CC1*%
X148765000Y-81075000D02*
X151495000Y-81075000D01*
X151495000Y-81075000D02*
X151980000Y-81560000D01*
X151980000Y-81560000D02*
X151980000Y-86180000D01*
D57*
%TO.N,/MCU/USB_CONN_D+*%
X146118751Y-78375000D02*
X146813041Y-79069290D01*
X149800000Y-79075000D02*
X148765000Y-79075000D01*
X148765000Y-79075000D02*
X148759290Y-79069290D01*
X149875000Y-80075000D02*
X150075000Y-79875000D01*
X150075000Y-79875000D02*
X150075000Y-79350000D01*
X150075000Y-79350000D02*
X149800000Y-79075000D01*
X146813041Y-79069290D02*
X148759290Y-79069290D01*
X145125000Y-78375000D02*
X146118751Y-78375000D01*
X148765000Y-80075000D02*
X149875000Y-80075000D01*
%TO.N,/MCU/USB_CONN_D-*%
X146813041Y-79580710D02*
X147325000Y-79580710D01*
X146118751Y-80275000D02*
X146813041Y-79580710D01*
X147450000Y-80575000D02*
X147350000Y-80475000D01*
X147325000Y-79580710D02*
X148759290Y-79580710D01*
X147350000Y-80475000D02*
X147350000Y-79605710D01*
X145125000Y-80275000D02*
X146118751Y-80275000D01*
X148765000Y-79575000D02*
X148759290Y-79580710D01*
X147350000Y-79605710D02*
X147325000Y-79580710D01*
X148765000Y-80575000D02*
X147450000Y-80575000D01*
D55*
%TO.N,/MCU/USB_CONN_CC2*%
X151930000Y-77660000D02*
X151930000Y-73550000D01*
X151515000Y-78075000D02*
X151930000Y-77660000D01*
X148765000Y-78075000D02*
X151515000Y-78075000D01*
%TO.N,/MCU/BOOT0*%
X123537500Y-74582500D02*
X123537500Y-76137499D01*
X123560000Y-74560000D02*
X123537500Y-74582500D01*
%TO.N,/MCU/HSE_OUT*%
X120125000Y-80049999D02*
X118767500Y-80049999D01*
X118120815Y-79403314D02*
X112934185Y-79403314D01*
X112934185Y-79403314D02*
X112787500Y-79549999D01*
X118767500Y-80049999D02*
X118120815Y-79403314D01*
%TO.N,SPI2_NSS*%
X136730000Y-85390000D02*
X134710000Y-83370000D01*
X139420000Y-91360000D02*
X139420000Y-85876185D01*
X139420000Y-91470000D02*
X139420000Y-91360000D01*
X139130000Y-91760000D02*
X139420000Y-91470000D01*
X128450000Y-83049999D02*
X129199999Y-83049999D01*
X129520000Y-83370000D02*
X130390000Y-83370000D01*
X134710000Y-83370000D02*
X130390000Y-83370000D01*
X138770000Y-92120000D02*
X139130000Y-91760000D01*
X138770000Y-94570000D02*
X138770000Y-92120000D01*
X129199999Y-83049999D02*
X129520000Y-83370000D01*
X139420000Y-85876185D02*
X139393815Y-85850000D01*
%TO.N,SPI1_NSS*%
X113770000Y-93380000D02*
X114230000Y-93380000D01*
X118640000Y-87940000D02*
X120730000Y-87940000D01*
X116110000Y-91500000D02*
X116110000Y-90140000D01*
X122037500Y-85812500D02*
X121540000Y-86310000D01*
X112174031Y-94530000D02*
X112174031Y-93845969D01*
X122037500Y-84462499D02*
X122037500Y-85812500D01*
X114230000Y-93380000D02*
X116110000Y-91500000D01*
X112500000Y-93520000D02*
X112640000Y-93380000D01*
X112174031Y-93845969D02*
X112500000Y-93520000D01*
X121540000Y-87130000D02*
X121540000Y-86310000D01*
X120730000Y-87940000D02*
X121540000Y-87130000D01*
X116110000Y-90140000D02*
X116590000Y-89660000D01*
X112640000Y-93380000D02*
X113770000Y-93380000D01*
X116590000Y-89660000D02*
X116870000Y-89660000D01*
%TO.N,/MCU/TIM4_CH1*%
X107530000Y-76210000D02*
X107660000Y-76340000D01*
X123037500Y-78002500D02*
X123037500Y-76137499D01*
X108160000Y-82000000D02*
X112330000Y-82000000D01*
X104700000Y-73380000D02*
X107530000Y-76210000D01*
X107660000Y-76340000D02*
X107660000Y-81500000D01*
X102680000Y-73380000D02*
X104700000Y-73380000D01*
X107660000Y-81500000D02*
X108160000Y-82000000D01*
X122810000Y-78230000D02*
X123037500Y-78002500D01*
%TO.N,/MCU/TIM4_CH2*%
X124820000Y-78110000D02*
X124537500Y-77827500D01*
X104800000Y-84150000D02*
X105020000Y-84370000D01*
X125470000Y-78110000D02*
X124820000Y-78110000D01*
X125990000Y-78630000D02*
X125470000Y-78110000D01*
X105020000Y-84370000D02*
X112290000Y-84370000D01*
X102770000Y-76440000D02*
X104000000Y-77670000D01*
X104000000Y-77670000D02*
X104000000Y-83350000D01*
X124537500Y-77827500D02*
X124537500Y-76137499D01*
X104000000Y-83350000D02*
X104800000Y-84150000D01*
X102650000Y-76440000D02*
X102770000Y-76440000D01*
%TO.N,/MCU/TIM4_CH3*%
X105970000Y-82380000D02*
X106670000Y-83080000D01*
X106670000Y-83080000D02*
X112230000Y-83080000D01*
X104120000Y-74890000D02*
X105970000Y-76740000D01*
X124060000Y-79020000D02*
X124037500Y-78997500D01*
X124037500Y-78997500D02*
X124037500Y-76137499D01*
X102650000Y-74890000D02*
X104120000Y-74890000D01*
X112230000Y-83080000D02*
X112290000Y-83020000D01*
X105970000Y-76740000D02*
X105970000Y-82380000D01*
D53*
%TO.N,/MCU/SWDIO*%
X131160001Y-78549999D02*
X131690000Y-78020000D01*
X131690000Y-70960000D02*
X126490000Y-65760000D01*
X131690000Y-78020000D02*
X131690000Y-70960000D01*
X128450000Y-78549999D02*
X131160001Y-78549999D01*
X126490000Y-65760000D02*
X119260000Y-65760000D01*
%TO.N,/MCU/SWCLK*%
X124910000Y-68790000D02*
X116940000Y-68790000D01*
X116940000Y-68790000D02*
X115830000Y-67680000D01*
X127037500Y-70917500D02*
X124910000Y-68790000D01*
X127037500Y-76137499D02*
X127037500Y-70917500D01*
X115830000Y-67680000D02*
X115830000Y-65790000D01*
%TO.N,/MCU/SWO*%
X115070000Y-71600000D02*
X112390000Y-68920000D01*
X126037500Y-73197500D02*
X124440000Y-71600000D01*
X126037500Y-76137499D02*
X126037500Y-73197500D01*
X112390000Y-68920000D02*
X112390000Y-65760000D01*
X124440000Y-71600000D02*
X115070000Y-71600000D01*
D55*
%TO.N,VCOM*%
X120280000Y-108310000D02*
X120280000Y-106220000D01*
X120280000Y-109840000D02*
X120280000Y-108310000D01*
X126457600Y-109757600D02*
X126250000Y-109550000D01*
X120280000Y-106220000D02*
X118630000Y-104570000D01*
X118440000Y-110930000D02*
X119190000Y-110930000D01*
X118630000Y-104570000D02*
X118630000Y-102830000D01*
X126250000Y-108542501D02*
X125565099Y-107857600D01*
X120280000Y-108310000D02*
X120732400Y-107857600D01*
X118630000Y-102830000D02*
X118410000Y-102610000D01*
X125565099Y-107857600D02*
X124902600Y-107857600D01*
X119190000Y-110930000D02*
X120280000Y-109840000D01*
X120732400Y-107857600D02*
X124902600Y-107857600D01*
X126250000Y-109550000D02*
X126250000Y-108542501D01*
X118410000Y-102610000D02*
X112522000Y-102610000D01*
X127177600Y-109757600D02*
X126457600Y-109757600D01*
%TO.N,/ADC/IN_BUF_OUT*%
X115536800Y-108503200D02*
X115950000Y-108090000D01*
X115950000Y-108090000D02*
X117260000Y-108090000D01*
X115063200Y-108810000D02*
X115536800Y-109283600D01*
X112990000Y-108810000D02*
X115063200Y-108810000D01*
X117436800Y-107913200D02*
X117436800Y-107008600D01*
X115536800Y-109283600D02*
X115536800Y-108503200D01*
X117260000Y-108090000D02*
X117436800Y-107913200D01*
%TO.N,SPI1_SCK*%
X121280000Y-88890000D02*
X115110000Y-88890000D01*
X122537500Y-87632500D02*
X121280000Y-88890000D01*
X115110000Y-88890000D02*
X113980000Y-90020000D01*
X122537500Y-84462499D02*
X122537500Y-87632500D01*
%TO.N,/ADC/ADC_SCLK*%
X111174031Y-93375969D02*
X111174031Y-94530000D01*
X113370000Y-92680000D02*
X111870000Y-92680000D01*
X113980000Y-92070000D02*
X113370000Y-92680000D01*
X111870000Y-92680000D02*
X111174031Y-93375969D01*
X113980000Y-91040000D02*
X113980000Y-92070000D01*
%TO.N,SPI2_SCK*%
X136729999Y-82549999D02*
X138365000Y-84185000D01*
X138365000Y-84185000D02*
X138365000Y-88890000D01*
X128450000Y-82549999D02*
X136729999Y-82549999D01*
%TO.N,/DAC/DAC_SCLK*%
X138270000Y-90005000D02*
X138270000Y-94570000D01*
X138365000Y-89910000D02*
X138270000Y-90005000D01*
%TO.N,/DAC/DAC_OUT_B*%
X137270000Y-98970000D02*
X137270000Y-101295000D01*
X137270000Y-101295000D02*
X137195000Y-101370000D01*
%TO.N,/DAC/DAC_OUT_A*%
X135990000Y-99140000D02*
X135990000Y-103030000D01*
X136770000Y-98970000D02*
X136160000Y-98970000D01*
X136160000Y-98970000D02*
X135990000Y-99140000D01*
%TO.N,SPI1_MISO*%
X116300000Y-95920000D02*
X117440000Y-94780000D01*
X123480000Y-86250000D02*
X123037500Y-85807500D01*
X111674031Y-94530000D02*
X111674031Y-95605000D01*
X111674031Y-94530000D02*
X111677346Y-94533315D01*
X123480000Y-90500000D02*
X123480000Y-86250000D01*
X111674031Y-95605000D02*
X111989031Y-95920000D01*
X123037500Y-85807500D02*
X123037500Y-84462499D01*
X111677346Y-94533315D02*
X111677346Y-94810000D01*
X122070000Y-91910000D02*
X123480000Y-90500000D01*
X117440000Y-94780000D02*
X117440000Y-92970000D01*
X117440000Y-92970000D02*
X118500000Y-91910000D01*
X118500000Y-91910000D02*
X122070000Y-91910000D01*
X111989031Y-95920000D02*
X116300000Y-95920000D01*
%TO.N,DAC_NCLR*%
X138930000Y-98070000D02*
X139600000Y-98070000D01*
X139600000Y-98070000D02*
X139620000Y-98050000D01*
X138770000Y-98230000D02*
X138930000Y-98070000D01*
X126310000Y-89540000D02*
X137190000Y-89540000D01*
X124750000Y-85840000D02*
X124750000Y-87980000D01*
X125037500Y-85552500D02*
X124750000Y-85840000D01*
X125037500Y-84462499D02*
X125037500Y-85552500D01*
X138770000Y-98970000D02*
X138770000Y-98230000D01*
X126260000Y-89490000D02*
X126310000Y-89540000D01*
X124750000Y-87980000D02*
X126260000Y-89490000D01*
%TO.N,DAC_NLDAC*%
X138630000Y-97100000D02*
X138670000Y-97060000D01*
X138270000Y-97460000D02*
X138630000Y-97100000D01*
X126260000Y-87840000D02*
X137200000Y-87840000D01*
X125537500Y-84462499D02*
X125537500Y-87117500D01*
X138670000Y-97060000D02*
X139650000Y-97060000D01*
X125537500Y-87117500D02*
X126260000Y-87840000D01*
X137200000Y-87840000D02*
X137210000Y-87850000D01*
X138270000Y-98970000D02*
X138270000Y-97460000D01*
%TO.N,SPI2_MOSI*%
X137770000Y-94570000D02*
X137770000Y-95638370D01*
X138361630Y-96230000D02*
X139660000Y-96230000D01*
X138439999Y-81549999D02*
X128450000Y-81549999D01*
X137770000Y-95638370D02*
X138361630Y-96230000D01*
X139660000Y-96230000D02*
X140090000Y-95800000D01*
X140090000Y-95800000D02*
X140090000Y-83200000D01*
X140090000Y-83200000D02*
X138439999Y-81549999D01*
%TO.N,/ADC/IN_AA_BUF_OUT*%
X109340000Y-103340000D02*
X109340000Y-102600000D01*
X110998000Y-104648000D02*
X110617000Y-104267000D01*
X110998000Y-105918000D02*
X110998000Y-104648000D01*
X110617000Y-104267000D02*
X109739000Y-104267000D01*
X111856400Y-107746800D02*
X111856400Y-106324600D01*
X111856400Y-106324600D02*
X112014000Y-106167000D01*
X109739000Y-104267000D02*
X109739000Y-103739000D01*
X109739000Y-103739000D02*
X109340000Y-103340000D01*
X111247000Y-106167000D02*
X110998000Y-105918000D01*
X112014000Y-106167000D02*
X111247000Y-106167000D01*
%TD*%
%TA.AperFunction,Conductor*%
%TO.N,GND*%
G36*
X139822596Y-65260002D02*
G01*
X139847464Y-65280977D01*
X140130000Y-65590000D01*
X141884926Y-65599804D01*
X141949924Y-65618288D01*
X142217412Y-65781752D01*
X142265109Y-65834341D01*
X142277645Y-65893310D01*
X142213957Y-67876766D01*
X142191779Y-67944209D01*
X142136659Y-67988956D01*
X142086710Y-67998715D01*
X140376481Y-67980900D01*
X140308572Y-67960190D01*
X140262640Y-67906053D01*
X140259751Y-67898976D01*
X140048458Y-67333012D01*
X140040500Y-67288943D01*
X140040500Y-66961913D01*
X140042763Y-66895674D01*
X140032292Y-66852711D01*
X140031089Y-66846385D01*
X140025070Y-66802580D01*
X140020430Y-66791899D01*
X140010000Y-66741703D01*
X140010000Y-65990000D01*
X140009999Y-65989999D01*
X139860407Y-65989125D01*
X139792404Y-65968725D01*
X139786323Y-65964506D01*
X139762886Y-65947208D01*
X139762881Y-65947206D01*
X139634704Y-65902355D01*
X139634700Y-65902354D01*
X139604266Y-65899500D01*
X138470734Y-65899500D01*
X138470733Y-65899500D01*
X138440299Y-65902354D01*
X138440295Y-65902355D01*
X138303713Y-65950147D01*
X138232808Y-65953766D01*
X138217858Y-65949196D01*
X138140001Y-65920000D01*
X138140000Y-65920000D01*
X137431537Y-65920000D01*
X137389921Y-65912929D01*
X137359700Y-65902354D01*
X137329266Y-65899500D01*
X136195734Y-65899500D01*
X136195733Y-65899500D01*
X136165299Y-65902354D01*
X136165298Y-65902354D01*
X136135079Y-65912929D01*
X136093463Y-65920000D01*
X135879999Y-65920000D01*
X135649999Y-65990000D01*
X135659451Y-67067444D01*
X135640047Y-67135737D01*
X135610498Y-67168251D01*
X135220000Y-67469999D01*
X135220000Y-67697399D01*
X135201030Y-67762003D01*
X135201131Y-67762057D01*
X135200869Y-67762551D01*
X135199998Y-67765520D01*
X135197008Y-67769857D01*
X135196718Y-67770405D01*
X135153360Y-67894315D01*
X135153359Y-67894320D01*
X135150600Y-67923740D01*
X135150600Y-68398648D01*
X135150601Y-68398663D01*
X135153359Y-68428078D01*
X135165646Y-68463192D01*
X135169264Y-68534097D01*
X135133975Y-68595702D01*
X135070982Y-68628448D01*
X135047305Y-68630806D01*
X133206589Y-68639408D01*
X133138375Y-68619724D01*
X133091632Y-68566286D01*
X133080000Y-68513409D01*
X133080000Y-65616576D01*
X133100002Y-65548455D01*
X133153658Y-65501962D01*
X133206570Y-65490577D01*
X135270000Y-65500000D01*
X135482819Y-65278667D01*
X135544452Y-65243428D01*
X135573644Y-65240000D01*
X139754475Y-65240000D01*
X139822596Y-65260002D01*
G37*
%TD.AperFunction*%
%TD*%
%TA.AperFunction,Conductor*%
%TO.N,GND*%
G36*
X134968553Y-90725002D02*
G01*
X134983983Y-90736686D01*
X135027760Y-90775468D01*
X135167635Y-90848881D01*
X135167636Y-90848881D01*
X135167638Y-90848882D01*
X135244325Y-90867783D01*
X135321015Y-90886685D01*
X135321017Y-90886685D01*
X135478983Y-90886685D01*
X135478985Y-90886685D01*
X135632365Y-90848881D01*
X135700447Y-90813148D01*
X135770057Y-90799202D01*
X135836159Y-90825105D01*
X135877765Y-90882633D01*
X135885000Y-90924716D01*
X135885000Y-92180000D01*
X135972582Y-92243253D01*
X136016093Y-92299351D01*
X136018238Y-92305243D01*
X136019210Y-92308136D01*
X136019217Y-92308153D01*
X136117902Y-92521970D01*
X136129499Y-92574770D01*
X136129500Y-92683739D01*
X136129500Y-92683738D01*
X136133817Y-92734917D01*
X136133817Y-92734916D01*
X136138220Y-92760828D01*
X136140000Y-92781935D01*
X136140000Y-93178062D01*
X136138220Y-93199168D01*
X136133817Y-93225080D01*
X136133817Y-93225081D01*
X136129500Y-93276261D01*
X136129500Y-93304000D01*
X136109498Y-93372121D01*
X136055842Y-93418614D01*
X136003500Y-93430000D01*
X134711000Y-93430000D01*
X134642879Y-93409998D01*
X134596386Y-93356342D01*
X134585000Y-93304000D01*
X134585000Y-90831000D01*
X134605002Y-90762879D01*
X134658658Y-90716386D01*
X134711000Y-90705000D01*
X134900432Y-90705000D01*
X134968553Y-90725002D01*
G37*
%TD.AperFunction*%
%TD*%
%TA.AperFunction,Conductor*%
%TO.N,GND*%
G36*
X109027121Y-90725002D02*
G01*
X109073614Y-90778658D01*
X109085000Y-90831000D01*
X109085000Y-92180000D01*
X109109067Y-92180000D01*
X109177188Y-92200002D01*
X109223681Y-92253658D01*
X109227077Y-92261848D01*
X109244927Y-92309573D01*
X109249060Y-92320623D01*
X109249061Y-92320624D01*
X109290798Y-92396898D01*
X109352831Y-92479608D01*
X109374037Y-92523737D01*
X109378714Y-92541866D01*
X109378602Y-92541498D01*
X109384031Y-92578085D01*
X109384031Y-92955827D01*
X109383756Y-92961712D01*
X109383567Y-92963726D01*
X109384885Y-92999341D01*
X109367416Y-93068154D01*
X109315516Y-93116600D01*
X109258971Y-93130000D01*
X107961000Y-93130000D01*
X107892879Y-93109998D01*
X107846386Y-93056342D01*
X107835000Y-93004000D01*
X107835000Y-90831000D01*
X107855002Y-90762879D01*
X107908658Y-90716386D01*
X107961000Y-90705000D01*
X108959000Y-90705000D01*
X109027121Y-90725002D01*
G37*
%TD.AperFunction*%
%TD*%
%TA.AperFunction,Conductor*%
%TO.N,+3.3VA*%
G36*
X122663867Y-102880032D02*
G01*
X122706271Y-102924906D01*
X123050000Y-103540000D01*
X124353703Y-103540000D01*
X124421824Y-103560002D01*
X124454253Y-103590068D01*
X124457043Y-103593763D01*
X124457044Y-103593764D01*
X124524748Y-103683419D01*
X124620267Y-103742561D01*
X124620268Y-103742561D01*
X124631153Y-103746778D01*
X124630402Y-103748715D01*
X124680437Y-103774156D01*
X124716280Y-103835440D01*
X124720000Y-103865833D01*
X124720000Y-104644311D01*
X124699998Y-104712432D01*
X124646342Y-104758925D01*
X124594312Y-104770311D01*
X120806312Y-104779687D01*
X120738142Y-104759853D01*
X120691516Y-104706313D01*
X120680000Y-104653687D01*
X120680000Y-102995368D01*
X120700002Y-102927247D01*
X120753658Y-102880754D01*
X120805366Y-102869370D01*
X122595649Y-102860373D01*
X122663867Y-102880032D01*
G37*
%TD.AperFunction*%
%TD*%
%TA.AperFunction,Conductor*%
%TO.N,GND*%
G36*
X148081023Y-75129820D02*
G01*
X148281361Y-75257814D01*
X148327997Y-75311346D01*
X148338732Y-75378100D01*
X148328856Y-75465759D01*
X148324435Y-75505000D01*
X148344632Y-75684255D01*
X148344633Y-75684257D01*
X148402929Y-75850858D01*
X148410000Y-75892473D01*
X148410000Y-76120000D01*
X148567857Y-76120000D01*
X148634893Y-76139313D01*
X148780474Y-76230787D01*
X148780475Y-76230787D01*
X148780478Y-76230789D01*
X148950745Y-76290368D01*
X149085046Y-76305500D01*
X149497836Y-76305500D01*
X149565957Y-76325502D01*
X149612450Y-76379158D01*
X149623826Y-76429945D01*
X149626505Y-76646945D01*
X149607346Y-76715307D01*
X149554268Y-76762459D01*
X149500515Y-76774500D01*
X147995140Y-76774500D01*
X147995133Y-76774501D01*
X147970009Y-76777414D01*
X147970005Y-76777416D01*
X147887686Y-76813764D01*
X147836792Y-76824500D01*
X146965215Y-76824500D01*
X146897094Y-76804498D01*
X146876114Y-76787590D01*
X146867399Y-76778874D01*
X146833378Y-76716560D01*
X146830500Y-76689784D01*
X146830500Y-75499397D01*
X146832762Y-75433174D01*
X146822295Y-75390225D01*
X146821090Y-75383885D01*
X146820295Y-75378100D01*
X146815070Y-75340080D01*
X146807988Y-75323778D01*
X146801137Y-75303403D01*
X146796933Y-75286148D01*
X146795384Y-75282219D01*
X146795035Y-75278358D01*
X146794892Y-75277769D01*
X146794980Y-75277747D01*
X146789004Y-75211510D01*
X146821865Y-75148576D01*
X146883534Y-75113399D01*
X146912601Y-75110000D01*
X148013186Y-75110000D01*
X148081023Y-75129820D01*
G37*
%TD.AperFunction*%
%TD*%
%TA.AperFunction,Conductor*%
%TO.N,+5V*%
G36*
X135530643Y-63939152D02*
G01*
X135820000Y-64120000D01*
X137266556Y-64120000D01*
X137334677Y-64140002D01*
X137344210Y-64146774D01*
X137491654Y-64262164D01*
X137532973Y-64319899D01*
X137540000Y-64361390D01*
X137540000Y-64803358D01*
X137519998Y-64871479D01*
X137466342Y-64917972D01*
X137444156Y-64925696D01*
X137430237Y-64929127D01*
X137430005Y-64928188D01*
X137395570Y-64934500D01*
X136785143Y-64934500D01*
X136754990Y-64930839D01*
X136708987Y-64919500D01*
X136708985Y-64919500D01*
X136551015Y-64919500D01*
X136551012Y-64919500D01*
X136505010Y-64930839D01*
X136474857Y-64934500D01*
X135564714Y-64934500D01*
X135546884Y-64935543D01*
X135546876Y-64935543D01*
X135546874Y-64935544D01*
X135546875Y-64935544D01*
X135508822Y-64940013D01*
X135506588Y-64940312D01*
X135498865Y-64941348D01*
X135498857Y-64941350D01*
X135392816Y-64978216D01*
X135331180Y-65013457D01*
X135331178Y-65013459D01*
X135262602Y-65066924D01*
X135204206Y-65127656D01*
X135142572Y-65162896D01*
X135112048Y-65166317D01*
X133692655Y-65151297D01*
X133624749Y-65130575D01*
X133578827Y-65076431D01*
X133568005Y-65027355D01*
X133552082Y-64048047D01*
X133570974Y-63979612D01*
X133623866Y-63932252D01*
X133678065Y-63920000D01*
X135463863Y-63920000D01*
X135530643Y-63939152D01*
G37*
%TD.AperFunction*%
%TD*%
%TA.AperFunction,Conductor*%
%TO.N,GND*%
G36*
X115620669Y-110770002D02*
G01*
X115667162Y-110823658D01*
X115678497Y-110872402D01*
X115694268Y-111424410D01*
X115676219Y-111493074D01*
X115623913Y-111541080D01*
X115553956Y-111553187D01*
X115526707Y-111546938D01*
X115513429Y-111542292D01*
X115513419Y-111542290D01*
X115483668Y-111539500D01*
X115483666Y-111539500D01*
X115037534Y-111539500D01*
X115037531Y-111539500D01*
X115007780Y-111542290D01*
X115007775Y-111542291D01*
X114882442Y-111586147D01*
X114882439Y-111586149D01*
X114863159Y-111600379D01*
X114796472Y-111624737D01*
X114788338Y-111625000D01*
X114442455Y-111625000D01*
X114400839Y-111617929D01*
X114327480Y-111592259D01*
X114312768Y-111590879D01*
X114298057Y-111589500D01*
X114298056Y-111589500D01*
X113823151Y-111589500D01*
X113823136Y-111589501D01*
X113793719Y-111592259D01*
X113793711Y-111592261D01*
X113792606Y-111592648D01*
X113791738Y-111592692D01*
X113786226Y-111593896D01*
X113786026Y-111592983D01*
X113721702Y-111596262D01*
X113660099Y-111560969D01*
X113627357Y-111497973D01*
X113625000Y-111473716D01*
X113625000Y-110876000D01*
X113645002Y-110807879D01*
X113698658Y-110761386D01*
X113751000Y-110750000D01*
X115552548Y-110750000D01*
X115620669Y-110770002D01*
G37*
%TD.AperFunction*%
%TD*%
%TA.AperFunction,Conductor*%
%TO.N,GND*%
G36*
X124232121Y-110770002D02*
G01*
X124278614Y-110823658D01*
X124290000Y-110876000D01*
X124290000Y-111592464D01*
X124269998Y-111660585D01*
X124246521Y-111687681D01*
X123989999Y-111910000D01*
X123980645Y-113715454D01*
X123960291Y-113783470D01*
X123906395Y-113829684D01*
X123855455Y-113840798D01*
X122547217Y-113849184D01*
X122478969Y-113829619D01*
X122432133Y-113776263D01*
X122420410Y-113722781D01*
X122429595Y-110875594D01*
X122449816Y-110807538D01*
X122503622Y-110761218D01*
X122555594Y-110750000D01*
X124164000Y-110750000D01*
X124232121Y-110770002D01*
G37*
%TD.AperFunction*%
%TD*%
%TA.AperFunction,Conductor*%
%TO.N,+3V3*%
G36*
X115454621Y-81575501D02*
G01*
X115501114Y-81629157D01*
X115512500Y-81681499D01*
X115512500Y-82824999D01*
X115667801Y-83069044D01*
X115687500Y-83136689D01*
X115687500Y-83137098D01*
X115680429Y-83178714D01*
X115664838Y-83223268D01*
X115662000Y-83253534D01*
X115662000Y-83706452D01*
X115662001Y-83706470D01*
X115664838Y-83736729D01*
X115672066Y-83757385D01*
X115675684Y-83828289D01*
X115640395Y-83889894D01*
X115577401Y-83922640D01*
X115553136Y-83924999D01*
X114388500Y-83924999D01*
X114320379Y-83904997D01*
X114273886Y-83851341D01*
X114262500Y-83798999D01*
X114262500Y-81681499D01*
X114282502Y-81613378D01*
X114336158Y-81566885D01*
X114388500Y-81555499D01*
X115386500Y-81555499D01*
X115454621Y-81575501D01*
G37*
%TD.AperFunction*%
%TD*%
%TA.AperFunction,Conductor*%
%TO.N,/ADC/ADC_VREF_VIN*%
G36*
X105944688Y-100559318D02*
G01*
X106012696Y-100579690D01*
X106058896Y-100633597D01*
X106070000Y-100685316D01*
X106070000Y-101701206D01*
X106049998Y-101769327D01*
X106037139Y-101786066D01*
X105660000Y-102199999D01*
X105660000Y-103494000D01*
X105639998Y-103562121D01*
X105586342Y-103608614D01*
X105534000Y-103620000D01*
X104356000Y-103620000D01*
X104287879Y-103599998D01*
X104241386Y-103546342D01*
X104230000Y-103494000D01*
X104230000Y-100676686D01*
X104250002Y-100608565D01*
X104303658Y-100562072D01*
X104356682Y-100550688D01*
X105944688Y-100559318D01*
G37*
%TD.AperFunction*%
%TD*%
%TA.AperFunction,Conductor*%
%TO.N,/ADC/ADC_VREF*%
G36*
X108121781Y-98520002D02*
G01*
X108161704Y-98561174D01*
X108275000Y-98750000D01*
X109124000Y-98750000D01*
X109192121Y-98770002D01*
X109238614Y-98823658D01*
X109250000Y-98876000D01*
X109250000Y-99649000D01*
X109229998Y-99717121D01*
X109176342Y-99763614D01*
X109124000Y-99775000D01*
X106776000Y-99775000D01*
X106707879Y-99754998D01*
X106661386Y-99701342D01*
X106650000Y-99649000D01*
X106650000Y-98626000D01*
X106670002Y-98557879D01*
X106723658Y-98511386D01*
X106776000Y-98500000D01*
X108053660Y-98500000D01*
X108121781Y-98520002D01*
G37*
%TD.AperFunction*%
%TD*%
%TA.AperFunction,Conductor*%
%TO.N,GND*%
G36*
X147157461Y-82748355D02*
G01*
X147165830Y-82754183D01*
X147172658Y-82759361D01*
X147189203Y-82765885D01*
X147208429Y-82775435D01*
X147223618Y-82784672D01*
X147266203Y-82796603D01*
X147272300Y-82798654D01*
X147313436Y-82814876D01*
X147331117Y-82816693D01*
X147352217Y-82820704D01*
X147369335Y-82825500D01*
X147413547Y-82825500D01*
X147419995Y-82825831D01*
X147463970Y-82830352D01*
X147463970Y-82830351D01*
X147463972Y-82830352D01*
X147474356Y-82828561D01*
X147481489Y-82827332D01*
X147502896Y-82825500D01*
X147836792Y-82825500D01*
X147887686Y-82836236D01*
X147970009Y-82872585D01*
X147995135Y-82875500D01*
X149504000Y-82875499D01*
X149572121Y-82895501D01*
X149618614Y-82949157D01*
X149630000Y-83001499D01*
X149630000Y-83218500D01*
X149609998Y-83286621D01*
X149556342Y-83333114D01*
X149504000Y-83344500D01*
X149085046Y-83344500D01*
X148950745Y-83359632D01*
X148950742Y-83359632D01*
X148950742Y-83359633D01*
X148773799Y-83421548D01*
X148773248Y-83419973D01*
X148729316Y-83430000D01*
X148390000Y-83430000D01*
X148383570Y-83835007D01*
X148376516Y-83874621D01*
X148344631Y-83965744D01*
X148324435Y-84145000D01*
X148344631Y-84324254D01*
X148367041Y-84388302D01*
X148374095Y-84431913D01*
X148371945Y-84567441D01*
X148350865Y-84635236D01*
X148296479Y-84680871D01*
X148247435Y-84691433D01*
X146788119Y-84708501D01*
X146719769Y-84689297D01*
X146672651Y-84636189D01*
X146660647Y-84581874D01*
X146661948Y-84324254D01*
X146669369Y-82854936D01*
X146689713Y-82786921D01*
X146743603Y-82740700D01*
X146794935Y-82729577D01*
X147089274Y-82728583D01*
X147157461Y-82748355D01*
G37*
%TD.AperFunction*%
%TD*%
%TA.AperFunction,Conductor*%
%TO.N,+3.3VA*%
G36*
X109139157Y-93520002D02*
G01*
X109185650Y-93573658D01*
X109197002Y-93628930D01*
X109181411Y-94299270D01*
X109159830Y-94366907D01*
X109105108Y-94412140D01*
X109048136Y-94421762D01*
X109048137Y-94421816D01*
X109047816Y-94421816D01*
X109046569Y-94422027D01*
X109043637Y-94421819D01*
X109043632Y-94421820D01*
X109041367Y-94421984D01*
X109040622Y-94421822D01*
X109039134Y-94421824D01*
X109039133Y-94421500D01*
X109030370Y-94419601D01*
X108975733Y-94424725D01*
X108969848Y-94425000D01*
X108592502Y-94425000D01*
X108550856Y-94417919D01*
X108548129Y-94416964D01*
X108514956Y-94399426D01*
X108485296Y-94377537D01*
X108485295Y-94377536D01*
X108485292Y-94377534D01*
X108472458Y-94369025D01*
X108444029Y-94352177D01*
X108439604Y-94349604D01*
X108439605Y-94349604D01*
X108439601Y-94349602D01*
X108366029Y-94324118D01*
X108333517Y-94312857D01*
X108333514Y-94312856D01*
X108333510Y-94312855D01*
X108263310Y-94302342D01*
X108201887Y-94299401D01*
X108092774Y-94325842D01*
X108092768Y-94325844D01*
X108028018Y-94354959D01*
X107974771Y-94385684D01*
X107897277Y-94466916D01*
X107897270Y-94466925D01*
X107885054Y-94485691D01*
X107831126Y-94531868D01*
X107812302Y-94537939D01*
X107812435Y-94538397D01*
X107807514Y-94539823D01*
X107791820Y-94545789D01*
X107784558Y-94546353D01*
X107659231Y-94595776D01*
X107628042Y-94603661D01*
X107625921Y-94603915D01*
X107620636Y-94604550D01*
X107613124Y-94605000D01*
X107074931Y-94605000D01*
X107067418Y-94604549D01*
X107061249Y-94603809D01*
X107060009Y-94603660D01*
X107028826Y-94595776D01*
X106938132Y-94560010D01*
X106938131Y-94560009D01*
X106938117Y-94560004D01*
X106938114Y-94560003D01*
X106911624Y-94550936D01*
X106911622Y-94550935D01*
X106911617Y-94550934D01*
X106910210Y-94550627D01*
X106903142Y-94548648D01*
X106893218Y-94545236D01*
X106893217Y-94545236D01*
X106893214Y-94545235D01*
X106864798Y-94536979D01*
X106864796Y-94536978D01*
X106769761Y-94532267D01*
X106702714Y-94508917D01*
X106658935Y-94453025D01*
X106650000Y-94406422D01*
X106650000Y-93626000D01*
X106670002Y-93557879D01*
X106723658Y-93511386D01*
X106776000Y-93500000D01*
X109071036Y-93500000D01*
X109139157Y-93520002D01*
G37*
%TD.AperFunction*%
%TD*%
%TA.AperFunction,Conductor*%
%TO.N,+3V3*%
G36*
X142471571Y-57800204D02*
G01*
X142518249Y-57853698D01*
X142529817Y-57906619D01*
X142520068Y-64672371D01*
X142499968Y-64740462D01*
X142488442Y-64755673D01*
X142097062Y-65198103D01*
X142036945Y-65235873D01*
X142004065Y-65240611D01*
X140367377Y-65258497D01*
X140299042Y-65239241D01*
X140251965Y-65186097D01*
X140240000Y-65132505D01*
X140240000Y-63020001D01*
X140239999Y-63019999D01*
X139642684Y-62488015D01*
X139605117Y-62427772D01*
X139600490Y-62392845D01*
X139638931Y-57914484D01*
X139659517Y-57846540D01*
X139713569Y-57800509D01*
X139764488Y-57789569D01*
X142403381Y-57780438D01*
X142471571Y-57800204D01*
G37*
%TD.AperFunction*%
%TD*%
%TA.AperFunction,Conductor*%
%TO.N,GND*%
G36*
X104092121Y-99620002D02*
G01*
X104138614Y-99673658D01*
X104150000Y-99726000D01*
X104150000Y-100233441D01*
X104129998Y-100301562D01*
X104106513Y-100328665D01*
X104049947Y-100377679D01*
X104049935Y-100377690D01*
X104007764Y-100422416D01*
X104007761Y-100422419D01*
X103956875Y-100522500D01*
X103936877Y-100590608D01*
X103936872Y-100590629D01*
X103924500Y-100676679D01*
X103924500Y-103374000D01*
X103904498Y-103442121D01*
X103850842Y-103488614D01*
X103798500Y-103500000D01*
X102451000Y-103500000D01*
X102382879Y-103479998D01*
X102336386Y-103426342D01*
X102325000Y-103374000D01*
X102325000Y-99726000D01*
X102345002Y-99657879D01*
X102398658Y-99611386D01*
X102451000Y-99600000D01*
X104024000Y-99600000D01*
X104092121Y-99620002D01*
G37*
%TD.AperFunction*%
%TD*%
%TA.AperFunction,Conductor*%
%TO.N,GND*%
G36*
X117951516Y-79870501D02*
G01*
X117972490Y-79887404D01*
X118103402Y-80018316D01*
X118130119Y-80057777D01*
X118212499Y-80249998D01*
X118212500Y-80249999D01*
X118282895Y-80249999D01*
X118351016Y-80270001D01*
X118371990Y-80286904D01*
X118431033Y-80345947D01*
X118435735Y-80351209D01*
X118459897Y-80381506D01*
X118459901Y-80381511D01*
X118459904Y-80381513D01*
X118459905Y-80381514D01*
X118508686Y-80414772D01*
X118561321Y-80453619D01*
X118604253Y-80510164D01*
X118612500Y-80554998D01*
X118612500Y-81073499D01*
X118592498Y-81141620D01*
X118538842Y-81188113D01*
X118486500Y-81199499D01*
X118064431Y-81199499D01*
X118034680Y-81202289D01*
X118034675Y-81202290D01*
X117939631Y-81235548D01*
X117918541Y-81242928D01*
X117876927Y-81249999D01*
X114309436Y-81249999D01*
X114241315Y-81229997D01*
X114194822Y-81176341D01*
X114183504Y-81128128D01*
X114145882Y-79980628D01*
X114163641Y-79911888D01*
X114215744Y-79863662D01*
X114271814Y-79850499D01*
X117883395Y-79850499D01*
X117951516Y-79870501D01*
G37*
%TD.AperFunction*%
%TD*%
%TA.AperFunction,Conductor*%
%TO.N,/Power/+5V_FILT*%
G36*
X128342121Y-95860002D02*
G01*
X128388614Y-95913658D01*
X128400000Y-95966000D01*
X128400000Y-103634000D01*
X128379998Y-103702121D01*
X128326342Y-103748614D01*
X128274000Y-103760000D01*
X125096916Y-103760000D01*
X125028795Y-103739998D01*
X124982302Y-103686342D01*
X124981731Y-103684940D01*
X124979990Y-103681212D01*
X124979988Y-103681206D01*
X124944145Y-103619922D01*
X124907924Y-103570245D01*
X124902555Y-103566119D01*
X124850214Y-103525897D01*
X124811726Y-103476885D01*
X124807907Y-103468236D01*
X124807904Y-103468232D01*
X124728466Y-103388794D01*
X124667643Y-103361938D01*
X124632879Y-103339078D01*
X124629539Y-103335982D01*
X124629535Y-103335979D01*
X124629529Y-103335973D01*
X124618224Y-103326424D01*
X124607971Y-103317762D01*
X124607967Y-103317760D01*
X124507895Y-103266878D01*
X124507890Y-103266876D01*
X124439780Y-103246877D01*
X124439759Y-103246872D01*
X124353709Y-103234500D01*
X124353703Y-103234500D01*
X123303171Y-103234500D01*
X123235050Y-103214498D01*
X123193180Y-103169965D01*
X123106424Y-103014717D01*
X123090449Y-102956162D01*
X123075299Y-102299626D01*
X123093723Y-102231067D01*
X123100016Y-102221726D01*
X123127241Y-102184972D01*
X123183861Y-102142138D01*
X123227601Y-102133973D01*
X124314421Y-102126321D01*
X124329449Y-102125324D01*
X124332456Y-102125125D01*
X124332455Y-102125125D01*
X124370922Y-102120280D01*
X124381273Y-102118794D01*
X124381272Y-102118794D01*
X124381280Y-102118793D01*
X124443663Y-102096417D01*
X124487885Y-102089032D01*
X124560000Y-102090000D01*
X124955392Y-101614293D01*
X124967376Y-101602095D01*
X124967269Y-101601983D01*
X124969554Y-101599802D01*
X124969569Y-101599790D01*
X125011867Y-101555173D01*
X125017279Y-101544599D01*
X125032527Y-101521490D01*
X125200000Y-101320000D01*
X125200000Y-97730000D01*
X124764154Y-97142556D01*
X124739629Y-97075931D01*
X124739362Y-97069488D01*
X124722015Y-95967982D01*
X124740942Y-95899557D01*
X124793858Y-95852225D01*
X124847999Y-95840000D01*
X128274000Y-95840000D01*
X128342121Y-95860002D01*
G37*
%TD.AperFunction*%
%TD*%
%TA.AperFunction,Conductor*%
%TO.N,GND*%
G36*
X114479621Y-77695001D02*
G01*
X114526114Y-77748657D01*
X114537500Y-77800999D01*
X114537500Y-77834513D01*
X114517498Y-77902634D01*
X114512889Y-77909320D01*
X114503648Y-77921842D01*
X114503646Y-77921845D01*
X114459791Y-78047174D01*
X114459790Y-78047179D01*
X114457000Y-78076930D01*
X114457000Y-78523067D01*
X114459790Y-78552818D01*
X114459791Y-78552824D01*
X114461386Y-78557381D01*
X114465007Y-78628285D01*
X114429720Y-78689891D01*
X114366727Y-78722640D01*
X114342458Y-78724999D01*
X112522542Y-78724999D01*
X112454421Y-78704997D01*
X112407928Y-78651341D01*
X112397824Y-78581067D01*
X112403614Y-78557381D01*
X112405208Y-78552824D01*
X112405208Y-78552823D01*
X112405210Y-78552818D01*
X112408000Y-78523065D01*
X112408000Y-78089103D01*
X112428002Y-78020982D01*
X112444901Y-78000012D01*
X112458456Y-77986456D01*
X112463704Y-77981766D01*
X112494012Y-77957598D01*
X112527273Y-77908812D01*
X112562329Y-77861314D01*
X112566287Y-77853824D01*
X112569952Y-77846215D01*
X112587350Y-77789811D01*
X112589069Y-77784897D01*
X112630440Y-77727201D01*
X112696437Y-77701030D01*
X112708003Y-77700498D01*
X112907360Y-77700498D01*
X112907364Y-77700498D01*
X112932491Y-77697584D01*
X112959327Y-77685735D01*
X113010221Y-77674999D01*
X114411500Y-77674999D01*
X114479621Y-77695001D01*
G37*
%TD.AperFunction*%
%TD*%
%TA.AperFunction,Conductor*%
%TO.N,+5V*%
G36*
X142002421Y-81720002D02*
G01*
X142048914Y-81773658D01*
X142060136Y-81819575D01*
X142062752Y-81870821D01*
X142072640Y-81921195D01*
X142074999Y-81945464D01*
X142074999Y-82315301D01*
X142067929Y-82356914D01*
X142048714Y-82411830D01*
X142035886Y-82461560D01*
X142035885Y-82461566D01*
X142035885Y-82461567D01*
X142028817Y-82503165D01*
X142028817Y-82503166D01*
X142024500Y-82554345D01*
X142024500Y-82573148D01*
X142024528Y-82576562D01*
X142038381Y-82664952D01*
X142038679Y-82665907D01*
X142038684Y-82666254D01*
X142039431Y-82669457D01*
X142038740Y-82669617D01*
X142039862Y-82736894D01*
X142007488Y-82792510D01*
X141975000Y-82824998D01*
X141975000Y-84124000D01*
X141954998Y-84192121D01*
X141901342Y-84238614D01*
X141849000Y-84250000D01*
X140751000Y-84250000D01*
X140682879Y-84229998D01*
X140636386Y-84176342D01*
X140625000Y-84124000D01*
X140625000Y-81826000D01*
X140645002Y-81757879D01*
X140698658Y-81711386D01*
X140751000Y-81700000D01*
X141934300Y-81700000D01*
X142002421Y-81720002D01*
G37*
%TD.AperFunction*%
%TD*%
%TA.AperFunction,Conductor*%
%TO.N,VBUS*%
G36*
X143706100Y-81707935D02*
G01*
X143773878Y-81729070D01*
X143819470Y-81783493D01*
X143830000Y-81833918D01*
X143830000Y-84109000D01*
X143809998Y-84177121D01*
X143756342Y-84223614D01*
X143704000Y-84235000D01*
X142606000Y-84235000D01*
X142537879Y-84214998D01*
X142491386Y-84161342D01*
X142480000Y-84109000D01*
X142480000Y-82834999D01*
X142351162Y-82641742D01*
X142330018Y-82573967D01*
X142330000Y-82571850D01*
X142330000Y-82554344D01*
X142337070Y-82512732D01*
X142377662Y-82396729D01*
X142380500Y-82366463D01*
X142380499Y-81913538D01*
X142377662Y-81883271D01*
X142367856Y-81855247D01*
X142364236Y-81784343D01*
X142399525Y-81722737D01*
X142462518Y-81689990D01*
X142488884Y-81687648D01*
X143706100Y-81707935D01*
G37*
%TD.AperFunction*%
%TD*%
%TA.AperFunction,Conductor*%
%TO.N,GND*%
G36*
X124674268Y-97749392D02*
G01*
X124742289Y-97769723D01*
X124788522Y-97823603D01*
X124799657Y-97875734D01*
X124790325Y-101300300D01*
X124770137Y-101368366D01*
X124716355Y-101414713D01*
X124698807Y-101421147D01*
X124594437Y-101450843D01*
X124504781Y-101518548D01*
X124445638Y-101614068D01*
X124426200Y-101718049D01*
X124394021Y-101781334D01*
X124332735Y-101817175D01*
X124303233Y-101820892D01*
X123010000Y-101829999D01*
X122790472Y-102126362D01*
X122664562Y-102296342D01*
X122647779Y-102318999D01*
X122591159Y-102361832D01*
X122546531Y-102370000D01*
X120795729Y-102370000D01*
X120727608Y-102349998D01*
X120681115Y-102296342D01*
X120669729Y-102244272D01*
X120668815Y-101820000D01*
X120660273Y-97856881D01*
X120680128Y-97788719D01*
X120733684Y-97742110D01*
X120786877Y-97730612D01*
X124674268Y-97749392D01*
G37*
%TD.AperFunction*%
%TD*%
%TA.AperFunction,Conductor*%
%TO.N,GND*%
G36*
X108288271Y-94614988D02*
G01*
X108310076Y-94627911D01*
X108385874Y-94683852D01*
X108511212Y-94727710D01*
X108540965Y-94730500D01*
X108540968Y-94730500D01*
X108987094Y-94730500D01*
X108987097Y-94730500D01*
X109016850Y-94727710D01*
X109016860Y-94727706D01*
X109022108Y-94726561D01*
X109092929Y-94731564D01*
X109149802Y-94774060D01*
X109174671Y-94840559D01*
X109175000Y-94849658D01*
X109175000Y-98318500D01*
X109154998Y-98386621D01*
X109101342Y-98433114D01*
X109049000Y-98444500D01*
X108516875Y-98444500D01*
X108448754Y-98424498D01*
X108416967Y-98395275D01*
X108381026Y-98348505D01*
X108341109Y-98307339D01*
X108341107Y-98307337D01*
X108341103Y-98307333D01*
X108307927Y-98277762D01*
X108307925Y-98277761D01*
X108307924Y-98277760D01*
X108207852Y-98226878D01*
X108207851Y-98226877D01*
X108207850Y-98226877D01*
X108189471Y-98221480D01*
X108167531Y-98215038D01*
X108107805Y-98176654D01*
X108094431Y-98158034D01*
X108075000Y-98125000D01*
X108074998Y-98125000D01*
X108074998Y-98124999D01*
X106754139Y-98147773D01*
X106685684Y-98128949D01*
X106638273Y-98076102D01*
X106625971Y-98020845D01*
X106649001Y-94957759D01*
X106669514Y-94889793D01*
X106723518Y-94843705D01*
X106793866Y-94834130D01*
X106825693Y-94845075D01*
X106826038Y-94844202D01*
X106968440Y-94900359D01*
X106968439Y-94900359D01*
X106991488Y-94903126D01*
X107052887Y-94910500D01*
X107052890Y-94910500D01*
X107635172Y-94910500D01*
X107635175Y-94910500D01*
X107719621Y-94900359D01*
X107854006Y-94847364D01*
X107854008Y-94847361D01*
X107861520Y-94843139D01*
X107862903Y-94845599D01*
X107916088Y-94825380D01*
X107925869Y-94825000D01*
X108075001Y-94825000D01*
X108075000Y-94824999D01*
X108090282Y-94774060D01*
X108114574Y-94693086D01*
X108153305Y-94633588D01*
X108218057Y-94604473D01*
X108288271Y-94614988D01*
G37*
%TD.AperFunction*%
%TD*%
%TA.AperFunction,Conductor*%
%TO.N,+3V3*%
G36*
X110652121Y-90700002D02*
G01*
X110698614Y-90753658D01*
X110710000Y-90806000D01*
X110710000Y-93004000D01*
X110689998Y-93072121D01*
X110636342Y-93118614D01*
X110584000Y-93130000D01*
X109813183Y-93130000D01*
X109745062Y-93109998D01*
X109698569Y-93056342D01*
X109687734Y-92992234D01*
X109689529Y-92973084D01*
X109689531Y-92973062D01*
X109689531Y-92526937D01*
X109689531Y-92526934D01*
X109686741Y-92497181D01*
X109667070Y-92440967D01*
X109660000Y-92399352D01*
X109660000Y-92380001D01*
X109659999Y-92379999D01*
X109535200Y-92213600D01*
X109510329Y-92147102D01*
X109510000Y-92138000D01*
X109510000Y-90806000D01*
X109530002Y-90737879D01*
X109583658Y-90691386D01*
X109636000Y-90680000D01*
X110584000Y-90680000D01*
X110652121Y-90700002D01*
G37*
%TD.AperFunction*%
%TD*%
%TA.AperFunction,Conductor*%
%TO.N,+3V3*%
G36*
X137452121Y-90750002D02*
G01*
X137498614Y-90803658D01*
X137510000Y-90856000D01*
X137510000Y-93304000D01*
X137489998Y-93372121D01*
X137436342Y-93418614D01*
X137384000Y-93430000D01*
X136561000Y-93430000D01*
X136492879Y-93409998D01*
X136446386Y-93356342D01*
X136435000Y-93304000D01*
X136435000Y-93276260D01*
X136441108Y-93240311D01*
X136441075Y-93240304D01*
X136441229Y-93239597D01*
X136442071Y-93234644D01*
X136442710Y-93232819D01*
X136445500Y-93203066D01*
X136445500Y-92756934D01*
X136442710Y-92727181D01*
X136442709Y-92727177D01*
X136442071Y-92725353D01*
X136441229Y-92720402D01*
X136441074Y-92719689D01*
X136441107Y-92719681D01*
X136435000Y-92683738D01*
X136435000Y-92480002D01*
X136434999Y-92479997D01*
X136296597Y-92180126D01*
X136285000Y-92127325D01*
X136285000Y-90856000D01*
X136305002Y-90787879D01*
X136358658Y-90741386D01*
X136411000Y-90730000D01*
X137384000Y-90730000D01*
X137452121Y-90750002D01*
G37*
%TD.AperFunction*%
%TD*%
%TA.AperFunction,Conductor*%
%TO.N,/Power/BUCK_SW*%
G36*
X137356409Y-57540002D02*
G01*
X137363472Y-57544890D01*
X137676441Y-57777610D01*
X137719171Y-57834308D01*
X137726383Y-57863902D01*
X138260000Y-62370000D01*
X139562933Y-63503850D01*
X139576078Y-63517126D01*
X139829865Y-63814669D01*
X139858854Y-63879478D01*
X139860000Y-63896436D01*
X139860000Y-64750833D01*
X139839998Y-64818954D01*
X139801647Y-64857133D01*
X139711026Y-64914801D01*
X139643381Y-64934500D01*
X138209868Y-64934500D01*
X138144355Y-64916129D01*
X138031854Y-64847650D01*
X137984067Y-64795146D01*
X137971392Y-64737599D01*
X137980000Y-64290000D01*
X137630000Y-63560000D01*
X137629999Y-63560000D01*
X134017652Y-63569816D01*
X133949478Y-63549999D01*
X133912472Y-63513708D01*
X133905898Y-63503847D01*
X133431083Y-62791625D01*
X133409940Y-62723852D01*
X133409922Y-62722088D01*
X133400135Y-57906805D01*
X133419999Y-57838647D01*
X133455222Y-57802402D01*
X133625307Y-57686599D01*
X133837912Y-57541848D01*
X133905477Y-57520044D01*
X133908823Y-57520000D01*
X137288288Y-57520000D01*
X137356409Y-57540002D01*
G37*
%TD.AperFunction*%
%TD*%
%TA.AperFunction,Conductor*%
%TO.N,VDDA*%
G36*
X118592898Y-81513676D02*
G01*
X118644861Y-81562053D01*
X118662500Y-81626349D01*
X118662500Y-83131098D01*
X118642498Y-83199219D01*
X118635221Y-83209394D01*
X118125334Y-83852295D01*
X118067332Y-83893238D01*
X118026613Y-83899999D01*
X116104975Y-83899999D01*
X116036854Y-83879997D01*
X115990361Y-83826341D01*
X115979139Y-83780420D01*
X115977169Y-83741817D01*
X115977169Y-83741815D01*
X115969859Y-83704568D01*
X115967500Y-83680303D01*
X115967500Y-83300585D01*
X115971493Y-83269115D01*
X115981612Y-83229888D01*
X115981614Y-83229877D01*
X115988682Y-83188279D01*
X115988682Y-83188278D01*
X115993000Y-83137099D01*
X115993000Y-83136688D01*
X115992999Y-83136684D01*
X115980817Y-83051280D01*
X115980816Y-83051272D01*
X115974694Y-83030249D01*
X115974851Y-82959255D01*
X116006570Y-82905928D01*
X116112500Y-82799999D01*
X116112500Y-81795617D01*
X116132502Y-81727496D01*
X116141704Y-81714954D01*
X116199719Y-81645336D01*
X116258695Y-81605809D01*
X116296515Y-81599999D01*
X117737501Y-81599999D01*
X117745096Y-81592404D01*
X117807408Y-81558378D01*
X117834191Y-81555499D01*
X117876927Y-81555499D01*
X117928104Y-81551182D01*
X117969718Y-81544111D01*
X118019443Y-81531284D01*
X118019446Y-81531283D01*
X118019445Y-81531284D01*
X118069762Y-81513676D01*
X118074352Y-81512069D01*
X118115968Y-81504999D01*
X118486494Y-81504999D01*
X118486500Y-81504999D01*
X118523032Y-81501071D01*
X118592898Y-81513676D01*
G37*
%TD.AperFunction*%
%TD*%
%TA.AperFunction,Conductor*%
%TO.N,GND*%
G36*
X142433249Y-84498685D02*
G01*
X142451810Y-84508123D01*
X142519931Y-84528125D01*
X142519940Y-84528126D01*
X142519943Y-84528127D01*
X142605993Y-84540499D01*
X142605998Y-84540500D01*
X142606000Y-84540500D01*
X143703994Y-84540500D01*
X143704000Y-84540500D01*
X143742860Y-84536322D01*
X143812728Y-84548927D01*
X143864690Y-84597305D01*
X143882315Y-84663495D01*
X143856851Y-86356846D01*
X143835827Y-86424658D01*
X143781478Y-86470339D01*
X143731834Y-86480947D01*
X140733868Y-86504008D01*
X140665596Y-86484531D01*
X140618691Y-86431234D01*
X140606913Y-86376144D01*
X140632109Y-84679627D01*
X140653120Y-84611813D01*
X140707460Y-84566122D01*
X140758095Y-84555500D01*
X141848994Y-84555500D01*
X141849000Y-84555500D01*
X141913937Y-84548519D01*
X141950801Y-84540500D01*
X141966276Y-84537134D01*
X141966275Y-84537134D01*
X141966276Y-84537133D01*
X141966279Y-84537133D01*
X142004488Y-84526175D01*
X142045420Y-84502235D01*
X142109031Y-84485000D01*
X142376140Y-84485000D01*
X142433249Y-84498685D01*
G37*
%TD.AperFunction*%
%TD*%
%TA.AperFunction,Conductor*%
%TO.N,+3V3*%
G36*
X118729621Y-77250501D02*
G01*
X118776114Y-77304157D01*
X118787500Y-77356499D01*
X118787500Y-77873999D01*
X118767498Y-77942120D01*
X118713842Y-77988613D01*
X118661500Y-77999999D01*
X117887499Y-77999999D01*
X117640810Y-78349476D01*
X117585185Y-78393594D01*
X117537872Y-78402814D01*
X116288500Y-78402814D01*
X116220379Y-78382812D01*
X116173886Y-78329156D01*
X116162500Y-78276814D01*
X116162500Y-77425999D01*
X116182502Y-77357878D01*
X116236158Y-77311385D01*
X116288500Y-77299999D01*
X117687499Y-77299999D01*
X117687500Y-77299999D01*
X117720096Y-77267402D01*
X117782406Y-77233379D01*
X117809190Y-77230499D01*
X118661500Y-77230499D01*
X118729621Y-77250501D01*
G37*
%TD.AperFunction*%
%TD*%
%TA.AperFunction,Conductor*%
%TO.N,GND*%
G36*
X118729621Y-75695001D02*
G01*
X118776114Y-75748657D01*
X118787500Y-75800999D01*
X118787500Y-76798999D01*
X118767498Y-76867120D01*
X118713842Y-76913613D01*
X118661500Y-76924999D01*
X116263500Y-76924999D01*
X116195379Y-76904997D01*
X116148886Y-76851341D01*
X116137500Y-76798999D01*
X116137500Y-75800999D01*
X116157502Y-75732878D01*
X116211158Y-75686385D01*
X116263500Y-75674999D01*
X118661500Y-75674999D01*
X118729621Y-75695001D01*
G37*
%TD.AperFunction*%
%TD*%
M02*
