%TF.GenerationSoftware,KiCad,Pcbnew,7.0.9*%
%TF.CreationDate,2024-01-09T08:16:38-05:00*%
%TF.ProjectId,mixed_signal_hw,6d697865-645f-4736-9967-6e616c5f6877,rev?*%
%TF.SameCoordinates,Original*%
%TF.FileFunction,Copper,L2,Inr*%
%TF.FilePolarity,Positive*%
%FSLAX46Y46*%
G04 Gerber Fmt 4.6, Leading zero omitted, Abs format (unit mm)*
G04 Created by KiCad (PCBNEW 7.0.9) date 2024-01-09 08:16:38*
%MOMM*%
%LPD*%
G01*
G04 APERTURE LIST*
%TA.AperFunction,ComponentPad*%
%ADD10C,1.900000*%
%TD*%
%TA.AperFunction,ComponentPad*%
%ADD11C,3.000000*%
%TD*%
%TA.AperFunction,ComponentPad*%
%ADD12O,2.100000X1.000000*%
%TD*%
%TA.AperFunction,ComponentPad*%
%ADD13O,1.600000X1.000000*%
%TD*%
%TA.AperFunction,ViaPad*%
%ADD14C,0.700000*%
%TD*%
%TA.AperFunction,ViaPad*%
%ADD15C,0.800000*%
%TD*%
G04 APERTURE END LIST*
D10*
%TO.N,/ADC/IN*%
%TO.C,J300*%
X113080000Y-119920000D03*
D11*
%TO.N,GND*%
X118160000Y-125000000D03*
D10*
X115620000Y-119920000D03*
D11*
X108000000Y-125000000D03*
%TD*%
D10*
%TO.N,/DAC/OUT*%
%TO.C,J400*%
X138023600Y-119920000D03*
D11*
%TO.N,GND*%
X143103600Y-125000000D03*
D10*
X140563600Y-119920000D03*
D11*
X132943600Y-125000000D03*
%TD*%
D12*
%TO.N,unconnected-(J201-SHIELD-PadS1)*%
%TO.C,J201*%
X149680000Y-84145000D03*
D13*
X153860000Y-84145000D03*
D12*
X149680000Y-75505000D03*
D13*
X153860000Y-75505000D03*
%TD*%
D14*
%TO.N,GND*%
X147790000Y-84200000D03*
X135250000Y-97225000D03*
X140240000Y-114310000D03*
D15*
X105000000Y-67000000D03*
D14*
X126537500Y-83124999D03*
X106960000Y-59400000D03*
D15*
X110000000Y-112500000D03*
X155000000Y-105000000D03*
X122500000Y-120000000D03*
X147500000Y-67500000D03*
X105000000Y-55000000D03*
X125000000Y-127500000D03*
D14*
X123560000Y-72685000D03*
D15*
X100000000Y-64500000D03*
X102500000Y-122500000D03*
X150000000Y-105000000D03*
D14*
X146050000Y-79300000D03*
X103290000Y-89850000D03*
D15*
X97500000Y-102500000D03*
X125000000Y-115000000D03*
X97500000Y-112500000D03*
X152500000Y-72500000D03*
X142500000Y-130000000D03*
X142500000Y-75000000D03*
X120000000Y-120000000D03*
X127500000Y-127500000D03*
D14*
X127590000Y-108795000D03*
D15*
X105000000Y-70000000D03*
X147500000Y-72500000D03*
D14*
X108750000Y-97250000D03*
X116890000Y-90770000D03*
D15*
X130000000Y-112500000D03*
D14*
X113437500Y-77849999D03*
D15*
X125000000Y-117500000D03*
X107500000Y-112500000D03*
X100000000Y-122500000D03*
X130000000Y-95000000D03*
X102500000Y-117500000D03*
D14*
X107350000Y-96625000D03*
D15*
X97500000Y-107500000D03*
X107500000Y-120000000D03*
X142500000Y-122500000D03*
X120000000Y-115000000D03*
D14*
X122395627Y-100337882D03*
X101590000Y-70755000D03*
D15*
X140000000Y-75000000D03*
D14*
X139070000Y-101345000D03*
D15*
X145000000Y-105000000D03*
X147500000Y-95000000D03*
X137500000Y-115000000D03*
X126100000Y-77540000D03*
X97500000Y-100000000D03*
X137500000Y-125000000D03*
X130000000Y-57500000D03*
X100000000Y-112500000D03*
X102500000Y-64500000D03*
D14*
X117687500Y-75924999D03*
D15*
X135000000Y-122500000D03*
X145000000Y-110000000D03*
X102500000Y-112500000D03*
X132500000Y-92500000D03*
X152500000Y-67500000D03*
X142500000Y-107500000D03*
X120000000Y-60000000D03*
X132500000Y-95000000D03*
X115000000Y-100000000D03*
X150000000Y-97500000D03*
X115000000Y-130000000D03*
X112500000Y-125000000D03*
D14*
X112225000Y-64040000D03*
X114675000Y-110575000D03*
X147120000Y-76400000D03*
D15*
X122500000Y-117500000D03*
D14*
X116960000Y-87930000D03*
D15*
X130000000Y-60000000D03*
X110000000Y-130000000D03*
D14*
X140230000Y-103060000D03*
D15*
X152500000Y-110000000D03*
X115000000Y-127500000D03*
X100000000Y-107500000D03*
D14*
X143960000Y-63750000D03*
D15*
X105000000Y-87500000D03*
X152500000Y-92500000D03*
X120000000Y-55000000D03*
D14*
X116060000Y-54810000D03*
D15*
X117500000Y-122500000D03*
X147500000Y-105000000D03*
X137500000Y-130000000D03*
X97500000Y-115000000D03*
X147500000Y-70000000D03*
D14*
X140510000Y-80910000D03*
D15*
X132500000Y-130000000D03*
X127500000Y-125000000D03*
X122500000Y-132500000D03*
X110000000Y-55000000D03*
D14*
X116525000Y-104475000D03*
D15*
X125000000Y-55000000D03*
D14*
X136480000Y-88820000D03*
X115837500Y-80099999D03*
D15*
X140000000Y-127500000D03*
X152500000Y-112500000D03*
X152500000Y-100000000D03*
X155000000Y-90000000D03*
X100000000Y-85000000D03*
X97500000Y-82500000D03*
X127500000Y-115000000D03*
X102500000Y-97500000D03*
D14*
X145480500Y-76400000D03*
D15*
X142500000Y-92500000D03*
X147500000Y-97500000D03*
X140000000Y-125000000D03*
X100000000Y-117500000D03*
X145000000Y-102500000D03*
X155000000Y-100000000D03*
X110000000Y-120000000D03*
D14*
X136630000Y-65570000D03*
X141660000Y-67530000D03*
D15*
X127062500Y-78024999D03*
X145000000Y-67500000D03*
D14*
X114780000Y-54820000D03*
D15*
X105000000Y-62500000D03*
D14*
X123490000Y-108770000D03*
D15*
X145000000Y-62500000D03*
X122500000Y-127500000D03*
X150000000Y-115000000D03*
X105000000Y-92500000D03*
X145000000Y-122500000D03*
X132500000Y-112500000D03*
D14*
X114188721Y-101696627D03*
D15*
X140000000Y-122500000D03*
X150000000Y-72500000D03*
X155000000Y-70000000D03*
D14*
X103275000Y-101975000D03*
D15*
X97500000Y-87500000D03*
X155000000Y-97500000D03*
X150000000Y-90000000D03*
X112500000Y-122500000D03*
X147500000Y-90000000D03*
D14*
X109760000Y-61600000D03*
D15*
X130000000Y-97500000D03*
X102500000Y-107500000D03*
X145000000Y-90000000D03*
X142500000Y-115000000D03*
X147500000Y-102500000D03*
X155000000Y-65000000D03*
X155000000Y-115000000D03*
X142500000Y-90000000D03*
X155000000Y-95000000D03*
X142500000Y-105000000D03*
X147500000Y-120000000D03*
X145000000Y-97500000D03*
X155000000Y-110000000D03*
D14*
X150000000Y-86160000D03*
D15*
X147500000Y-115000000D03*
X122500000Y-60000000D03*
X107500000Y-87500000D03*
X145000000Y-112500000D03*
D14*
X133430000Y-67420000D03*
D15*
X152500000Y-117500000D03*
D14*
X121270000Y-100410000D03*
D15*
X107500000Y-130000000D03*
X100000000Y-87500000D03*
D14*
X108750000Y-96000000D03*
D15*
X117500000Y-115000000D03*
D14*
X133940000Y-86750000D03*
X104570000Y-94760000D03*
D15*
X150000000Y-100000000D03*
X142500000Y-127500000D03*
X102500000Y-85000000D03*
D14*
X125730000Y-92202000D03*
D15*
X152500000Y-95000000D03*
X137500000Y-112500000D03*
X127500000Y-132500000D03*
X142500000Y-72500000D03*
X97500000Y-90000000D03*
X135000000Y-120000000D03*
D14*
X149970000Y-73560000D03*
D15*
X100000000Y-120000000D03*
X120000000Y-97500000D03*
X107500000Y-70000000D03*
D14*
X135185000Y-92455000D03*
D15*
X150000000Y-110000000D03*
X122500000Y-130000000D03*
X150000000Y-112500000D03*
X155000000Y-102500000D03*
D14*
X113000000Y-98925000D03*
X140600000Y-97600000D03*
D15*
X97500000Y-105000000D03*
X132500000Y-127500000D03*
X130000000Y-62500000D03*
X120000000Y-95000000D03*
X122500000Y-55000000D03*
X150000000Y-120000000D03*
X145000000Y-130000000D03*
X155000000Y-120000000D03*
X117500000Y-127500000D03*
X132500000Y-115000000D03*
X137500000Y-127500000D03*
X97500000Y-110000000D03*
X145000000Y-57500000D03*
X110000000Y-122500000D03*
X147500000Y-107500000D03*
X102500000Y-115000000D03*
X147500000Y-110000000D03*
X150000000Y-95000000D03*
X145000000Y-92500000D03*
X142500000Y-100000000D03*
X155000000Y-67500000D03*
D14*
X122360000Y-98430000D03*
D15*
X115000000Y-125000000D03*
X105000000Y-115000000D03*
X105000000Y-57500000D03*
X145000000Y-87500000D03*
X150000000Y-122500000D03*
X107500000Y-122500000D03*
X120000000Y-127500000D03*
X105000000Y-110000000D03*
D14*
X103275000Y-101050000D03*
D15*
X142500000Y-110000000D03*
X150000000Y-107500000D03*
X132500000Y-122500000D03*
X145000000Y-115000000D03*
X147500000Y-92500000D03*
X102500000Y-80000000D03*
D14*
X119350000Y-64000000D03*
D15*
X100000000Y-67000000D03*
X155000000Y-122500000D03*
X102500000Y-110000000D03*
D14*
X137500000Y-84810000D03*
D15*
X127500000Y-122500000D03*
X155000000Y-112500000D03*
D14*
X106500800Y-105858200D03*
X141340000Y-86080000D03*
D15*
X122500000Y-122500000D03*
X152500000Y-70000000D03*
D14*
X122890000Y-111240000D03*
D15*
X102500000Y-87500000D03*
X135000000Y-112500000D03*
D14*
X114425000Y-105225000D03*
D15*
X130000000Y-115000000D03*
X105000000Y-60000000D03*
X107500000Y-55000000D03*
X127500000Y-120000000D03*
X135000000Y-127500000D03*
X155000000Y-117500000D03*
X107500000Y-115000000D03*
X102500000Y-82500000D03*
X117500000Y-130000000D03*
X117500000Y-97500000D03*
X107500000Y-72500000D03*
D14*
X117687500Y-80099999D03*
D15*
X122500000Y-95000000D03*
X145000000Y-60000000D03*
X142500000Y-95000000D03*
D14*
X133920000Y-68200000D03*
D15*
X107500000Y-110000000D03*
D14*
X108235000Y-92755000D03*
D15*
X122037500Y-77499999D03*
X127500000Y-62500000D03*
X127500000Y-130000000D03*
X100000000Y-115000000D03*
X147500000Y-112500000D03*
X152500000Y-97500000D03*
D14*
X139040000Y-107760000D03*
D15*
X105000000Y-64500000D03*
X147500000Y-100000000D03*
D14*
X147200000Y-83290000D03*
D15*
X97500000Y-64500000D03*
X125000000Y-125000000D03*
D14*
X122360000Y-99400000D03*
D15*
X142500000Y-102500000D03*
X125050000Y-79410000D03*
X150000000Y-67500000D03*
D14*
X112250000Y-100250000D03*
D15*
X107500000Y-127500000D03*
X132500000Y-102500000D03*
X132500000Y-97500000D03*
D14*
X147730000Y-66200000D03*
D15*
X110000000Y-57500000D03*
X150000000Y-92500000D03*
X135000000Y-130000000D03*
X122500000Y-62500000D03*
D14*
X147840000Y-75540000D03*
X114050000Y-114950000D03*
X110970000Y-110660000D03*
X140730000Y-67540000D03*
D15*
X97500000Y-95000000D03*
X127500000Y-117500000D03*
X97500000Y-92500000D03*
D14*
X116460000Y-110700000D03*
D15*
X97500000Y-80000000D03*
X125000000Y-122500000D03*
X140000000Y-130000000D03*
X112500000Y-127500000D03*
D14*
X136470000Y-87080000D03*
X121290000Y-98430000D03*
D15*
X145000000Y-100000000D03*
X145000000Y-72500000D03*
X102500000Y-120000000D03*
X100000000Y-80000000D03*
D14*
X137670000Y-65540000D03*
D15*
X135000000Y-115000000D03*
X150000000Y-87500000D03*
X97500000Y-120000000D03*
X127500000Y-60000000D03*
X97500000Y-67000000D03*
X145000000Y-95000000D03*
X155000000Y-107500000D03*
X97500000Y-97500000D03*
X132500000Y-100000000D03*
X142500000Y-97500000D03*
X152500000Y-115000000D03*
X97500000Y-122500000D03*
X100000000Y-82500000D03*
D14*
X134780000Y-107750000D03*
D15*
X122500000Y-125000000D03*
X152500000Y-105000000D03*
D14*
X139380000Y-84920000D03*
D15*
X152500000Y-90000000D03*
X125000000Y-132500000D03*
X113070000Y-85200000D03*
X152500000Y-122500000D03*
X150000000Y-102500000D03*
X125000000Y-120000000D03*
D14*
X139460000Y-76750000D03*
D15*
X147500000Y-87500000D03*
X113060000Y-81230000D03*
X145000000Y-70000000D03*
X155000000Y-92500000D03*
X145000000Y-107500000D03*
X147500000Y-122500000D03*
X142500000Y-87500000D03*
X145000000Y-127500000D03*
X137500000Y-122500000D03*
D14*
X98900000Y-90720000D03*
D15*
X150000000Y-70000000D03*
X115000000Y-97500000D03*
X120000000Y-130000000D03*
X152500000Y-120000000D03*
X105000000Y-112500000D03*
X102500000Y-67000000D03*
X107500000Y-57500000D03*
X120560000Y-75980000D03*
X112500000Y-130000000D03*
D14*
X140090000Y-105840000D03*
D15*
X115000000Y-122500000D03*
X155000000Y-72500000D03*
D14*
X116240000Y-103490000D03*
D15*
X110000000Y-127500000D03*
X152500000Y-107500000D03*
X145000000Y-120000000D03*
D14*
X121290000Y-99400000D03*
X143170000Y-86070000D03*
D15*
X125000000Y-130000000D03*
X152500000Y-102500000D03*
D14*
X108500000Y-105250000D03*
D15*
X130000000Y-100000000D03*
X97500000Y-85000000D03*
D14*
X119835000Y-57605000D03*
D15*
X132500000Y-120000000D03*
X142500000Y-112500000D03*
D14*
X115730000Y-64030000D03*
D15*
X132500000Y-105000000D03*
X97500000Y-117500000D03*
D14*
X110562500Y-75099999D03*
X112250000Y-54830000D03*
D15*
X110000000Y-115000000D03*
X100000000Y-110000000D03*
X130000000Y-102500000D03*
D14*
X138047376Y-100239681D03*
D15*
X127500000Y-57500000D03*
X145000000Y-55000000D03*
X120000000Y-122500000D03*
X122500000Y-115000000D03*
D14*
%TO.N,+5V*%
X139210000Y-81100000D03*
X103140000Y-90750000D03*
X125700000Y-93340000D03*
X138420000Y-76840000D03*
%TO.N,+3.3VA*%
X105580000Y-95010000D03*
X115120000Y-103306185D03*
X115100000Y-101890000D03*
%TO.N,+3V3*%
X144550000Y-64700000D03*
X128220000Y-86300000D03*
X132930000Y-87130000D03*
X110060000Y-90070000D03*
X115260000Y-85270000D03*
X134740000Y-76850000D03*
X121600000Y-56470000D03*
X98936185Y-70820000D03*
X143330000Y-64710000D03*
X138690000Y-69300000D03*
X119380000Y-86280000D03*
X130330000Y-75860000D03*
X121310000Y-73180000D03*
X135400000Y-90236185D03*
%TO.N,/MCU/NRST*%
X119500000Y-75990000D03*
X121870000Y-78500000D03*
%TO.N,SPI2_NSS*%
X139393815Y-85850000D03*
X136730000Y-85390000D03*
%TO.N,SPI1_NSS*%
X118640000Y-87940000D03*
X116870000Y-89660000D03*
%TO.N,/MCU/TIM4_CH1*%
X112330000Y-82000000D03*
X122810000Y-78230000D03*
%TO.N,/MCU/TIM4_CH2*%
X112290000Y-84370000D03*
X125990000Y-78630000D03*
%TO.N,/MCU/TIM4_CH3*%
X112290000Y-83020000D03*
X124060000Y-79020000D03*
%TO.N,DAC_NCLR*%
X137190000Y-89540000D03*
X139620000Y-98050000D03*
%TO.N,DAC_NLDAC*%
X139650000Y-97060000D03*
X137210000Y-87850000D03*
%TD*%
%TA.AperFunction,Conductor*%
%TO.N,GND*%
G36*
X150717318Y-53259488D02*
G01*
X150915454Y-53268139D01*
X150921362Y-53268636D01*
X151136792Y-53295489D01*
X151336810Y-53321823D01*
X151342357Y-53322769D01*
X151426242Y-53340357D01*
X151554202Y-53367187D01*
X151752112Y-53411063D01*
X151757203Y-53412384D01*
X151964545Y-53474112D01*
X152158267Y-53535193D01*
X152162926Y-53536835D01*
X152364457Y-53615472D01*
X152552417Y-53693329D01*
X152556592Y-53695211D01*
X152676345Y-53753755D01*
X152750992Y-53790248D01*
X152931690Y-53884313D01*
X152935426Y-53886396D01*
X153121382Y-53997202D01*
X153293380Y-54106777D01*
X153296642Y-54108978D01*
X153472918Y-54234837D01*
X153634867Y-54359105D01*
X153637664Y-54361360D01*
X153803059Y-54501442D01*
X153954895Y-54640574D01*
X154109425Y-54795104D01*
X154248555Y-54946938D01*
X154259618Y-54960000D01*
X154388638Y-55112335D01*
X154390893Y-55115131D01*
X154515162Y-55277081D01*
X154641020Y-55453356D01*
X154643221Y-55456618D01*
X154752797Y-55628617D01*
X154863602Y-55814572D01*
X154865685Y-55818308D01*
X154959751Y-55999007D01*
X155054775Y-56193381D01*
X155056674Y-56197592D01*
X155134536Y-56385566D01*
X155213158Y-56587059D01*
X155214807Y-56591738D01*
X155275899Y-56785496D01*
X155337610Y-56992781D01*
X155338942Y-56997915D01*
X155382818Y-57195826D01*
X155427229Y-57407641D01*
X155428178Y-57413206D01*
X155454524Y-57613319D01*
X155481360Y-57828618D01*
X155481862Y-57834585D01*
X155490513Y-58032728D01*
X155499500Y-58250000D01*
X155499500Y-128193517D01*
X155497115Y-128202416D01*
X155499407Y-128248134D01*
X155499500Y-128251864D01*
X155499500Y-128260561D01*
X155499584Y-128261566D01*
X155500000Y-128318381D01*
X155500000Y-128707503D01*
X155499773Y-128713310D01*
X155484830Y-128904508D01*
X155466668Y-129117389D01*
X155465946Y-129123170D01*
X155430122Y-129340599D01*
X155393068Y-129549990D01*
X155391917Y-129555340D01*
X155337538Y-129769559D01*
X155281890Y-129974456D01*
X155280380Y-129979348D01*
X155207809Y-130188551D01*
X155133987Y-130387548D01*
X155132187Y-130391962D01*
X155041926Y-130594513D01*
X154950517Y-130786048D01*
X154948499Y-130789972D01*
X154841183Y-130984329D01*
X154732869Y-131166961D01*
X154730703Y-131170395D01*
X154607094Y-131355085D01*
X154482710Y-131527355D01*
X154480472Y-131530298D01*
X154447120Y-131571956D01*
X154341451Y-131703940D01*
X154201992Y-131864429D01*
X154199735Y-131866910D01*
X154047475Y-132026975D01*
X154045109Y-132029352D01*
X153891765Y-132176670D01*
X153725278Y-132324191D01*
X153722443Y-132326579D01*
X153556638Y-132459380D01*
X153378337Y-132592068D01*
X153375015Y-132594402D01*
X153198026Y-132711700D01*
X153009276Y-132828587D01*
X153005457Y-132830798D01*
X152818703Y-132931670D01*
X152620913Y-133031933D01*
X152616595Y-133033951D01*
X152421536Y-133117616D01*
X152216230Y-133200536D01*
X152211421Y-133202289D01*
X152009563Y-133268099D01*
X151798320Y-133333110D01*
X151793034Y-133334527D01*
X151585754Y-133381992D01*
X151370374Y-133428632D01*
X151364636Y-133429642D01*
X151152976Y-133458405D01*
X150935680Y-133486361D01*
X150929524Y-133486895D01*
X150710635Y-133496756D01*
X150634641Y-133500000D01*
X150517229Y-133500000D01*
X150512126Y-133499500D01*
X150500099Y-133499500D01*
X100500000Y-133499500D01*
X100282728Y-133490513D01*
X100084585Y-133481862D01*
X100078618Y-133481360D01*
X99863319Y-133454524D01*
X99663206Y-133428178D01*
X99657641Y-133427229D01*
X99445826Y-133382818D01*
X99247915Y-133338942D01*
X99242781Y-133337610D01*
X99035496Y-133275899D01*
X98841738Y-133214807D01*
X98837059Y-133213158D01*
X98635566Y-133134536D01*
X98447592Y-133056674D01*
X98443381Y-133054775D01*
X98249007Y-132959751D01*
X98068308Y-132865685D01*
X98064572Y-132863602D01*
X97878617Y-132752797D01*
X97706618Y-132643221D01*
X97703356Y-132641020D01*
X97527081Y-132515162D01*
X97365131Y-132390893D01*
X97362335Y-132388638D01*
X97196940Y-132248557D01*
X97045104Y-132109425D01*
X96890574Y-131954895D01*
X96751442Y-131803059D01*
X96742331Y-131792302D01*
X96611358Y-131637661D01*
X96609105Y-131634867D01*
X96484837Y-131472918D01*
X96358978Y-131296642D01*
X96356777Y-131293380D01*
X96247202Y-131121382D01*
X96136396Y-130935426D01*
X96134313Y-130931690D01*
X96040248Y-130750992D01*
X96014381Y-130698080D01*
X95945211Y-130556592D01*
X95943324Y-130552406D01*
X95865463Y-130364433D01*
X95786835Y-130162926D01*
X95785191Y-130158259D01*
X95762306Y-130085676D01*
X95724112Y-129964544D01*
X95662384Y-129757203D01*
X95661063Y-129752112D01*
X95617187Y-129554202D01*
X95572769Y-129342357D01*
X95571823Y-129336810D01*
X95545489Y-129136792D01*
X95518636Y-128921362D01*
X95518139Y-128915454D01*
X95509488Y-128717318D01*
X95500500Y-128500000D01*
X95500500Y-128499500D01*
X95500500Y-128317773D01*
X98645788Y-128317773D01*
X98675412Y-128587005D01*
X98675414Y-128587018D01*
X98743928Y-128849088D01*
X98797722Y-128975675D01*
X98849870Y-129098390D01*
X98849875Y-129098399D01*
X98990981Y-129329610D01*
X98990984Y-129329614D01*
X99164247Y-129537812D01*
X99164259Y-129537824D01*
X99365990Y-129718575D01*
X99365999Y-129718583D01*
X99424396Y-129757218D01*
X99591910Y-129868044D01*
X99837176Y-129983020D01*
X100096569Y-130061060D01*
X100364561Y-130100500D01*
X100364568Y-130100500D01*
X100567629Y-130100500D01*
X100567631Y-130100500D01*
X100770156Y-130085677D01*
X101034553Y-130026780D01*
X101287558Y-129930014D01*
X101523777Y-129797441D01*
X101738177Y-129631888D01*
X101926186Y-129436881D01*
X102083799Y-129216579D01*
X102207656Y-128975675D01*
X102295118Y-128719305D01*
X102344319Y-128452933D01*
X102349259Y-128317773D01*
X148645788Y-128317773D01*
X148675412Y-128587005D01*
X148675414Y-128587018D01*
X148743928Y-128849088D01*
X148797722Y-128975675D01*
X148849870Y-129098390D01*
X148849875Y-129098399D01*
X148990981Y-129329610D01*
X148990984Y-129329614D01*
X149164247Y-129537812D01*
X149164259Y-129537824D01*
X149365990Y-129718575D01*
X149365999Y-129718583D01*
X149424396Y-129757218D01*
X149591910Y-129868044D01*
X149837176Y-129983020D01*
X150096569Y-130061060D01*
X150364561Y-130100500D01*
X150364568Y-130100500D01*
X150567629Y-130100500D01*
X150567631Y-130100500D01*
X150770156Y-130085677D01*
X151034553Y-130026780D01*
X151287558Y-129930014D01*
X151523777Y-129797441D01*
X151738177Y-129631888D01*
X151926186Y-129436881D01*
X152083799Y-129216579D01*
X152207656Y-128975675D01*
X152295118Y-128719305D01*
X152344319Y-128452933D01*
X152354212Y-128182235D01*
X152324586Y-127912982D01*
X152256072Y-127650912D01*
X152150130Y-127401610D01*
X152077999Y-127283419D01*
X152009018Y-127170389D01*
X152009015Y-127170385D01*
X151835752Y-126962187D01*
X151835740Y-126962175D01*
X151634009Y-126781424D01*
X151634000Y-126781416D01*
X151408090Y-126631956D01*
X151162825Y-126516980D01*
X151017369Y-126473219D01*
X150903431Y-126438940D01*
X150903427Y-126438939D01*
X150903426Y-126438939D01*
X150635446Y-126399501D01*
X150635445Y-126399500D01*
X150635439Y-126399500D01*
X150432369Y-126399500D01*
X150229844Y-126414323D01*
X150229836Y-126414324D01*
X149965449Y-126473219D01*
X149965439Y-126473222D01*
X149712440Y-126569986D01*
X149712438Y-126569987D01*
X149476224Y-126702558D01*
X149476217Y-126702562D01*
X149261830Y-126868105D01*
X149261826Y-126868108D01*
X149073810Y-127063123D01*
X148916201Y-127283419D01*
X148792344Y-127524324D01*
X148792344Y-127524325D01*
X148704886Y-127780680D01*
X148704880Y-127780703D01*
X148655681Y-128047060D01*
X148655681Y-128047067D01*
X148648197Y-128251864D01*
X148645788Y-128317773D01*
X102349259Y-128317773D01*
X102354212Y-128182235D01*
X102324586Y-127912982D01*
X102256072Y-127650912D01*
X102150130Y-127401610D01*
X102077999Y-127283419D01*
X102009018Y-127170389D01*
X102009015Y-127170385D01*
X101835752Y-126962187D01*
X101835740Y-126962175D01*
X101634009Y-126781424D01*
X101634000Y-126781416D01*
X101408090Y-126631956D01*
X101162825Y-126516980D01*
X101017369Y-126473219D01*
X100903431Y-126438940D01*
X100903427Y-126438939D01*
X100903426Y-126438939D01*
X100635446Y-126399501D01*
X100635445Y-126399500D01*
X100635439Y-126399500D01*
X100432369Y-126399500D01*
X100229844Y-126414323D01*
X100229836Y-126414324D01*
X99965449Y-126473219D01*
X99965439Y-126473222D01*
X99712440Y-126569986D01*
X99712438Y-126569987D01*
X99476224Y-126702558D01*
X99476217Y-126702562D01*
X99261830Y-126868105D01*
X99261826Y-126868108D01*
X99073810Y-127063123D01*
X98916201Y-127283419D01*
X98792344Y-127524324D01*
X98792344Y-127524325D01*
X98704886Y-127780680D01*
X98704880Y-127780703D01*
X98655681Y-128047060D01*
X98655681Y-128047067D01*
X98648197Y-128251864D01*
X98645788Y-128317773D01*
X95500500Y-128317773D01*
X95500500Y-125000006D01*
X105994891Y-125000006D01*
X106015298Y-125285342D01*
X106015300Y-125285359D01*
X106076110Y-125564898D01*
X106176090Y-125832956D01*
X106313193Y-126084042D01*
X106419882Y-126226561D01*
X107138348Y-125508095D01*
X107205146Y-125615263D01*
X107345268Y-125762671D01*
X107490085Y-125863467D01*
X106773436Y-126580116D01*
X106915957Y-126686806D01*
X107167043Y-126823909D01*
X107435101Y-126923889D01*
X107714640Y-126984699D01*
X107714657Y-126984701D01*
X107999994Y-127005109D01*
X108000006Y-127005109D01*
X108285342Y-126984701D01*
X108285359Y-126984699D01*
X108564898Y-126923889D01*
X108832956Y-126823909D01*
X109084034Y-126686810D01*
X109084046Y-126686802D01*
X109226561Y-126580115D01*
X108508125Y-125861678D01*
X108574214Y-125824996D01*
X108728531Y-125692520D01*
X108853021Y-125531692D01*
X108863626Y-125510072D01*
X109580115Y-126226561D01*
X109686802Y-126084046D01*
X109686810Y-126084034D01*
X109823909Y-125832956D01*
X109923889Y-125564898D01*
X109984699Y-125285359D01*
X109984701Y-125285342D01*
X110005109Y-125000006D01*
X116154891Y-125000006D01*
X116175298Y-125285342D01*
X116175300Y-125285359D01*
X116236110Y-125564898D01*
X116336090Y-125832956D01*
X116473193Y-126084042D01*
X116579882Y-126226561D01*
X117298348Y-125508095D01*
X117365146Y-125615263D01*
X117505268Y-125762671D01*
X117650085Y-125863467D01*
X116933436Y-126580116D01*
X117075957Y-126686806D01*
X117327043Y-126823909D01*
X117595101Y-126923889D01*
X117874640Y-126984699D01*
X117874657Y-126984701D01*
X118159994Y-127005109D01*
X118160006Y-127005109D01*
X118445342Y-126984701D01*
X118445359Y-126984699D01*
X118724898Y-126923889D01*
X118992956Y-126823909D01*
X119244034Y-126686810D01*
X119244046Y-126686802D01*
X119386561Y-126580115D01*
X118668125Y-125861678D01*
X118734214Y-125824996D01*
X118888531Y-125692520D01*
X119013021Y-125531692D01*
X119023626Y-125510072D01*
X119740115Y-126226561D01*
X119846802Y-126084046D01*
X119846810Y-126084034D01*
X119983909Y-125832956D01*
X120083889Y-125564898D01*
X120144699Y-125285359D01*
X120144701Y-125285342D01*
X120165109Y-125000006D01*
X130938491Y-125000006D01*
X130958898Y-125285342D01*
X130958900Y-125285359D01*
X131019710Y-125564898D01*
X131119690Y-125832956D01*
X131256793Y-126084042D01*
X131363482Y-126226561D01*
X132081948Y-125508095D01*
X132148746Y-125615263D01*
X132288868Y-125762671D01*
X132433685Y-125863467D01*
X131717036Y-126580116D01*
X131859557Y-126686806D01*
X132110643Y-126823909D01*
X132378701Y-126923889D01*
X132658240Y-126984699D01*
X132658257Y-126984701D01*
X132943594Y-127005109D01*
X132943606Y-127005109D01*
X133228942Y-126984701D01*
X133228959Y-126984699D01*
X133508498Y-126923889D01*
X133776556Y-126823909D01*
X134027634Y-126686810D01*
X134027646Y-126686802D01*
X134170161Y-126580115D01*
X133451725Y-125861678D01*
X133517814Y-125824996D01*
X133672131Y-125692520D01*
X133796621Y-125531692D01*
X133807226Y-125510072D01*
X134523715Y-126226561D01*
X134630402Y-126084046D01*
X134630410Y-126084034D01*
X134767509Y-125832956D01*
X134867489Y-125564898D01*
X134928299Y-125285359D01*
X134928301Y-125285342D01*
X134948709Y-125000006D01*
X141098491Y-125000006D01*
X141118898Y-125285342D01*
X141118900Y-125285359D01*
X141179710Y-125564898D01*
X141279690Y-125832956D01*
X141416793Y-126084042D01*
X141523482Y-126226561D01*
X142241948Y-125508095D01*
X142308746Y-125615263D01*
X142448868Y-125762671D01*
X142593685Y-125863467D01*
X141877036Y-126580116D01*
X142019557Y-126686806D01*
X142270643Y-126823909D01*
X142538701Y-126923889D01*
X142818240Y-126984699D01*
X142818257Y-126984701D01*
X143103594Y-127005109D01*
X143103606Y-127005109D01*
X143388942Y-126984701D01*
X143388959Y-126984699D01*
X143668498Y-126923889D01*
X143936556Y-126823909D01*
X144187634Y-126686810D01*
X144187646Y-126686802D01*
X144330161Y-126580115D01*
X143611725Y-125861678D01*
X143677814Y-125824996D01*
X143832131Y-125692520D01*
X143956621Y-125531692D01*
X143967226Y-125510072D01*
X144683715Y-126226561D01*
X144790402Y-126084046D01*
X144790410Y-126084034D01*
X144927509Y-125832956D01*
X145027489Y-125564898D01*
X145088299Y-125285359D01*
X145088301Y-125285342D01*
X145108709Y-125000006D01*
X145108709Y-124999993D01*
X145088301Y-124714657D01*
X145088299Y-124714640D01*
X145027489Y-124435101D01*
X144927509Y-124167043D01*
X144790406Y-123915957D01*
X144683715Y-123773436D01*
X143965250Y-124491901D01*
X143898454Y-124384737D01*
X143758332Y-124237329D01*
X143613512Y-124136531D01*
X144330162Y-123419882D01*
X144187642Y-123313193D01*
X143936556Y-123176090D01*
X143668498Y-123076110D01*
X143388959Y-123015300D01*
X143388942Y-123015298D01*
X143103606Y-122994891D01*
X143103594Y-122994891D01*
X142818257Y-123015298D01*
X142818240Y-123015300D01*
X142538701Y-123076110D01*
X142270643Y-123176090D01*
X142019556Y-123313194D01*
X142019555Y-123313195D01*
X141877037Y-123419883D01*
X142595475Y-124138321D01*
X142529386Y-124175004D01*
X142375069Y-124307480D01*
X142250579Y-124468308D01*
X142239973Y-124489927D01*
X141523483Y-123773437D01*
X141416795Y-123915955D01*
X141416794Y-123915956D01*
X141279690Y-124167043D01*
X141179710Y-124435101D01*
X141118900Y-124714640D01*
X141118898Y-124714657D01*
X141098491Y-124999993D01*
X141098491Y-125000006D01*
X134948709Y-125000006D01*
X134948709Y-124999993D01*
X134928301Y-124714657D01*
X134928299Y-124714640D01*
X134867489Y-124435101D01*
X134767509Y-124167043D01*
X134630406Y-123915957D01*
X134523715Y-123773436D01*
X133805250Y-124491901D01*
X133738454Y-124384737D01*
X133598332Y-124237329D01*
X133453512Y-124136531D01*
X134170162Y-123419882D01*
X134027642Y-123313193D01*
X133776556Y-123176090D01*
X133508498Y-123076110D01*
X133228959Y-123015300D01*
X133228942Y-123015298D01*
X132943606Y-122994891D01*
X132943594Y-122994891D01*
X132658257Y-123015298D01*
X132658240Y-123015300D01*
X132378701Y-123076110D01*
X132110643Y-123176090D01*
X131859556Y-123313194D01*
X131859555Y-123313195D01*
X131717037Y-123419883D01*
X132435475Y-124138321D01*
X132369386Y-124175004D01*
X132215069Y-124307480D01*
X132090579Y-124468308D01*
X132079973Y-124489927D01*
X131363483Y-123773437D01*
X131256795Y-123915955D01*
X131256794Y-123915956D01*
X131119690Y-124167043D01*
X131019710Y-124435101D01*
X130958900Y-124714640D01*
X130958898Y-124714657D01*
X130938491Y-124999993D01*
X130938491Y-125000006D01*
X120165109Y-125000006D01*
X120165109Y-124999993D01*
X120144701Y-124714657D01*
X120144699Y-124714640D01*
X120083889Y-124435101D01*
X119983909Y-124167043D01*
X119846806Y-123915957D01*
X119740115Y-123773436D01*
X119021650Y-124491901D01*
X118954854Y-124384737D01*
X118814732Y-124237329D01*
X118669912Y-124136531D01*
X119386562Y-123419882D01*
X119244042Y-123313193D01*
X118992956Y-123176090D01*
X118724898Y-123076110D01*
X118445359Y-123015300D01*
X118445342Y-123015298D01*
X118160006Y-122994891D01*
X118159994Y-122994891D01*
X117874657Y-123015298D01*
X117874640Y-123015300D01*
X117595101Y-123076110D01*
X117327043Y-123176090D01*
X117075956Y-123313194D01*
X117075955Y-123313195D01*
X116933437Y-123419883D01*
X117651875Y-124138321D01*
X117585786Y-124175004D01*
X117431469Y-124307480D01*
X117306979Y-124468308D01*
X117296373Y-124489927D01*
X116579883Y-123773437D01*
X116473195Y-123915955D01*
X116473194Y-123915956D01*
X116336090Y-124167043D01*
X116236110Y-124435101D01*
X116175300Y-124714640D01*
X116175298Y-124714657D01*
X116154891Y-124999993D01*
X116154891Y-125000006D01*
X110005109Y-125000006D01*
X110005109Y-124999993D01*
X109984701Y-124714657D01*
X109984699Y-124714640D01*
X109923889Y-124435101D01*
X109823909Y-124167043D01*
X109686806Y-123915957D01*
X109580115Y-123773436D01*
X108861650Y-124491901D01*
X108794854Y-124384737D01*
X108654732Y-124237329D01*
X108509912Y-124136531D01*
X109226562Y-123419882D01*
X109084042Y-123313193D01*
X108832956Y-123176090D01*
X108564898Y-123076110D01*
X108285359Y-123015300D01*
X108285342Y-123015298D01*
X108000006Y-122994891D01*
X107999994Y-122994891D01*
X107714657Y-123015298D01*
X107714640Y-123015300D01*
X107435101Y-123076110D01*
X107167043Y-123176090D01*
X106915956Y-123313194D01*
X106915955Y-123313195D01*
X106773437Y-123419883D01*
X107491875Y-124138321D01*
X107425786Y-124175004D01*
X107271469Y-124307480D01*
X107146979Y-124468308D01*
X107136373Y-124489927D01*
X106419883Y-123773437D01*
X106313195Y-123915955D01*
X106313194Y-123915956D01*
X106176090Y-124167043D01*
X106076110Y-124435101D01*
X106015300Y-124714640D01*
X106015298Y-124714657D01*
X105994891Y-124999993D01*
X105994891Y-125000006D01*
X95500500Y-125000006D01*
X95500500Y-119920000D01*
X111724341Y-119920000D01*
X111744937Y-120155409D01*
X111797251Y-120350652D01*
X111806097Y-120383663D01*
X111905965Y-120597830D01*
X112041505Y-120791401D01*
X112208599Y-120958495D01*
X112402170Y-121094035D01*
X112616337Y-121193903D01*
X112844592Y-121255063D01*
X113080000Y-121275659D01*
X113315408Y-121255063D01*
X113543663Y-121193903D01*
X113757830Y-121094035D01*
X113951401Y-120958495D01*
X114118495Y-120791401D01*
X114167428Y-120721517D01*
X114226509Y-120671942D01*
X114302465Y-120658548D01*
X114374942Y-120684927D01*
X114414218Y-120725486D01*
X114432687Y-120753756D01*
X115094070Y-120092373D01*
X115096884Y-120105915D01*
X115166442Y-120240156D01*
X115269638Y-120350652D01*
X115398819Y-120429209D01*
X115450002Y-120443550D01*
X114785573Y-121107980D01*
X114824206Y-121138050D01*
X115035547Y-121252422D01*
X115262822Y-121330445D01*
X115499853Y-121370000D01*
X115740147Y-121370000D01*
X115977177Y-121330445D01*
X116204452Y-121252422D01*
X116415790Y-121138052D01*
X116454426Y-121107979D01*
X115791568Y-120445121D01*
X115908458Y-120394349D01*
X116025739Y-120298934D01*
X116112928Y-120175415D01*
X116143355Y-120089801D01*
X116807311Y-120753756D01*
X116899606Y-120612490D01*
X116899609Y-120612484D01*
X116996134Y-120392430D01*
X117055124Y-120159481D01*
X117074969Y-119920000D01*
X136667941Y-119920000D01*
X136688537Y-120155409D01*
X136740851Y-120350652D01*
X136749697Y-120383663D01*
X136849565Y-120597830D01*
X136985105Y-120791401D01*
X137152199Y-120958495D01*
X137345770Y-121094035D01*
X137559937Y-121193903D01*
X137788192Y-121255063D01*
X138023600Y-121275659D01*
X138259008Y-121255063D01*
X138487263Y-121193903D01*
X138701430Y-121094035D01*
X138895001Y-120958495D01*
X139062095Y-120791401D01*
X139111028Y-120721517D01*
X139170109Y-120671942D01*
X139246065Y-120658548D01*
X139318542Y-120684927D01*
X139357818Y-120725486D01*
X139376287Y-120753756D01*
X140037670Y-120092373D01*
X140040484Y-120105915D01*
X140110042Y-120240156D01*
X140213238Y-120350652D01*
X140342419Y-120429209D01*
X140393602Y-120443550D01*
X139729173Y-121107980D01*
X139767806Y-121138050D01*
X139979147Y-121252422D01*
X140206422Y-121330445D01*
X140443453Y-121370000D01*
X140683747Y-121370000D01*
X140920777Y-121330445D01*
X141148052Y-121252422D01*
X141359390Y-121138052D01*
X141398026Y-121107979D01*
X140735168Y-120445121D01*
X140852058Y-120394349D01*
X140969339Y-120298934D01*
X141056528Y-120175415D01*
X141086955Y-120089801D01*
X141750911Y-120753756D01*
X141843206Y-120612490D01*
X141843209Y-120612484D01*
X141939734Y-120392430D01*
X141998724Y-120159481D01*
X142018569Y-119920000D01*
X142018569Y-119919999D01*
X141998724Y-119680518D01*
X141939734Y-119447569D01*
X141843209Y-119227516D01*
X141843207Y-119227513D01*
X141750911Y-119086242D01*
X141089529Y-119747622D01*
X141086716Y-119734085D01*
X141017158Y-119599844D01*
X140913962Y-119489348D01*
X140784781Y-119410791D01*
X140733594Y-119396449D01*
X141398025Y-118732019D01*
X141359395Y-118701950D01*
X141359387Y-118701946D01*
X141148059Y-118587580D01*
X141148056Y-118587578D01*
X140920777Y-118509554D01*
X140683747Y-118470000D01*
X140443453Y-118470000D01*
X140206422Y-118509554D01*
X139979143Y-118587578D01*
X139979140Y-118587580D01*
X139767813Y-118701945D01*
X139767802Y-118701952D01*
X139729173Y-118732018D01*
X139729173Y-118732019D01*
X140392032Y-119394878D01*
X140275142Y-119445651D01*
X140157861Y-119541066D01*
X140070672Y-119664585D01*
X140040244Y-119750198D01*
X139376287Y-119086241D01*
X139376286Y-119086241D01*
X139357816Y-119114513D01*
X139300357Y-119165963D01*
X139224870Y-119181791D01*
X139151583Y-119157754D01*
X139111025Y-119118479D01*
X139062095Y-119048599D01*
X138895002Y-118881506D01*
X138701433Y-118745967D01*
X138701430Y-118745965D01*
X138487263Y-118646097D01*
X138487261Y-118646096D01*
X138259009Y-118584937D01*
X138023600Y-118564341D01*
X137788190Y-118584937D01*
X137559940Y-118646096D01*
X137559939Y-118646096D01*
X137559937Y-118646097D01*
X137345771Y-118745965D01*
X137345768Y-118745966D01*
X137345768Y-118745967D01*
X137152196Y-118881507D01*
X136985107Y-119048596D01*
X136859829Y-119227513D01*
X136849565Y-119242171D01*
X136770936Y-119410791D01*
X136749696Y-119456340D01*
X136688537Y-119684590D01*
X136667941Y-119920000D01*
X117074969Y-119920000D01*
X117074969Y-119919999D01*
X117055124Y-119680518D01*
X116996134Y-119447569D01*
X116899609Y-119227516D01*
X116899607Y-119227513D01*
X116807311Y-119086242D01*
X116145929Y-119747622D01*
X116143116Y-119734085D01*
X116073558Y-119599844D01*
X115970362Y-119489348D01*
X115841181Y-119410791D01*
X115789994Y-119396449D01*
X116454425Y-118732019D01*
X116415795Y-118701950D01*
X116415787Y-118701946D01*
X116204459Y-118587580D01*
X116204456Y-118587578D01*
X115977177Y-118509554D01*
X115740147Y-118470000D01*
X115499853Y-118470000D01*
X115262822Y-118509554D01*
X115035543Y-118587578D01*
X115035540Y-118587580D01*
X114824213Y-118701945D01*
X114824202Y-118701952D01*
X114785573Y-118732018D01*
X114785573Y-118732019D01*
X115448432Y-119394878D01*
X115331542Y-119445651D01*
X115214261Y-119541066D01*
X115127072Y-119664585D01*
X115096644Y-119750198D01*
X114432687Y-119086241D01*
X114432686Y-119086241D01*
X114414216Y-119114513D01*
X114356757Y-119165963D01*
X114281270Y-119181791D01*
X114207983Y-119157754D01*
X114167425Y-119118479D01*
X114118495Y-119048599D01*
X113951402Y-118881506D01*
X113757833Y-118745967D01*
X113757830Y-118745965D01*
X113543663Y-118646097D01*
X113543661Y-118646096D01*
X113315409Y-118584937D01*
X113080000Y-118564341D01*
X112844590Y-118584937D01*
X112616340Y-118646096D01*
X112616339Y-118646096D01*
X112616337Y-118646097D01*
X112402171Y-118745965D01*
X112402168Y-118745966D01*
X112402168Y-118745967D01*
X112208596Y-118881507D01*
X112041507Y-119048596D01*
X111916229Y-119227513D01*
X111905965Y-119242171D01*
X111827336Y-119410791D01*
X111806096Y-119456340D01*
X111744937Y-119684590D01*
X111724341Y-119920000D01*
X95500500Y-119920000D01*
X95500500Y-101890000D01*
X114344751Y-101890000D01*
X114363686Y-102058056D01*
X114363686Y-102058058D01*
X114363687Y-102058059D01*
X114419544Y-102217690D01*
X114509523Y-102360890D01*
X114509524Y-102360891D01*
X114629109Y-102480476D01*
X114635651Y-102485693D01*
X114634584Y-102487030D01*
X114680115Y-102536109D01*
X114697272Y-102611304D01*
X114674533Y-102685004D01*
X114653736Y-102711081D01*
X114529524Y-102835293D01*
X114529523Y-102835295D01*
X114439544Y-102978494D01*
X114383686Y-103138128D01*
X114364751Y-103306184D01*
X114364751Y-103306185D01*
X114383686Y-103474241D01*
X114383686Y-103474243D01*
X114383687Y-103474244D01*
X114439544Y-103633875D01*
X114529523Y-103777075D01*
X114649110Y-103896662D01*
X114792310Y-103986641D01*
X114951941Y-104042498D01*
X115063980Y-104055122D01*
X115119999Y-104061434D01*
X115120000Y-104061434D01*
X115120001Y-104061434D01*
X115162014Y-104056700D01*
X115288059Y-104042498D01*
X115447690Y-103986641D01*
X115590890Y-103896662D01*
X115710477Y-103777075D01*
X115800456Y-103633875D01*
X115856313Y-103474244D01*
X115875249Y-103306185D01*
X115856313Y-103138126D01*
X115800456Y-102978495D01*
X115710477Y-102835295D01*
X115590890Y-102715708D01*
X115590888Y-102715707D01*
X115584349Y-102710492D01*
X115585414Y-102709155D01*
X115539880Y-102660069D01*
X115522727Y-102584873D01*
X115545470Y-102511174D01*
X115566263Y-102485103D01*
X115570887Y-102480478D01*
X115570890Y-102480477D01*
X115690477Y-102360890D01*
X115780456Y-102217690D01*
X115836313Y-102058059D01*
X115855249Y-101890000D01*
X115836313Y-101721941D01*
X115780456Y-101562310D01*
X115690477Y-101419110D01*
X115570890Y-101299523D01*
X115427690Y-101209544D01*
X115268059Y-101153687D01*
X115268058Y-101153686D01*
X115268056Y-101153686D01*
X115100001Y-101134751D01*
X115099999Y-101134751D01*
X114931943Y-101153686D01*
X114772309Y-101209544D01*
X114629110Y-101299523D01*
X114509523Y-101419110D01*
X114419544Y-101562309D01*
X114363686Y-101721943D01*
X114344751Y-101889999D01*
X114344751Y-101890000D01*
X95500500Y-101890000D01*
X95500500Y-98050000D01*
X138864751Y-98050000D01*
X138883686Y-98218056D01*
X138883686Y-98218058D01*
X138883687Y-98218059D01*
X138939544Y-98377690D01*
X139029523Y-98520890D01*
X139149110Y-98640477D01*
X139292310Y-98730456D01*
X139451941Y-98786313D01*
X139563980Y-98798937D01*
X139619999Y-98805249D01*
X139620000Y-98805249D01*
X139620001Y-98805249D01*
X139662014Y-98800515D01*
X139788059Y-98786313D01*
X139947690Y-98730456D01*
X140090890Y-98640477D01*
X140210477Y-98520890D01*
X140300456Y-98377690D01*
X140356313Y-98218059D01*
X140375249Y-98050000D01*
X140356313Y-97881941D01*
X140300456Y-97722310D01*
X140300455Y-97722307D01*
X140260139Y-97658146D01*
X140237404Y-97584444D01*
X140254566Y-97509250D01*
X140260139Y-97499598D01*
X140330455Y-97387692D01*
X140330456Y-97387690D01*
X140386313Y-97228059D01*
X140405249Y-97060000D01*
X140386313Y-96891941D01*
X140330456Y-96732310D01*
X140240477Y-96589110D01*
X140120890Y-96469523D01*
X139977690Y-96379544D01*
X139818059Y-96323687D01*
X139818058Y-96323686D01*
X139818056Y-96323686D01*
X139650001Y-96304751D01*
X139649999Y-96304751D01*
X139481943Y-96323686D01*
X139322309Y-96379544D01*
X139179110Y-96469523D01*
X139059523Y-96589110D01*
X138969544Y-96732309D01*
X138913686Y-96891943D01*
X138894751Y-97059999D01*
X138894751Y-97060000D01*
X138913686Y-97228056D01*
X138969544Y-97387690D01*
X139009861Y-97451854D01*
X139032595Y-97525555D01*
X139015432Y-97600750D01*
X139009861Y-97610399D01*
X138939545Y-97722306D01*
X138883686Y-97881943D01*
X138864751Y-98049999D01*
X138864751Y-98050000D01*
X95500500Y-98050000D01*
X95500500Y-95010000D01*
X104824751Y-95010000D01*
X104843686Y-95178056D01*
X104843686Y-95178058D01*
X104843687Y-95178059D01*
X104899544Y-95337690D01*
X104989523Y-95480890D01*
X105109110Y-95600477D01*
X105252310Y-95690456D01*
X105411941Y-95746313D01*
X105523980Y-95758937D01*
X105579999Y-95765249D01*
X105580000Y-95765249D01*
X105580001Y-95765249D01*
X105622014Y-95760515D01*
X105748059Y-95746313D01*
X105907690Y-95690456D01*
X106050890Y-95600477D01*
X106170477Y-95480890D01*
X106260456Y-95337690D01*
X106316313Y-95178059D01*
X106335249Y-95010000D01*
X106316313Y-94841941D01*
X106260456Y-94682310D01*
X106170477Y-94539110D01*
X106050890Y-94419523D01*
X105907690Y-94329544D01*
X105748059Y-94273687D01*
X105748058Y-94273686D01*
X105748056Y-94273686D01*
X105580001Y-94254751D01*
X105579999Y-94254751D01*
X105411943Y-94273686D01*
X105252309Y-94329544D01*
X105109110Y-94419523D01*
X104989523Y-94539110D01*
X104899544Y-94682309D01*
X104843686Y-94841943D01*
X104824751Y-95009999D01*
X104824751Y-95010000D01*
X95500500Y-95010000D01*
X95500500Y-93340000D01*
X124944751Y-93340000D01*
X124963686Y-93508056D01*
X124963686Y-93508058D01*
X124963687Y-93508059D01*
X125019544Y-93667690D01*
X125109523Y-93810890D01*
X125229110Y-93930477D01*
X125372310Y-94020456D01*
X125531941Y-94076313D01*
X125643980Y-94088937D01*
X125699999Y-94095249D01*
X125700000Y-94095249D01*
X125700001Y-94095249D01*
X125742014Y-94090515D01*
X125868059Y-94076313D01*
X126027690Y-94020456D01*
X126170890Y-93930477D01*
X126290477Y-93810890D01*
X126380456Y-93667690D01*
X126436313Y-93508059D01*
X126455249Y-93340000D01*
X126436313Y-93171941D01*
X126380456Y-93012310D01*
X126290477Y-92869110D01*
X126170890Y-92749523D01*
X126027690Y-92659544D01*
X125868059Y-92603687D01*
X125868058Y-92603686D01*
X125868056Y-92603686D01*
X125700001Y-92584751D01*
X125699999Y-92584751D01*
X125531943Y-92603686D01*
X125372309Y-92659544D01*
X125229110Y-92749523D01*
X125109523Y-92869110D01*
X125019544Y-93012309D01*
X124963686Y-93171943D01*
X124944751Y-93339999D01*
X124944751Y-93340000D01*
X95500500Y-93340000D01*
X95500500Y-90750000D01*
X102384751Y-90750000D01*
X102403686Y-90918056D01*
X102403686Y-90918058D01*
X102403687Y-90918059D01*
X102459544Y-91077690D01*
X102549523Y-91220890D01*
X102669110Y-91340477D01*
X102812310Y-91430456D01*
X102971941Y-91486313D01*
X103083980Y-91498937D01*
X103139999Y-91505249D01*
X103140000Y-91505249D01*
X103140001Y-91505249D01*
X103182014Y-91500515D01*
X103308059Y-91486313D01*
X103467690Y-91430456D01*
X103610890Y-91340477D01*
X103730477Y-91220890D01*
X103820456Y-91077690D01*
X103876313Y-90918059D01*
X103895249Y-90750000D01*
X103876313Y-90581941D01*
X103820456Y-90422310D01*
X103730477Y-90279110D01*
X103610890Y-90159523D01*
X103468416Y-90070000D01*
X109304751Y-90070000D01*
X109323686Y-90238056D01*
X109323686Y-90238058D01*
X109323687Y-90238059D01*
X109379544Y-90397690D01*
X109469523Y-90540890D01*
X109589110Y-90660477D01*
X109732310Y-90750456D01*
X109891941Y-90806313D01*
X110003980Y-90818937D01*
X110059999Y-90825249D01*
X110060000Y-90825249D01*
X110060001Y-90825249D01*
X110102014Y-90820515D01*
X110228059Y-90806313D01*
X110387690Y-90750456D01*
X110530890Y-90660477D01*
X110650477Y-90540890D01*
X110740456Y-90397690D01*
X110796313Y-90238059D01*
X110815249Y-90070000D01*
X110796313Y-89901941D01*
X110740456Y-89742310D01*
X110688737Y-89660000D01*
X116114751Y-89660000D01*
X116133686Y-89828056D01*
X116133686Y-89828058D01*
X116133687Y-89828059D01*
X116189544Y-89987690D01*
X116279523Y-90130890D01*
X116399110Y-90250477D01*
X116542310Y-90340456D01*
X116701941Y-90396313D01*
X116813980Y-90408937D01*
X116869999Y-90415249D01*
X116870000Y-90415249D01*
X116870001Y-90415249D01*
X116912014Y-90410515D01*
X117038059Y-90396313D01*
X117197690Y-90340456D01*
X117340890Y-90250477D01*
X117355182Y-90236185D01*
X134644751Y-90236185D01*
X134663686Y-90404241D01*
X134663686Y-90404243D01*
X134663687Y-90404244D01*
X134719544Y-90563875D01*
X134809523Y-90707075D01*
X134929110Y-90826662D01*
X135072310Y-90916641D01*
X135231941Y-90972498D01*
X135343980Y-90985122D01*
X135399999Y-90991434D01*
X135400000Y-90991434D01*
X135400001Y-90991434D01*
X135442014Y-90986700D01*
X135568059Y-90972498D01*
X135727690Y-90916641D01*
X135870890Y-90826662D01*
X135990477Y-90707075D01*
X136080456Y-90563875D01*
X136136313Y-90404244D01*
X136155249Y-90236185D01*
X136136313Y-90068126D01*
X136080456Y-89908495D01*
X135990477Y-89765295D01*
X135870890Y-89645708D01*
X135727690Y-89555729D01*
X135682739Y-89540000D01*
X136434751Y-89540000D01*
X136453686Y-89708056D01*
X136453686Y-89708058D01*
X136453687Y-89708059D01*
X136509544Y-89867690D01*
X136599523Y-90010890D01*
X136719110Y-90130477D01*
X136862310Y-90220456D01*
X137021941Y-90276313D01*
X137133980Y-90288937D01*
X137189999Y-90295249D01*
X137190000Y-90295249D01*
X137190001Y-90295249D01*
X137232014Y-90290515D01*
X137358059Y-90276313D01*
X137517690Y-90220456D01*
X137660890Y-90130477D01*
X137780477Y-90010890D01*
X137870456Y-89867690D01*
X137926313Y-89708059D01*
X137945249Y-89540000D01*
X137940727Y-89499871D01*
X137926313Y-89371943D01*
X137926313Y-89371941D01*
X137870456Y-89212310D01*
X137780477Y-89069110D01*
X137660890Y-88949523D01*
X137517690Y-88859544D01*
X137459371Y-88839137D01*
X137395646Y-88795690D01*
X137362181Y-88726200D01*
X137367944Y-88649288D01*
X137411392Y-88585562D01*
X137459369Y-88557861D01*
X137537690Y-88530456D01*
X137680890Y-88440477D01*
X137800477Y-88320890D01*
X137890456Y-88177690D01*
X137946313Y-88018059D01*
X137965249Y-87850000D01*
X137946313Y-87681941D01*
X137890456Y-87522310D01*
X137800477Y-87379110D01*
X137680890Y-87259523D01*
X137537690Y-87169544D01*
X137378059Y-87113687D01*
X137378058Y-87113686D01*
X137378056Y-87113686D01*
X137210001Y-87094751D01*
X137209999Y-87094751D01*
X137041943Y-87113686D01*
X136882309Y-87169544D01*
X136739110Y-87259523D01*
X136619523Y-87379110D01*
X136529544Y-87522309D01*
X136473686Y-87681943D01*
X136454751Y-87849999D01*
X136454751Y-87850000D01*
X136473686Y-88018056D01*
X136473686Y-88018058D01*
X136473687Y-88018059D01*
X136529544Y-88177690D01*
X136619523Y-88320890D01*
X136739110Y-88440477D01*
X136882310Y-88530456D01*
X136940627Y-88550862D01*
X137004353Y-88594308D01*
X137037818Y-88663797D01*
X137032055Y-88740710D01*
X136988608Y-88804437D01*
X136940629Y-88832138D01*
X136862310Y-88859543D01*
X136719110Y-88949523D01*
X136599523Y-89069110D01*
X136509544Y-89212309D01*
X136453686Y-89371943D01*
X136434751Y-89539999D01*
X136434751Y-89540000D01*
X135682739Y-89540000D01*
X135568059Y-89499872D01*
X135568058Y-89499871D01*
X135568056Y-89499871D01*
X135400001Y-89480936D01*
X135399999Y-89480936D01*
X135231943Y-89499871D01*
X135072309Y-89555729D01*
X134929110Y-89645708D01*
X134809523Y-89765295D01*
X134719544Y-89908494D01*
X134663686Y-90068128D01*
X134644751Y-90236184D01*
X134644751Y-90236185D01*
X117355182Y-90236185D01*
X117460477Y-90130890D01*
X117550456Y-89987690D01*
X117606313Y-89828059D01*
X117625249Y-89660000D01*
X117606313Y-89491941D01*
X117550456Y-89332310D01*
X117460477Y-89189110D01*
X117340890Y-89069523D01*
X117197690Y-88979544D01*
X117038059Y-88923687D01*
X117038058Y-88923686D01*
X117038056Y-88923686D01*
X116870001Y-88904751D01*
X116869999Y-88904751D01*
X116701943Y-88923686D01*
X116542309Y-88979544D01*
X116399110Y-89069523D01*
X116279523Y-89189110D01*
X116189544Y-89332309D01*
X116133686Y-89491943D01*
X116114751Y-89659999D01*
X116114751Y-89660000D01*
X110688737Y-89660000D01*
X110650477Y-89599110D01*
X110530890Y-89479523D01*
X110387690Y-89389544D01*
X110228059Y-89333687D01*
X110228058Y-89333686D01*
X110228056Y-89333686D01*
X110060001Y-89314751D01*
X110059999Y-89314751D01*
X109891943Y-89333686D01*
X109732309Y-89389544D01*
X109589110Y-89479523D01*
X109469523Y-89599110D01*
X109379544Y-89742309D01*
X109323686Y-89901943D01*
X109304751Y-90069999D01*
X109304751Y-90070000D01*
X103468416Y-90070000D01*
X103467690Y-90069544D01*
X103308059Y-90013687D01*
X103308058Y-90013686D01*
X103308056Y-90013686D01*
X103140001Y-89994751D01*
X103139999Y-89994751D01*
X102971943Y-90013686D01*
X102812309Y-90069544D01*
X102669110Y-90159523D01*
X102549523Y-90279110D01*
X102459544Y-90422309D01*
X102403686Y-90581943D01*
X102384751Y-90749999D01*
X102384751Y-90750000D01*
X95500500Y-90750000D01*
X95500500Y-87940000D01*
X117884751Y-87940000D01*
X117903686Y-88108056D01*
X117903686Y-88108058D01*
X117903687Y-88108059D01*
X117959544Y-88267690D01*
X118049523Y-88410890D01*
X118169110Y-88530477D01*
X118312310Y-88620456D01*
X118471941Y-88676313D01*
X118583980Y-88688937D01*
X118639999Y-88695249D01*
X118640000Y-88695249D01*
X118640001Y-88695249D01*
X118682014Y-88690515D01*
X118808059Y-88676313D01*
X118967690Y-88620456D01*
X119110890Y-88530477D01*
X119230477Y-88410890D01*
X119320456Y-88267690D01*
X119376313Y-88108059D01*
X119395249Y-87940000D01*
X119376313Y-87771941D01*
X119320456Y-87612310D01*
X119230477Y-87469110D01*
X119110890Y-87349523D01*
X118967690Y-87259544D01*
X118808059Y-87203687D01*
X118808058Y-87203686D01*
X118808056Y-87203686D01*
X118640001Y-87184751D01*
X118639999Y-87184751D01*
X118471943Y-87203686D01*
X118312309Y-87259544D01*
X118169110Y-87349523D01*
X118049523Y-87469110D01*
X117959544Y-87612309D01*
X117903686Y-87771943D01*
X117884751Y-87939999D01*
X117884751Y-87940000D01*
X95500500Y-87940000D01*
X95500500Y-87130000D01*
X132174751Y-87130000D01*
X132193686Y-87298056D01*
X132193686Y-87298058D01*
X132193687Y-87298059D01*
X132249544Y-87457690D01*
X132339523Y-87600890D01*
X132459110Y-87720477D01*
X132602310Y-87810456D01*
X132761941Y-87866313D01*
X132873980Y-87878937D01*
X132929999Y-87885249D01*
X132930000Y-87885249D01*
X132930001Y-87885249D01*
X132972014Y-87880515D01*
X133098059Y-87866313D01*
X133257690Y-87810456D01*
X133400890Y-87720477D01*
X133520477Y-87600890D01*
X133610456Y-87457690D01*
X133666313Y-87298059D01*
X133685249Y-87130000D01*
X133666313Y-86961941D01*
X133610456Y-86802310D01*
X133520477Y-86659110D01*
X133400890Y-86539523D01*
X133257690Y-86449544D01*
X133098059Y-86393687D01*
X133098058Y-86393686D01*
X133098056Y-86393686D01*
X132930001Y-86374751D01*
X132929999Y-86374751D01*
X132761943Y-86393686D01*
X132602309Y-86449544D01*
X132459110Y-86539523D01*
X132339523Y-86659110D01*
X132249544Y-86802309D01*
X132193686Y-86961943D01*
X132174751Y-87129999D01*
X132174751Y-87130000D01*
X95500500Y-87130000D01*
X95500500Y-86280000D01*
X118624751Y-86280000D01*
X118643686Y-86448056D01*
X118643686Y-86448058D01*
X118643687Y-86448059D01*
X118699544Y-86607690D01*
X118789523Y-86750890D01*
X118909110Y-86870477D01*
X119052310Y-86960456D01*
X119211941Y-87016313D01*
X119323980Y-87028937D01*
X119379999Y-87035249D01*
X119380000Y-87035249D01*
X119380001Y-87035249D01*
X119422014Y-87030515D01*
X119548059Y-87016313D01*
X119707690Y-86960456D01*
X119850890Y-86870477D01*
X119970477Y-86750890D01*
X120060456Y-86607690D01*
X120116313Y-86448059D01*
X120132996Y-86300000D01*
X127464751Y-86300000D01*
X127483686Y-86468056D01*
X127483686Y-86468058D01*
X127483687Y-86468059D01*
X127539544Y-86627690D01*
X127629523Y-86770890D01*
X127749110Y-86890477D01*
X127892310Y-86980456D01*
X128051941Y-87036313D01*
X128163980Y-87048937D01*
X128219999Y-87055249D01*
X128220000Y-87055249D01*
X128220001Y-87055249D01*
X128262014Y-87050515D01*
X128388059Y-87036313D01*
X128547690Y-86980456D01*
X128690890Y-86890477D01*
X128810477Y-86770890D01*
X128900456Y-86627690D01*
X128956313Y-86468059D01*
X128975249Y-86300000D01*
X128956313Y-86131941D01*
X128900456Y-85972310D01*
X128810477Y-85829110D01*
X128690890Y-85709523D01*
X128547690Y-85619544D01*
X128388059Y-85563687D01*
X128388058Y-85563686D01*
X128388056Y-85563686D01*
X128220001Y-85544751D01*
X128219999Y-85544751D01*
X128051943Y-85563686D01*
X127892309Y-85619544D01*
X127749110Y-85709523D01*
X127629523Y-85829110D01*
X127539544Y-85972309D01*
X127483686Y-86131943D01*
X127464751Y-86299999D01*
X127464751Y-86300000D01*
X120132996Y-86300000D01*
X120135249Y-86280000D01*
X120116313Y-86111941D01*
X120060456Y-85952310D01*
X119970477Y-85809110D01*
X119850890Y-85689523D01*
X119707690Y-85599544D01*
X119548059Y-85543687D01*
X119548058Y-85543686D01*
X119548056Y-85543686D01*
X119380001Y-85524751D01*
X119379999Y-85524751D01*
X119211943Y-85543686D01*
X119052309Y-85599544D01*
X118909110Y-85689523D01*
X118789523Y-85809110D01*
X118699544Y-85952309D01*
X118643686Y-86111943D01*
X118624751Y-86279999D01*
X118624751Y-86280000D01*
X95500500Y-86280000D01*
X95500500Y-85270000D01*
X114504751Y-85270000D01*
X114523686Y-85438056D01*
X114523686Y-85438058D01*
X114523687Y-85438059D01*
X114579544Y-85597690D01*
X114669523Y-85740890D01*
X114789110Y-85860477D01*
X114932310Y-85950456D01*
X115091941Y-86006313D01*
X115196188Y-86018059D01*
X115259999Y-86025249D01*
X115260000Y-86025249D01*
X115260001Y-86025249D01*
X115302014Y-86020515D01*
X115428059Y-86006313D01*
X115587690Y-85950456D01*
X115730890Y-85860477D01*
X115850477Y-85740890D01*
X115940456Y-85597690D01*
X115996313Y-85438059D01*
X116001728Y-85390000D01*
X135974751Y-85390000D01*
X135993686Y-85558056D01*
X135993686Y-85558058D01*
X135993687Y-85558059D01*
X136049544Y-85717690D01*
X136139523Y-85860890D01*
X136259110Y-85980477D01*
X136402310Y-86070456D01*
X136561941Y-86126313D01*
X136673980Y-86138937D01*
X136729999Y-86145249D01*
X136730000Y-86145249D01*
X136730001Y-86145249D01*
X136772014Y-86140515D01*
X136898059Y-86126313D01*
X137057690Y-86070456D01*
X137200890Y-85980477D01*
X137320477Y-85860890D01*
X137327320Y-85850000D01*
X138638566Y-85850000D01*
X138657501Y-86018056D01*
X138657501Y-86018058D01*
X138657502Y-86018059D01*
X138713359Y-86177690D01*
X138803338Y-86320890D01*
X138922925Y-86440477D01*
X139066125Y-86530456D01*
X139225756Y-86586313D01*
X139337795Y-86598937D01*
X139393814Y-86605249D01*
X139393815Y-86605249D01*
X139393816Y-86605249D01*
X139435829Y-86600515D01*
X139561874Y-86586313D01*
X139721505Y-86530456D01*
X139864705Y-86440477D01*
X139984292Y-86320890D01*
X140074271Y-86177690D01*
X140130128Y-86018059D01*
X140149064Y-85850000D01*
X140130128Y-85681941D01*
X140074271Y-85522310D01*
X139984292Y-85379110D01*
X139864705Y-85259523D01*
X139721505Y-85169544D01*
X139561874Y-85113687D01*
X139561873Y-85113686D01*
X139561871Y-85113686D01*
X139393816Y-85094751D01*
X139393814Y-85094751D01*
X139225758Y-85113686D01*
X139066124Y-85169544D01*
X138922925Y-85259523D01*
X138803338Y-85379110D01*
X138713359Y-85522309D01*
X138657501Y-85681943D01*
X138638566Y-85849999D01*
X138638566Y-85850000D01*
X137327320Y-85850000D01*
X137410456Y-85717690D01*
X137466313Y-85558059D01*
X137485249Y-85390000D01*
X137466313Y-85221941D01*
X137410456Y-85062310D01*
X137320477Y-84919110D01*
X137200890Y-84799523D01*
X137057690Y-84709544D01*
X136898059Y-84653687D01*
X136898058Y-84653686D01*
X136898056Y-84653686D01*
X136730001Y-84634751D01*
X136729999Y-84634751D01*
X136561943Y-84653686D01*
X136402309Y-84709544D01*
X136259110Y-84799523D01*
X136139523Y-84919110D01*
X136049544Y-85062309D01*
X135993686Y-85221943D01*
X135974751Y-85389999D01*
X135974751Y-85390000D01*
X116001728Y-85390000D01*
X116015249Y-85270000D01*
X115996313Y-85101941D01*
X115940456Y-84942310D01*
X115850477Y-84799110D01*
X115730890Y-84679523D01*
X115587690Y-84589544D01*
X115428059Y-84533687D01*
X115428058Y-84533686D01*
X115428056Y-84533686D01*
X115260001Y-84514751D01*
X115259999Y-84514751D01*
X115091943Y-84533686D01*
X114932309Y-84589544D01*
X114789110Y-84679523D01*
X114669523Y-84799110D01*
X114579544Y-84942309D01*
X114523686Y-85101943D01*
X114504751Y-85269999D01*
X114504751Y-85270000D01*
X95500500Y-85270000D01*
X95500500Y-84370000D01*
X111534751Y-84370000D01*
X111553686Y-84538056D01*
X111553686Y-84538058D01*
X111553687Y-84538059D01*
X111609544Y-84697690D01*
X111699523Y-84840890D01*
X111819110Y-84960477D01*
X111962310Y-85050456D01*
X112121941Y-85106313D01*
X112233980Y-85118937D01*
X112289999Y-85125249D01*
X112290000Y-85125249D01*
X112290001Y-85125249D01*
X112332014Y-85120515D01*
X112458059Y-85106313D01*
X112617690Y-85050456D01*
X112760890Y-84960477D01*
X112880477Y-84840890D01*
X112970456Y-84697690D01*
X113026313Y-84538059D01*
X113045249Y-84370000D01*
X113030561Y-84239646D01*
X148229500Y-84239646D01*
X148268856Y-84424803D01*
X148268857Y-84424805D01*
X148345847Y-84597727D01*
X148345848Y-84597729D01*
X148345849Y-84597730D01*
X148427086Y-84709544D01*
X148457113Y-84750872D01*
X148597779Y-84877530D01*
X148597783Y-84877532D01*
X148597784Y-84877533D01*
X148761716Y-84972179D01*
X148941744Y-85030674D01*
X148988765Y-85035616D01*
X149082806Y-85045500D01*
X149082808Y-85045500D01*
X150277194Y-85045500D01*
X150347724Y-85038087D01*
X150418256Y-85030674D01*
X150598284Y-84972179D01*
X150762216Y-84877533D01*
X150762218Y-84877531D01*
X150762220Y-84877530D01*
X150822563Y-84823195D01*
X150902888Y-84750871D01*
X151014151Y-84597730D01*
X151091144Y-84424803D01*
X151130500Y-84239646D01*
X152659500Y-84239646D01*
X152698856Y-84424803D01*
X152698857Y-84424805D01*
X152775847Y-84597727D01*
X152775848Y-84597729D01*
X152775849Y-84597730D01*
X152857086Y-84709544D01*
X152887113Y-84750872D01*
X153027779Y-84877530D01*
X153027783Y-84877532D01*
X153027784Y-84877533D01*
X153191716Y-84972179D01*
X153371744Y-85030674D01*
X153418765Y-85035616D01*
X153512806Y-85045500D01*
X153512808Y-85045500D01*
X154207194Y-85045500D01*
X154277724Y-85038087D01*
X154348256Y-85030674D01*
X154528284Y-84972179D01*
X154692216Y-84877533D01*
X154692218Y-84877531D01*
X154692220Y-84877530D01*
X154752563Y-84823195D01*
X154832888Y-84750871D01*
X154944151Y-84597730D01*
X155021144Y-84424803D01*
X155060500Y-84239646D01*
X155060500Y-84050354D01*
X155060500Y-84050351D01*
X155047951Y-83991317D01*
X155021144Y-83865197D01*
X154955049Y-83716748D01*
X154944152Y-83692272D01*
X154884725Y-83610477D01*
X154832888Y-83539129D01*
X154832886Y-83539127D01*
X154692220Y-83412469D01*
X154588492Y-83352582D01*
X154528284Y-83317821D01*
X154467417Y-83298044D01*
X154348254Y-83259325D01*
X154207194Y-83244500D01*
X154207192Y-83244500D01*
X153512808Y-83244500D01*
X153512806Y-83244500D01*
X153371745Y-83259325D01*
X153191721Y-83317819D01*
X153191714Y-83317822D01*
X153027779Y-83412469D01*
X152887113Y-83539127D01*
X152775847Y-83692272D01*
X152698857Y-83865194D01*
X152659500Y-84050351D01*
X152659500Y-84050354D01*
X152659500Y-84239646D01*
X151130500Y-84239646D01*
X151130500Y-84050354D01*
X151130500Y-84050351D01*
X151117951Y-83991317D01*
X151091144Y-83865197D01*
X151025049Y-83716748D01*
X151014152Y-83692272D01*
X150954725Y-83610477D01*
X150902888Y-83539129D01*
X150902886Y-83539127D01*
X150762220Y-83412469D01*
X150724438Y-83390655D01*
X150658489Y-83352580D01*
X150603953Y-83298044D01*
X150583991Y-83223544D01*
X150603953Y-83149044D01*
X150614782Y-83132837D01*
X150620447Y-83125453D01*
X150620451Y-83125451D01*
X150712698Y-83005233D01*
X150770687Y-82865236D01*
X150770687Y-82865235D01*
X150770688Y-82865233D01*
X150790466Y-82715002D01*
X150790466Y-82714997D01*
X150770688Y-82564766D01*
X150712699Y-82424767D01*
X150638208Y-82327690D01*
X150620451Y-82304549D01*
X150500233Y-82212302D01*
X150500232Y-82212301D01*
X150500232Y-82212300D01*
X150360233Y-82154311D01*
X150247725Y-82139500D01*
X150247720Y-82139500D01*
X150172280Y-82139500D01*
X150172274Y-82139500D01*
X150059766Y-82154311D01*
X149919767Y-82212300D01*
X149919767Y-82212301D01*
X149799551Y-82304547D01*
X149799547Y-82304551D01*
X149707301Y-82424767D01*
X149707300Y-82424767D01*
X149649311Y-82564766D01*
X149629534Y-82714997D01*
X149629534Y-82715002D01*
X149649311Y-82865233D01*
X149707300Y-83005232D01*
X149712184Y-83013690D01*
X149710946Y-83014404D01*
X149736481Y-83076057D01*
X149726411Y-83152524D01*
X149679456Y-83213713D01*
X149608198Y-83243226D01*
X149588755Y-83244500D01*
X149082806Y-83244500D01*
X148941745Y-83259325D01*
X148761721Y-83317819D01*
X148761714Y-83317822D01*
X148597779Y-83412469D01*
X148457113Y-83539127D01*
X148345847Y-83692272D01*
X148268857Y-83865194D01*
X148229500Y-84050351D01*
X148229500Y-84050354D01*
X148229500Y-84239646D01*
X113030561Y-84239646D01*
X113026313Y-84201941D01*
X112970456Y-84042310D01*
X112880477Y-83899110D01*
X112781726Y-83800359D01*
X112743162Y-83733564D01*
X112743162Y-83656436D01*
X112781726Y-83589641D01*
X112880476Y-83490891D01*
X112880477Y-83490890D01*
X112970456Y-83347690D01*
X113026313Y-83188059D01*
X113045249Y-83020000D01*
X113044618Y-83014404D01*
X113027811Y-82865236D01*
X113026313Y-82851941D01*
X112970456Y-82692310D01*
X112925713Y-82621102D01*
X112902979Y-82547401D01*
X112920142Y-82472206D01*
X112925714Y-82462555D01*
X113010455Y-82327692D01*
X113010456Y-82327690D01*
X113066313Y-82168059D01*
X113085249Y-82000000D01*
X113066313Y-81831941D01*
X113010456Y-81672310D01*
X112920477Y-81529110D01*
X112800890Y-81409523D01*
X112657690Y-81319544D01*
X112498059Y-81263687D01*
X112498058Y-81263686D01*
X112498056Y-81263686D01*
X112330001Y-81244751D01*
X112329999Y-81244751D01*
X112161943Y-81263686D01*
X112002309Y-81319544D01*
X111859110Y-81409523D01*
X111739523Y-81529110D01*
X111649544Y-81672309D01*
X111593686Y-81831943D01*
X111574751Y-81999999D01*
X111574751Y-82000000D01*
X111593686Y-82168056D01*
X111649544Y-82327690D01*
X111694286Y-82398897D01*
X111717020Y-82472599D01*
X111699857Y-82547793D01*
X111694286Y-82557443D01*
X111609544Y-82692308D01*
X111553686Y-82851943D01*
X111534751Y-83019999D01*
X111534751Y-83020000D01*
X111553686Y-83188056D01*
X111553686Y-83188058D01*
X111553687Y-83188059D01*
X111609544Y-83347690D01*
X111699523Y-83490890D01*
X111699524Y-83490891D01*
X111798274Y-83589641D01*
X111836838Y-83656436D01*
X111836838Y-83733564D01*
X111798274Y-83800359D01*
X111699523Y-83899110D01*
X111609544Y-84042309D01*
X111553686Y-84201943D01*
X111534751Y-84369999D01*
X111534751Y-84370000D01*
X95500500Y-84370000D01*
X95500500Y-81100000D01*
X138454751Y-81100000D01*
X138473686Y-81268056D01*
X138473686Y-81268058D01*
X138473687Y-81268059D01*
X138529544Y-81427690D01*
X138619523Y-81570890D01*
X138739110Y-81690477D01*
X138882310Y-81780456D01*
X139041941Y-81836313D01*
X139153980Y-81848937D01*
X139209999Y-81855249D01*
X139210000Y-81855249D01*
X139210001Y-81855249D01*
X139252014Y-81850515D01*
X139378059Y-81836313D01*
X139537690Y-81780456D01*
X139680890Y-81690477D01*
X139800477Y-81570890D01*
X139890456Y-81427690D01*
X139946313Y-81268059D01*
X139965249Y-81100000D01*
X139946313Y-80931941D01*
X139890456Y-80772310D01*
X139800477Y-80629110D01*
X139680890Y-80509523D01*
X139537690Y-80419544D01*
X139378059Y-80363687D01*
X139378058Y-80363686D01*
X139378056Y-80363686D01*
X139210001Y-80344751D01*
X139209999Y-80344751D01*
X139041943Y-80363686D01*
X138882309Y-80419544D01*
X138739110Y-80509523D01*
X138619523Y-80629110D01*
X138529544Y-80772309D01*
X138473686Y-80931943D01*
X138454751Y-81099999D01*
X138454751Y-81100000D01*
X95500500Y-81100000D01*
X95500500Y-78500000D01*
X121114751Y-78500000D01*
X121133686Y-78668056D01*
X121133686Y-78668058D01*
X121133687Y-78668059D01*
X121189544Y-78827690D01*
X121279523Y-78970890D01*
X121399110Y-79090477D01*
X121542310Y-79180456D01*
X121701941Y-79236313D01*
X121813980Y-79248937D01*
X121869999Y-79255249D01*
X121870000Y-79255249D01*
X121870001Y-79255249D01*
X121912014Y-79250515D01*
X122038059Y-79236313D01*
X122197690Y-79180456D01*
X122340890Y-79090477D01*
X122444704Y-78986663D01*
X122511498Y-78948098D01*
X122588626Y-78948098D01*
X122599250Y-78951374D01*
X122641941Y-78966313D01*
X122725970Y-78975781D01*
X122809999Y-78985249D01*
X122810000Y-78985249D01*
X122810001Y-78985249D01*
X122852014Y-78980515D01*
X122978059Y-78966313D01*
X123110186Y-78920079D01*
X123187097Y-78914317D01*
X123256587Y-78947782D01*
X123300035Y-79011508D01*
X123307459Y-79044036D01*
X123323686Y-79188056D01*
X123323686Y-79188058D01*
X123323687Y-79188059D01*
X123379544Y-79347690D01*
X123469523Y-79490890D01*
X123589110Y-79610477D01*
X123732310Y-79700456D01*
X123891941Y-79756313D01*
X124003980Y-79768937D01*
X124059999Y-79775249D01*
X124060000Y-79775249D01*
X124060001Y-79775249D01*
X124102014Y-79770515D01*
X124228059Y-79756313D01*
X124387690Y-79700456D01*
X124530890Y-79610477D01*
X124650477Y-79490890D01*
X124740456Y-79347690D01*
X124796313Y-79188059D01*
X124815249Y-79020000D01*
X124796313Y-78851941D01*
X124740456Y-78692310D01*
X124701304Y-78630000D01*
X125234751Y-78630000D01*
X125253686Y-78798056D01*
X125253686Y-78798058D01*
X125253687Y-78798059D01*
X125309544Y-78957690D01*
X125399523Y-79100890D01*
X125519110Y-79220477D01*
X125662310Y-79310456D01*
X125821941Y-79366313D01*
X125933980Y-79378937D01*
X125989999Y-79385249D01*
X125990000Y-79385249D01*
X125990001Y-79385249D01*
X126032014Y-79380515D01*
X126158059Y-79366313D01*
X126317690Y-79310456D01*
X126460890Y-79220477D01*
X126580477Y-79100890D01*
X126670456Y-78957690D01*
X126726313Y-78798059D01*
X126745249Y-78630000D01*
X126726313Y-78461941D01*
X126670456Y-78302310D01*
X126580477Y-78159110D01*
X126460890Y-78039523D01*
X126317690Y-77949544D01*
X126158059Y-77893687D01*
X126158058Y-77893686D01*
X126158056Y-77893686D01*
X125990001Y-77874751D01*
X125989999Y-77874751D01*
X125821943Y-77893686D01*
X125662309Y-77949544D01*
X125519110Y-78039523D01*
X125399523Y-78159110D01*
X125309544Y-78302309D01*
X125253686Y-78461943D01*
X125234751Y-78629999D01*
X125234751Y-78630000D01*
X124701304Y-78630000D01*
X124650477Y-78549110D01*
X124530890Y-78429523D01*
X124387690Y-78339544D01*
X124228059Y-78283687D01*
X124228058Y-78283686D01*
X124228056Y-78283686D01*
X124060001Y-78264751D01*
X124059999Y-78264751D01*
X123891943Y-78283686D01*
X123891939Y-78283687D01*
X123759813Y-78329919D01*
X123682900Y-78335682D01*
X123613411Y-78302217D01*
X123569964Y-78238490D01*
X123562541Y-78205966D01*
X123546313Y-78061941D01*
X123490456Y-77902310D01*
X123400477Y-77759110D01*
X123280890Y-77639523D01*
X123137690Y-77549544D01*
X122978059Y-77493687D01*
X122978058Y-77493686D01*
X122978056Y-77493686D01*
X122810001Y-77474751D01*
X122809999Y-77474751D01*
X122641943Y-77493686D01*
X122482309Y-77549544D01*
X122339110Y-77639523D01*
X122235296Y-77743337D01*
X122168501Y-77781901D01*
X122091373Y-77781901D01*
X122080727Y-77778617D01*
X122038060Y-77763687D01*
X122038056Y-77763686D01*
X121870001Y-77744751D01*
X121869999Y-77744751D01*
X121701943Y-77763686D01*
X121542309Y-77819544D01*
X121399110Y-77909523D01*
X121279523Y-78029110D01*
X121189544Y-78172309D01*
X121133686Y-78331943D01*
X121114751Y-78499999D01*
X121114751Y-78500000D01*
X95500500Y-78500000D01*
X95500500Y-76850000D01*
X133984751Y-76850000D01*
X134003686Y-77018056D01*
X134003686Y-77018058D01*
X134003687Y-77018059D01*
X134059544Y-77177690D01*
X134149523Y-77320890D01*
X134269110Y-77440477D01*
X134412310Y-77530456D01*
X134571941Y-77586313D01*
X134683980Y-77598937D01*
X134739999Y-77605249D01*
X134740000Y-77605249D01*
X134740001Y-77605249D01*
X134782014Y-77600515D01*
X134908059Y-77586313D01*
X135067690Y-77530456D01*
X135210890Y-77440477D01*
X135330477Y-77320890D01*
X135420456Y-77177690D01*
X135476313Y-77018059D01*
X135495249Y-76850000D01*
X135494122Y-76840000D01*
X137664751Y-76840000D01*
X137683686Y-77008056D01*
X137683686Y-77008058D01*
X137683687Y-77008059D01*
X137739544Y-77167690D01*
X137829523Y-77310890D01*
X137949110Y-77430477D01*
X138092310Y-77520456D01*
X138251941Y-77576313D01*
X138340692Y-77586313D01*
X138419999Y-77595249D01*
X138420000Y-77595249D01*
X138420001Y-77595249D01*
X138462014Y-77590515D01*
X138588059Y-77576313D01*
X138747690Y-77520456D01*
X138890890Y-77430477D01*
X139010477Y-77310890D01*
X139100456Y-77167690D01*
X139156313Y-77008059D01*
X139175249Y-76840000D01*
X139156313Y-76671941D01*
X139100456Y-76512310D01*
X139010477Y-76369110D01*
X138890890Y-76249523D01*
X138747690Y-76159544D01*
X138588059Y-76103687D01*
X138588058Y-76103686D01*
X138588056Y-76103686D01*
X138420001Y-76084751D01*
X138419999Y-76084751D01*
X138251943Y-76103686D01*
X138092309Y-76159544D01*
X137949110Y-76249523D01*
X137829523Y-76369110D01*
X137739544Y-76512309D01*
X137683686Y-76671943D01*
X137664751Y-76839999D01*
X137664751Y-76840000D01*
X135494122Y-76840000D01*
X135476313Y-76681941D01*
X135420456Y-76522310D01*
X135330477Y-76379110D01*
X135210890Y-76259523D01*
X135067690Y-76169544D01*
X134908059Y-76113687D01*
X134908058Y-76113686D01*
X134908056Y-76113686D01*
X134740001Y-76094751D01*
X134739999Y-76094751D01*
X134571943Y-76113686D01*
X134412309Y-76169544D01*
X134269110Y-76259523D01*
X134149523Y-76379110D01*
X134059544Y-76522309D01*
X134003686Y-76681943D01*
X133984751Y-76849999D01*
X133984751Y-76850000D01*
X95500500Y-76850000D01*
X95500500Y-75990000D01*
X118744751Y-75990000D01*
X118763686Y-76158056D01*
X118763686Y-76158058D01*
X118763687Y-76158059D01*
X118819544Y-76317690D01*
X118909523Y-76460890D01*
X119029110Y-76580477D01*
X119172310Y-76670456D01*
X119331941Y-76726313D01*
X119443980Y-76738937D01*
X119499999Y-76745249D01*
X119500000Y-76745249D01*
X119500001Y-76745249D01*
X119542014Y-76740515D01*
X119668059Y-76726313D01*
X119827690Y-76670456D01*
X119970890Y-76580477D01*
X120090477Y-76460890D01*
X120180456Y-76317690D01*
X120236313Y-76158059D01*
X120255249Y-75990000D01*
X120240601Y-75860000D01*
X129574751Y-75860000D01*
X129593686Y-76028056D01*
X129593686Y-76028058D01*
X129593687Y-76028059D01*
X129649544Y-76187690D01*
X129739523Y-76330890D01*
X129859110Y-76450477D01*
X130002310Y-76540456D01*
X130161941Y-76596313D01*
X130273980Y-76608937D01*
X130329999Y-76615249D01*
X130330000Y-76615249D01*
X130330001Y-76615249D01*
X130372014Y-76610515D01*
X130498059Y-76596313D01*
X130657690Y-76540456D01*
X130800890Y-76450477D01*
X130920477Y-76330890D01*
X131010456Y-76187690D01*
X131066313Y-76028059D01*
X131085249Y-75860000D01*
X131066313Y-75691941D01*
X131034018Y-75599648D01*
X148229500Y-75599648D01*
X148246231Y-75678360D01*
X148268856Y-75784803D01*
X148268857Y-75784805D01*
X148345847Y-75957727D01*
X148345848Y-75957729D01*
X148345849Y-75957730D01*
X148369294Y-75990000D01*
X148457113Y-76110872D01*
X148597779Y-76237530D01*
X148597783Y-76237532D01*
X148597784Y-76237533D01*
X148761716Y-76332179D01*
X148941744Y-76390674D01*
X148956511Y-76392226D01*
X149082806Y-76405500D01*
X149082808Y-76405500D01*
X149588755Y-76405500D01*
X149663255Y-76425462D01*
X149717793Y-76480000D01*
X149737755Y-76554500D01*
X149717793Y-76629000D01*
X149707576Y-76644290D01*
X149707300Y-76644767D01*
X149649311Y-76784766D01*
X149629534Y-76934997D01*
X149629534Y-76935002D01*
X149649311Y-77085233D01*
X149707300Y-77225232D01*
X149773029Y-77310890D01*
X149799549Y-77345451D01*
X149919767Y-77437698D01*
X149919767Y-77437699D01*
X150059766Y-77495688D01*
X150147309Y-77507212D01*
X150172280Y-77510500D01*
X150247720Y-77510500D01*
X150288334Y-77505153D01*
X150360233Y-77495688D01*
X150360235Y-77495687D01*
X150360236Y-77495687D01*
X150410780Y-77474751D01*
X150500232Y-77437699D01*
X150500232Y-77437698D01*
X150500233Y-77437698D01*
X150620451Y-77345451D01*
X150712698Y-77225233D01*
X150712698Y-77225232D01*
X150712699Y-77225232D01*
X150770688Y-77085233D01*
X150790466Y-76935002D01*
X150790466Y-76934997D01*
X150770688Y-76784766D01*
X150712699Y-76644767D01*
X150614782Y-76517161D01*
X150585266Y-76445904D01*
X150595333Y-76369436D01*
X150642285Y-76308246D01*
X150658481Y-76297424D01*
X150762216Y-76237533D01*
X150902888Y-76110871D01*
X151014151Y-75957730D01*
X151091144Y-75784803D01*
X151130500Y-75599648D01*
X152659500Y-75599648D01*
X152676231Y-75678360D01*
X152698856Y-75784803D01*
X152698857Y-75784805D01*
X152775847Y-75957727D01*
X152775848Y-75957729D01*
X152775849Y-75957730D01*
X152799294Y-75990000D01*
X152887113Y-76110872D01*
X153027779Y-76237530D01*
X153027783Y-76237532D01*
X153027784Y-76237533D01*
X153191716Y-76332179D01*
X153371744Y-76390674D01*
X153386511Y-76392226D01*
X153512806Y-76405500D01*
X153512808Y-76405500D01*
X154207194Y-76405500D01*
X154277724Y-76398087D01*
X154348256Y-76390674D01*
X154528284Y-76332179D01*
X154692216Y-76237533D01*
X154692218Y-76237531D01*
X154692220Y-76237530D01*
X154778831Y-76159544D01*
X154832888Y-76110871D01*
X154944151Y-75957730D01*
X155021144Y-75784803D01*
X155060500Y-75599646D01*
X155060500Y-75410354D01*
X155060500Y-75410351D01*
X155039072Y-75309544D01*
X155021144Y-75225197D01*
X154944151Y-75052270D01*
X154832888Y-74899129D01*
X154832886Y-74899127D01*
X154692220Y-74772469D01*
X154622933Y-74732466D01*
X154528284Y-74677821D01*
X154528278Y-74677819D01*
X154348254Y-74619325D01*
X154207194Y-74604500D01*
X154207192Y-74604500D01*
X153512808Y-74604500D01*
X153512806Y-74604500D01*
X153371745Y-74619325D01*
X153191721Y-74677819D01*
X153191714Y-74677822D01*
X153027779Y-74772469D01*
X152887113Y-74899127D01*
X152775847Y-75052272D01*
X152719182Y-75179544D01*
X152698856Y-75225197D01*
X152689434Y-75269523D01*
X152659500Y-75410351D01*
X152659500Y-75599648D01*
X151130500Y-75599648D01*
X151130500Y-75599646D01*
X151130500Y-75410354D01*
X151130500Y-75410351D01*
X151109072Y-75309544D01*
X151091144Y-75225197D01*
X151014151Y-75052270D01*
X150902888Y-74899129D01*
X150902886Y-74899127D01*
X150762220Y-74772469D01*
X150692933Y-74732466D01*
X150598284Y-74677821D01*
X150598278Y-74677819D01*
X150418254Y-74619325D01*
X150277194Y-74604500D01*
X150277192Y-74604500D01*
X149082808Y-74604500D01*
X149082806Y-74604500D01*
X148941745Y-74619325D01*
X148761721Y-74677819D01*
X148761714Y-74677822D01*
X148597779Y-74772469D01*
X148457113Y-74899127D01*
X148345847Y-75052272D01*
X148289182Y-75179544D01*
X148268856Y-75225197D01*
X148259434Y-75269523D01*
X148229500Y-75410351D01*
X148229500Y-75599648D01*
X131034018Y-75599648D01*
X131010456Y-75532310D01*
X130920477Y-75389110D01*
X130800890Y-75269523D01*
X130657690Y-75179544D01*
X130498059Y-75123687D01*
X130498058Y-75123686D01*
X130498056Y-75123686D01*
X130330001Y-75104751D01*
X130329999Y-75104751D01*
X130161943Y-75123686D01*
X130002309Y-75179544D01*
X129859110Y-75269523D01*
X129739523Y-75389110D01*
X129649544Y-75532309D01*
X129593686Y-75691943D01*
X129574751Y-75859999D01*
X129574751Y-75860000D01*
X120240601Y-75860000D01*
X120236313Y-75821941D01*
X120180456Y-75662310D01*
X120090477Y-75519110D01*
X119970890Y-75399523D01*
X119827690Y-75309544D01*
X119668059Y-75253687D01*
X119668058Y-75253686D01*
X119668056Y-75253686D01*
X119500001Y-75234751D01*
X119499999Y-75234751D01*
X119331943Y-75253686D01*
X119172309Y-75309544D01*
X119029110Y-75399523D01*
X118909523Y-75519110D01*
X118819544Y-75662309D01*
X118763686Y-75821943D01*
X118744751Y-75989999D01*
X118744751Y-75990000D01*
X95500500Y-75990000D01*
X95500500Y-73180000D01*
X120554751Y-73180000D01*
X120573686Y-73348056D01*
X120573686Y-73348058D01*
X120573687Y-73348059D01*
X120629544Y-73507690D01*
X120719523Y-73650890D01*
X120839110Y-73770477D01*
X120982310Y-73860456D01*
X121141941Y-73916313D01*
X121253980Y-73928937D01*
X121309999Y-73935249D01*
X121310000Y-73935249D01*
X121310001Y-73935249D01*
X121352014Y-73930515D01*
X121478059Y-73916313D01*
X121637690Y-73860456D01*
X121780890Y-73770477D01*
X121900477Y-73650890D01*
X121990456Y-73507690D01*
X122046313Y-73348059D01*
X122065249Y-73180000D01*
X122046313Y-73011941D01*
X121990456Y-72852310D01*
X121900477Y-72709110D01*
X121780890Y-72589523D01*
X121637690Y-72499544D01*
X121478059Y-72443687D01*
X121478058Y-72443686D01*
X121478056Y-72443686D01*
X121310001Y-72424751D01*
X121309999Y-72424751D01*
X121141943Y-72443686D01*
X120982309Y-72499544D01*
X120839110Y-72589523D01*
X120719523Y-72709110D01*
X120629544Y-72852309D01*
X120573686Y-73011943D01*
X120554751Y-73179999D01*
X120554751Y-73180000D01*
X95500500Y-73180000D01*
X95500500Y-70820000D01*
X98180936Y-70820000D01*
X98199871Y-70988056D01*
X98199871Y-70988058D01*
X98199872Y-70988059D01*
X98255729Y-71147690D01*
X98345708Y-71290890D01*
X98465295Y-71410477D01*
X98608495Y-71500456D01*
X98768126Y-71556313D01*
X98880165Y-71568937D01*
X98936184Y-71575249D01*
X98936185Y-71575249D01*
X98936186Y-71575249D01*
X98978199Y-71570515D01*
X99104244Y-71556313D01*
X99263875Y-71500456D01*
X99407075Y-71410477D01*
X99526662Y-71290890D01*
X99616641Y-71147690D01*
X99672498Y-70988059D01*
X99691434Y-70820000D01*
X99672498Y-70651941D01*
X99616641Y-70492310D01*
X99526662Y-70349110D01*
X99407075Y-70229523D01*
X99263875Y-70139544D01*
X99104244Y-70083687D01*
X99104243Y-70083686D01*
X99104241Y-70083686D01*
X98936186Y-70064751D01*
X98936184Y-70064751D01*
X98768128Y-70083686D01*
X98608494Y-70139544D01*
X98465295Y-70229523D01*
X98345708Y-70349110D01*
X98255729Y-70492309D01*
X98199871Y-70651943D01*
X98180936Y-70819999D01*
X98180936Y-70820000D01*
X95500500Y-70820000D01*
X95500500Y-69300000D01*
X137934751Y-69300000D01*
X137953686Y-69468056D01*
X137953686Y-69468058D01*
X137953687Y-69468059D01*
X138009544Y-69627690D01*
X138099523Y-69770890D01*
X138219110Y-69890477D01*
X138362310Y-69980456D01*
X138521941Y-70036313D01*
X138633980Y-70048937D01*
X138689999Y-70055249D01*
X138690000Y-70055249D01*
X138690001Y-70055249D01*
X138732014Y-70050515D01*
X138858059Y-70036313D01*
X139017690Y-69980456D01*
X139160890Y-69890477D01*
X139280477Y-69770890D01*
X139370456Y-69627690D01*
X139426313Y-69468059D01*
X139445249Y-69300000D01*
X139426313Y-69131941D01*
X139370456Y-68972310D01*
X139280477Y-68829110D01*
X139160890Y-68709523D01*
X139017690Y-68619544D01*
X138858059Y-68563687D01*
X138858058Y-68563686D01*
X138858056Y-68563686D01*
X138690001Y-68544751D01*
X138689999Y-68544751D01*
X138521943Y-68563686D01*
X138362309Y-68619544D01*
X138219110Y-68709523D01*
X138099523Y-68829110D01*
X138009544Y-68972309D01*
X137953686Y-69131943D01*
X137934751Y-69299999D01*
X137934751Y-69300000D01*
X95500500Y-69300000D01*
X95500500Y-64710000D01*
X142574751Y-64710000D01*
X142593686Y-64878056D01*
X142593686Y-64878058D01*
X142593687Y-64878059D01*
X142649544Y-65037690D01*
X142739523Y-65180890D01*
X142859110Y-65300477D01*
X143002310Y-65390456D01*
X143161941Y-65446313D01*
X143273980Y-65458937D01*
X143329999Y-65465249D01*
X143330000Y-65465249D01*
X143330001Y-65465249D01*
X143372014Y-65460515D01*
X143498059Y-65446313D01*
X143657690Y-65390456D01*
X143800890Y-65300477D01*
X143839642Y-65261724D01*
X143906434Y-65223161D01*
X143983562Y-65223161D01*
X144050355Y-65261722D01*
X144050359Y-65261726D01*
X144050360Y-65261727D01*
X144079104Y-65290472D01*
X144079107Y-65290474D01*
X144079110Y-65290477D01*
X144222310Y-65380456D01*
X144381941Y-65436313D01*
X144470692Y-65446313D01*
X144549999Y-65455249D01*
X144550000Y-65455249D01*
X144550001Y-65455249D01*
X144592014Y-65450515D01*
X144718059Y-65436313D01*
X144877690Y-65380456D01*
X145020890Y-65290477D01*
X145140477Y-65170890D01*
X145230456Y-65027690D01*
X145286313Y-64868059D01*
X145305249Y-64700000D01*
X145286313Y-64531941D01*
X145230456Y-64372310D01*
X145140477Y-64229110D01*
X145020890Y-64109523D01*
X144877690Y-64019544D01*
X144718059Y-63963687D01*
X144718058Y-63963686D01*
X144718056Y-63963686D01*
X144550001Y-63944751D01*
X144549999Y-63944751D01*
X144381943Y-63963686D01*
X144222309Y-64019544D01*
X144079110Y-64109523D01*
X144040359Y-64148274D01*
X143973564Y-64186838D01*
X143896436Y-64186838D01*
X143829641Y-64148274D01*
X143800891Y-64119524D01*
X143800890Y-64119523D01*
X143657690Y-64029544D01*
X143498059Y-63973687D01*
X143498058Y-63973686D01*
X143498056Y-63973686D01*
X143330001Y-63954751D01*
X143329999Y-63954751D01*
X143161943Y-63973686D01*
X143002309Y-64029544D01*
X142859110Y-64119523D01*
X142739523Y-64239110D01*
X142649544Y-64382309D01*
X142593686Y-64541943D01*
X142574751Y-64709999D01*
X142574751Y-64710000D01*
X95500500Y-64710000D01*
X95500500Y-58317773D01*
X98645788Y-58317773D01*
X98675412Y-58587005D01*
X98675414Y-58587018D01*
X98743928Y-58849088D01*
X98797722Y-58975675D01*
X98849870Y-59098390D01*
X98849875Y-59098399D01*
X98990981Y-59329610D01*
X98990984Y-59329614D01*
X99164247Y-59537812D01*
X99164259Y-59537824D01*
X99365990Y-59718575D01*
X99365999Y-59718583D01*
X99478954Y-59793313D01*
X99591910Y-59868044D01*
X99837176Y-59983020D01*
X100096569Y-60061060D01*
X100364561Y-60100500D01*
X100364568Y-60100500D01*
X100567629Y-60100500D01*
X100567631Y-60100500D01*
X100770156Y-60085677D01*
X101034553Y-60026780D01*
X101287558Y-59930014D01*
X101523777Y-59797441D01*
X101738177Y-59631888D01*
X101926186Y-59436881D01*
X102083799Y-59216579D01*
X102207656Y-58975675D01*
X102295118Y-58719305D01*
X102344319Y-58452933D01*
X102349259Y-58317773D01*
X148645788Y-58317773D01*
X148675412Y-58587005D01*
X148675414Y-58587018D01*
X148743928Y-58849088D01*
X148797722Y-58975675D01*
X148849870Y-59098390D01*
X148849875Y-59098399D01*
X148990981Y-59329610D01*
X148990984Y-59329614D01*
X149164247Y-59537812D01*
X149164259Y-59537824D01*
X149365990Y-59718575D01*
X149365999Y-59718583D01*
X149478954Y-59793313D01*
X149591910Y-59868044D01*
X149837176Y-59983020D01*
X150096569Y-60061060D01*
X150364561Y-60100500D01*
X150364568Y-60100500D01*
X150567629Y-60100500D01*
X150567631Y-60100500D01*
X150770156Y-60085677D01*
X151034553Y-60026780D01*
X151287558Y-59930014D01*
X151523777Y-59797441D01*
X151738177Y-59631888D01*
X151926186Y-59436881D01*
X152083799Y-59216579D01*
X152207656Y-58975675D01*
X152295118Y-58719305D01*
X152344319Y-58452933D01*
X152354212Y-58182235D01*
X152324586Y-57912982D01*
X152256072Y-57650912D01*
X152150130Y-57401610D01*
X152077999Y-57283419D01*
X152009018Y-57170389D01*
X152009015Y-57170385D01*
X151835752Y-56962187D01*
X151835740Y-56962175D01*
X151634009Y-56781424D01*
X151634000Y-56781416D01*
X151408090Y-56631956D01*
X151162825Y-56516980D01*
X151017369Y-56473219D01*
X150903431Y-56438940D01*
X150903427Y-56438939D01*
X150903426Y-56438939D01*
X150635446Y-56399501D01*
X150635445Y-56399500D01*
X150635439Y-56399500D01*
X150432369Y-56399500D01*
X150229844Y-56414323D01*
X150229836Y-56414324D01*
X149965449Y-56473219D01*
X149965439Y-56473222D01*
X149712440Y-56569986D01*
X149712438Y-56569987D01*
X149476224Y-56702558D01*
X149476217Y-56702562D01*
X149261830Y-56868105D01*
X149261826Y-56868108D01*
X149073810Y-57063123D01*
X148916201Y-57283419D01*
X148792344Y-57524324D01*
X148792344Y-57524325D01*
X148704886Y-57780680D01*
X148704880Y-57780703D01*
X148655681Y-58047060D01*
X148645788Y-58317773D01*
X102349259Y-58317773D01*
X102354212Y-58182235D01*
X102324586Y-57912982D01*
X102256072Y-57650912D01*
X102150130Y-57401610D01*
X102077999Y-57283419D01*
X102009018Y-57170389D01*
X102009015Y-57170385D01*
X101835752Y-56962187D01*
X101835740Y-56962175D01*
X101634009Y-56781424D01*
X101634000Y-56781416D01*
X101408090Y-56631956D01*
X101162825Y-56516980D01*
X101017369Y-56473219D01*
X101006670Y-56470000D01*
X120844751Y-56470000D01*
X120863686Y-56638056D01*
X120863686Y-56638058D01*
X120863687Y-56638059D01*
X120919544Y-56797690D01*
X121009523Y-56940890D01*
X121129110Y-57060477D01*
X121272310Y-57150456D01*
X121431941Y-57206313D01*
X121543980Y-57218937D01*
X121599999Y-57225249D01*
X121600000Y-57225249D01*
X121600001Y-57225249D01*
X121642014Y-57220515D01*
X121768059Y-57206313D01*
X121927690Y-57150456D01*
X122070890Y-57060477D01*
X122190477Y-56940890D01*
X122280456Y-56797690D01*
X122336313Y-56638059D01*
X122355249Y-56470000D01*
X122336313Y-56301941D01*
X122280456Y-56142310D01*
X122190477Y-55999110D01*
X122070890Y-55879523D01*
X121927690Y-55789544D01*
X121768059Y-55733687D01*
X121768058Y-55733686D01*
X121768056Y-55733686D01*
X121600001Y-55714751D01*
X121599999Y-55714751D01*
X121431943Y-55733686D01*
X121272309Y-55789544D01*
X121129110Y-55879523D01*
X121009523Y-55999110D01*
X120919544Y-56142309D01*
X120863686Y-56301943D01*
X120844751Y-56469999D01*
X120844751Y-56470000D01*
X101006670Y-56470000D01*
X100903431Y-56438940D01*
X100903427Y-56438939D01*
X100903426Y-56438939D01*
X100635446Y-56399501D01*
X100635445Y-56399500D01*
X100635439Y-56399500D01*
X100432369Y-56399500D01*
X100229844Y-56414323D01*
X100229836Y-56414324D01*
X99965449Y-56473219D01*
X99965439Y-56473222D01*
X99712440Y-56569986D01*
X99712438Y-56569987D01*
X99476224Y-56702558D01*
X99476217Y-56702562D01*
X99261830Y-56868105D01*
X99261826Y-56868108D01*
X99073810Y-57063123D01*
X98916201Y-57283419D01*
X98792344Y-57524324D01*
X98792344Y-57524325D01*
X98704886Y-57780680D01*
X98704880Y-57780703D01*
X98655681Y-58047060D01*
X98645788Y-58317773D01*
X95500500Y-58317773D01*
X95500500Y-58250000D01*
X95509493Y-58032569D01*
X95518139Y-57834540D01*
X95518635Y-57828642D01*
X95545487Y-57613223D01*
X95571823Y-57413185D01*
X95572769Y-57407641D01*
X95574036Y-57401600D01*
X95617191Y-57195778D01*
X95661066Y-56997873D01*
X95662380Y-56992809D01*
X95724112Y-56785457D01*
X95785199Y-56591713D01*
X95786828Y-56587092D01*
X95865469Y-56385551D01*
X95943339Y-56197557D01*
X95945224Y-56193381D01*
X96040251Y-55999000D01*
X96134329Y-55818277D01*
X96136366Y-55814624D01*
X96247211Y-55628601D01*
X96356798Y-55456586D01*
X96358950Y-55453396D01*
X96484856Y-55277054D01*
X96609130Y-55115098D01*
X96611324Y-55112378D01*
X96751448Y-54946933D01*
X96890563Y-54795115D01*
X97045115Y-54640563D01*
X97196941Y-54501442D01*
X97362378Y-54361324D01*
X97365098Y-54359130D01*
X97527054Y-54234856D01*
X97703396Y-54108950D01*
X97706586Y-54106798D01*
X97878601Y-53997211D01*
X98064624Y-53886366D01*
X98068277Y-53884329D01*
X98248973Y-53790264D01*
X98443405Y-53695212D01*
X98447557Y-53693339D01*
X98635551Y-53615469D01*
X98837092Y-53536828D01*
X98841713Y-53535199D01*
X99035457Y-53474112D01*
X99242809Y-53412380D01*
X99247873Y-53411066D01*
X99445778Y-53367191D01*
X99657641Y-53322769D01*
X99663185Y-53321823D01*
X99863223Y-53295487D01*
X100078642Y-53268635D01*
X100084540Y-53268139D01*
X100282569Y-53259493D01*
X100500000Y-53250500D01*
X100500500Y-53250500D01*
X150499500Y-53250500D01*
X150500000Y-53250500D01*
X150717318Y-53259488D01*
G37*
%TD.AperFunction*%
%TD*%
M02*
