%TF.GenerationSoftware,KiCad,Pcbnew,7.0.9*%
%TF.CreationDate,2024-01-09T08:16:39-05:00*%
%TF.ProjectId,mixed_signal_hw,6d697865-645f-4736-9967-6e616c5f6877,rev?*%
%TF.SameCoordinates,Original*%
%TF.FileFunction,Legend,Top*%
%TF.FilePolarity,Positive*%
%FSLAX46Y46*%
G04 Gerber Fmt 4.6, Leading zero omitted, Abs format (unit mm)*
G04 Created by KiCad (PCBNEW 7.0.9) date 2024-01-09 08:16:39*
%MOMM*%
%LPD*%
G01*
G04 APERTURE LIST*
%ADD10C,0.150000*%
%ADD11C,0.200000*%
%ADD12C,0.120000*%
G04 APERTURE END LIST*
D10*
X154250000Y-58250000D02*
G75*
G03*
X154250000Y-58250000I-3750000J0D01*
G01*
X154250000Y-128250000D02*
G75*
G03*
X154250000Y-128250000I-3750000J0D01*
G01*
X118800000Y-54200000D02*
G75*
G03*
X118800000Y-54200000I-64031J0D01*
G01*
X104250000Y-128250000D02*
G75*
G03*
X104250000Y-128250000I-3750000J0D01*
G01*
X109834031Y-99920000D02*
G75*
G03*
X109834031Y-99920000I-64031J0D01*
G01*
X104250000Y-58250000D02*
G75*
G03*
X104250000Y-58250000I-3750000J0D01*
G01*
X136424031Y-99935969D02*
G75*
G03*
X136424031Y-99935969I-64031J0D01*
G01*
D11*
X119917292Y-61984600D02*
X120131578Y-62056028D01*
X120131578Y-62056028D02*
X120488720Y-62056028D01*
X120488720Y-62056028D02*
X120631578Y-61984600D01*
X120631578Y-61984600D02*
X120703006Y-61913171D01*
X120703006Y-61913171D02*
X120774435Y-61770314D01*
X120774435Y-61770314D02*
X120774435Y-61627457D01*
X120774435Y-61627457D02*
X120703006Y-61484600D01*
X120703006Y-61484600D02*
X120631578Y-61413171D01*
X120631578Y-61413171D02*
X120488720Y-61341742D01*
X120488720Y-61341742D02*
X120203006Y-61270314D01*
X120203006Y-61270314D02*
X120060149Y-61198885D01*
X120060149Y-61198885D02*
X119988720Y-61127457D01*
X119988720Y-61127457D02*
X119917292Y-60984600D01*
X119917292Y-60984600D02*
X119917292Y-60841742D01*
X119917292Y-60841742D02*
X119988720Y-60698885D01*
X119988720Y-60698885D02*
X120060149Y-60627457D01*
X120060149Y-60627457D02*
X120203006Y-60556028D01*
X120203006Y-60556028D02*
X120560149Y-60556028D01*
X120560149Y-60556028D02*
X120774435Y-60627457D01*
X121274434Y-60556028D02*
X121631577Y-62056028D01*
X121631577Y-62056028D02*
X121917291Y-60984600D01*
X121917291Y-60984600D02*
X122203006Y-62056028D01*
X122203006Y-62056028D02*
X122560149Y-60556028D01*
X123131577Y-62056028D02*
X123131577Y-60556028D01*
X123131577Y-60556028D02*
X123488720Y-60556028D01*
X123488720Y-60556028D02*
X123703006Y-60627457D01*
X123703006Y-60627457D02*
X123845863Y-60770314D01*
X123845863Y-60770314D02*
X123917292Y-60913171D01*
X123917292Y-60913171D02*
X123988720Y-61198885D01*
X123988720Y-61198885D02*
X123988720Y-61413171D01*
X123988720Y-61413171D02*
X123917292Y-61698885D01*
X123917292Y-61698885D02*
X123845863Y-61841742D01*
X123845863Y-61841742D02*
X123703006Y-61984600D01*
X123703006Y-61984600D02*
X123488720Y-62056028D01*
X123488720Y-62056028D02*
X123131577Y-62056028D01*
X147274435Y-117306028D02*
X147560149Y-117306028D01*
X147560149Y-117306028D02*
X147703006Y-117377457D01*
X147703006Y-117377457D02*
X147845863Y-117520314D01*
X147845863Y-117520314D02*
X147917292Y-117806028D01*
X147917292Y-117806028D02*
X147917292Y-118306028D01*
X147917292Y-118306028D02*
X147845863Y-118591742D01*
X147845863Y-118591742D02*
X147703006Y-118734600D01*
X147703006Y-118734600D02*
X147560149Y-118806028D01*
X147560149Y-118806028D02*
X147274435Y-118806028D01*
X147274435Y-118806028D02*
X147131578Y-118734600D01*
X147131578Y-118734600D02*
X146988720Y-118591742D01*
X146988720Y-118591742D02*
X146917292Y-118306028D01*
X146917292Y-118306028D02*
X146917292Y-117806028D01*
X146917292Y-117806028D02*
X146988720Y-117520314D01*
X146988720Y-117520314D02*
X147131578Y-117377457D01*
X147131578Y-117377457D02*
X147274435Y-117306028D01*
X148560149Y-117306028D02*
X148560149Y-118520314D01*
X148560149Y-118520314D02*
X148631578Y-118663171D01*
X148631578Y-118663171D02*
X148703007Y-118734600D01*
X148703007Y-118734600D02*
X148845864Y-118806028D01*
X148845864Y-118806028D02*
X149131578Y-118806028D01*
X149131578Y-118806028D02*
X149274435Y-118734600D01*
X149274435Y-118734600D02*
X149345864Y-118663171D01*
X149345864Y-118663171D02*
X149417292Y-118520314D01*
X149417292Y-118520314D02*
X149417292Y-117306028D01*
X149917293Y-117306028D02*
X150774436Y-117306028D01*
X150345864Y-118806028D02*
X150345864Y-117306028D01*
X103238720Y-118806028D02*
X103238720Y-117306028D01*
X103953006Y-118806028D02*
X103953006Y-117306028D01*
X103953006Y-117306028D02*
X104810149Y-118806028D01*
X104810149Y-118806028D02*
X104810149Y-117306028D01*
D10*
X116789160Y-115715057D02*
X116836779Y-115667438D01*
X116836779Y-115667438D02*
X116932017Y-115619819D01*
X116932017Y-115619819D02*
X117170112Y-115619819D01*
X117170112Y-115619819D02*
X117265350Y-115667438D01*
X117265350Y-115667438D02*
X117312969Y-115715057D01*
X117312969Y-115715057D02*
X117360588Y-115810295D01*
X117360588Y-115810295D02*
X117360588Y-115905533D01*
X117360588Y-115905533D02*
X117312969Y-116048390D01*
X117312969Y-116048390D02*
X116741541Y-116619819D01*
X116741541Y-116619819D02*
X117360588Y-116619819D01*
X117979636Y-115619819D02*
X118074874Y-115619819D01*
X118074874Y-115619819D02*
X118170112Y-115667438D01*
X118170112Y-115667438D02*
X118217731Y-115715057D01*
X118217731Y-115715057D02*
X118265350Y-115810295D01*
X118265350Y-115810295D02*
X118312969Y-116000771D01*
X118312969Y-116000771D02*
X118312969Y-116238866D01*
X118312969Y-116238866D02*
X118265350Y-116429342D01*
X118265350Y-116429342D02*
X118217731Y-116524580D01*
X118217731Y-116524580D02*
X118170112Y-116572200D01*
X118170112Y-116572200D02*
X118074874Y-116619819D01*
X118074874Y-116619819D02*
X117979636Y-116619819D01*
X117979636Y-116619819D02*
X117884398Y-116572200D01*
X117884398Y-116572200D02*
X117836779Y-116524580D01*
X117836779Y-116524580D02*
X117789160Y-116429342D01*
X117789160Y-116429342D02*
X117741541Y-116238866D01*
X117741541Y-116238866D02*
X117741541Y-116000771D01*
X117741541Y-116000771D02*
X117789160Y-115810295D01*
X117789160Y-115810295D02*
X117836779Y-115715057D01*
X117836779Y-115715057D02*
X117884398Y-115667438D01*
X117884398Y-115667438D02*
X117979636Y-115619819D01*
X119503446Y-116619819D02*
X119503446Y-115619819D01*
X119503446Y-116096009D02*
X120074874Y-116096009D01*
X120074874Y-116619819D02*
X120074874Y-115619819D01*
X120455827Y-115953152D02*
X120979636Y-115953152D01*
X120979636Y-115953152D02*
X120455827Y-116619819D01*
X120455827Y-116619819D02*
X120979636Y-116619819D01*
X122884399Y-115953152D02*
X122122494Y-116238866D01*
X122122494Y-116238866D02*
X122884399Y-116524580D01*
X124455827Y-116096009D02*
X124598684Y-116143628D01*
X124598684Y-116143628D02*
X124646303Y-116191247D01*
X124646303Y-116191247D02*
X124693922Y-116286485D01*
X124693922Y-116286485D02*
X124693922Y-116429342D01*
X124693922Y-116429342D02*
X124646303Y-116524580D01*
X124646303Y-116524580D02*
X124598684Y-116572200D01*
X124598684Y-116572200D02*
X124503446Y-116619819D01*
X124503446Y-116619819D02*
X124122494Y-116619819D01*
X124122494Y-116619819D02*
X124122494Y-115619819D01*
X124122494Y-115619819D02*
X124455827Y-115619819D01*
X124455827Y-115619819D02*
X124551065Y-115667438D01*
X124551065Y-115667438D02*
X124598684Y-115715057D01*
X124598684Y-115715057D02*
X124646303Y-115810295D01*
X124646303Y-115810295D02*
X124646303Y-115905533D01*
X124646303Y-115905533D02*
X124598684Y-116000771D01*
X124598684Y-116000771D02*
X124551065Y-116048390D01*
X124551065Y-116048390D02*
X124455827Y-116096009D01*
X124455827Y-116096009D02*
X124122494Y-116096009D01*
X125027256Y-115619819D02*
X125265351Y-116619819D01*
X125265351Y-116619819D02*
X125455827Y-115905533D01*
X125455827Y-115905533D02*
X125646303Y-116619819D01*
X125646303Y-116619819D02*
X125884399Y-115619819D01*
X127789161Y-115953152D02*
X127027256Y-116238866D01*
X127027256Y-116238866D02*
X127789161Y-116524580D01*
X128979637Y-115715057D02*
X129027256Y-115667438D01*
X129027256Y-115667438D02*
X129122494Y-115619819D01*
X129122494Y-115619819D02*
X129360589Y-115619819D01*
X129360589Y-115619819D02*
X129455827Y-115667438D01*
X129455827Y-115667438D02*
X129503446Y-115715057D01*
X129503446Y-115715057D02*
X129551065Y-115810295D01*
X129551065Y-115810295D02*
X129551065Y-115905533D01*
X129551065Y-115905533D02*
X129503446Y-116048390D01*
X129503446Y-116048390D02*
X128932018Y-116619819D01*
X128932018Y-116619819D02*
X129551065Y-116619819D01*
X130170113Y-115619819D02*
X130265351Y-115619819D01*
X130265351Y-115619819D02*
X130360589Y-115667438D01*
X130360589Y-115667438D02*
X130408208Y-115715057D01*
X130408208Y-115715057D02*
X130455827Y-115810295D01*
X130455827Y-115810295D02*
X130503446Y-116000771D01*
X130503446Y-116000771D02*
X130503446Y-116238866D01*
X130503446Y-116238866D02*
X130455827Y-116429342D01*
X130455827Y-116429342D02*
X130408208Y-116524580D01*
X130408208Y-116524580D02*
X130360589Y-116572200D01*
X130360589Y-116572200D02*
X130265351Y-116619819D01*
X130265351Y-116619819D02*
X130170113Y-116619819D01*
X130170113Y-116619819D02*
X130074875Y-116572200D01*
X130074875Y-116572200D02*
X130027256Y-116524580D01*
X130027256Y-116524580D02*
X129979637Y-116429342D01*
X129979637Y-116429342D02*
X129932018Y-116238866D01*
X129932018Y-116238866D02*
X129932018Y-116000771D01*
X129932018Y-116000771D02*
X129979637Y-115810295D01*
X129979637Y-115810295D02*
X130027256Y-115715057D01*
X130027256Y-115715057D02*
X130074875Y-115667438D01*
X130074875Y-115667438D02*
X130170113Y-115619819D01*
X130932018Y-116619819D02*
X130932018Y-115619819D01*
X131027256Y-116238866D02*
X131312970Y-116619819D01*
X131312970Y-115953152D02*
X130932018Y-116334104D01*
X131741542Y-116619819D02*
X131741542Y-115619819D01*
X131741542Y-116096009D02*
X132312970Y-116096009D01*
X132312970Y-116619819D02*
X132312970Y-115619819D01*
X132693923Y-115953152D02*
X133217732Y-115953152D01*
X133217732Y-115953152D02*
X132693923Y-116619819D01*
X132693923Y-116619819D02*
X133217732Y-116619819D01*
X127136779Y-55269819D02*
X127136779Y-54269819D01*
X127136779Y-54269819D02*
X127470112Y-54984104D01*
X127470112Y-54984104D02*
X127803445Y-54269819D01*
X127803445Y-54269819D02*
X127803445Y-55269819D01*
X128279636Y-55269819D02*
X128279636Y-54269819D01*
X128660588Y-54269819D02*
X129327254Y-55269819D01*
X129327254Y-54269819D02*
X128660588Y-55269819D01*
X129708207Y-54746009D02*
X130041540Y-54746009D01*
X130184397Y-55269819D02*
X129708207Y-55269819D01*
X129708207Y-55269819D02*
X129708207Y-54269819D01*
X129708207Y-54269819D02*
X130184397Y-54269819D01*
X130612969Y-55269819D02*
X130612969Y-54269819D01*
X130612969Y-54269819D02*
X130851064Y-54269819D01*
X130851064Y-54269819D02*
X130993921Y-54317438D01*
X130993921Y-54317438D02*
X131089159Y-54412676D01*
X131089159Y-54412676D02*
X131136778Y-54507914D01*
X131136778Y-54507914D02*
X131184397Y-54698390D01*
X131184397Y-54698390D02*
X131184397Y-54841247D01*
X131184397Y-54841247D02*
X131136778Y-55031723D01*
X131136778Y-55031723D02*
X131089159Y-55126961D01*
X131089159Y-55126961D02*
X130993921Y-55222200D01*
X130993921Y-55222200D02*
X130851064Y-55269819D01*
X130851064Y-55269819D02*
X130612969Y-55269819D01*
X132327255Y-55222200D02*
X132470112Y-55269819D01*
X132470112Y-55269819D02*
X132708207Y-55269819D01*
X132708207Y-55269819D02*
X132803445Y-55222200D01*
X132803445Y-55222200D02*
X132851064Y-55174580D01*
X132851064Y-55174580D02*
X132898683Y-55079342D01*
X132898683Y-55079342D02*
X132898683Y-54984104D01*
X132898683Y-54984104D02*
X132851064Y-54888866D01*
X132851064Y-54888866D02*
X132803445Y-54841247D01*
X132803445Y-54841247D02*
X132708207Y-54793628D01*
X132708207Y-54793628D02*
X132517731Y-54746009D01*
X132517731Y-54746009D02*
X132422493Y-54698390D01*
X132422493Y-54698390D02*
X132374874Y-54650771D01*
X132374874Y-54650771D02*
X132327255Y-54555533D01*
X132327255Y-54555533D02*
X132327255Y-54460295D01*
X132327255Y-54460295D02*
X132374874Y-54365057D01*
X132374874Y-54365057D02*
X132422493Y-54317438D01*
X132422493Y-54317438D02*
X132517731Y-54269819D01*
X132517731Y-54269819D02*
X132755826Y-54269819D01*
X132755826Y-54269819D02*
X132898683Y-54317438D01*
X133327255Y-55269819D02*
X133327255Y-54269819D01*
X134327254Y-54317438D02*
X134232016Y-54269819D01*
X134232016Y-54269819D02*
X134089159Y-54269819D01*
X134089159Y-54269819D02*
X133946302Y-54317438D01*
X133946302Y-54317438D02*
X133851064Y-54412676D01*
X133851064Y-54412676D02*
X133803445Y-54507914D01*
X133803445Y-54507914D02*
X133755826Y-54698390D01*
X133755826Y-54698390D02*
X133755826Y-54841247D01*
X133755826Y-54841247D02*
X133803445Y-55031723D01*
X133803445Y-55031723D02*
X133851064Y-55126961D01*
X133851064Y-55126961D02*
X133946302Y-55222200D01*
X133946302Y-55222200D02*
X134089159Y-55269819D01*
X134089159Y-55269819D02*
X134184397Y-55269819D01*
X134184397Y-55269819D02*
X134327254Y-55222200D01*
X134327254Y-55222200D02*
X134374873Y-55174580D01*
X134374873Y-55174580D02*
X134374873Y-54841247D01*
X134374873Y-54841247D02*
X134184397Y-54841247D01*
X134803445Y-55269819D02*
X134803445Y-54269819D01*
X134803445Y-54269819D02*
X135374873Y-55269819D01*
X135374873Y-55269819D02*
X135374873Y-54269819D01*
X135803445Y-54984104D02*
X136279635Y-54984104D01*
X135708207Y-55269819D02*
X136041540Y-54269819D01*
X136041540Y-54269819D02*
X136374873Y-55269819D01*
X137184397Y-55269819D02*
X136708207Y-55269819D01*
X136708207Y-55269819D02*
X136708207Y-54269819D01*
X138612969Y-54746009D02*
X138755826Y-54793628D01*
X138755826Y-54793628D02*
X138803445Y-54841247D01*
X138803445Y-54841247D02*
X138851064Y-54936485D01*
X138851064Y-54936485D02*
X138851064Y-55079342D01*
X138851064Y-55079342D02*
X138803445Y-55174580D01*
X138803445Y-55174580D02*
X138755826Y-55222200D01*
X138755826Y-55222200D02*
X138660588Y-55269819D01*
X138660588Y-55269819D02*
X138279636Y-55269819D01*
X138279636Y-55269819D02*
X138279636Y-54269819D01*
X138279636Y-54269819D02*
X138612969Y-54269819D01*
X138612969Y-54269819D02*
X138708207Y-54317438D01*
X138708207Y-54317438D02*
X138755826Y-54365057D01*
X138755826Y-54365057D02*
X138803445Y-54460295D01*
X138803445Y-54460295D02*
X138803445Y-54555533D01*
X138803445Y-54555533D02*
X138755826Y-54650771D01*
X138755826Y-54650771D02*
X138708207Y-54698390D01*
X138708207Y-54698390D02*
X138612969Y-54746009D01*
X138612969Y-54746009D02*
X138279636Y-54746009D01*
X139470112Y-54269819D02*
X139660588Y-54269819D01*
X139660588Y-54269819D02*
X139755826Y-54317438D01*
X139755826Y-54317438D02*
X139851064Y-54412676D01*
X139851064Y-54412676D02*
X139898683Y-54603152D01*
X139898683Y-54603152D02*
X139898683Y-54936485D01*
X139898683Y-54936485D02*
X139851064Y-55126961D01*
X139851064Y-55126961D02*
X139755826Y-55222200D01*
X139755826Y-55222200D02*
X139660588Y-55269819D01*
X139660588Y-55269819D02*
X139470112Y-55269819D01*
X139470112Y-55269819D02*
X139374874Y-55222200D01*
X139374874Y-55222200D02*
X139279636Y-55126961D01*
X139279636Y-55126961D02*
X139232017Y-54936485D01*
X139232017Y-54936485D02*
X139232017Y-54603152D01*
X139232017Y-54603152D02*
X139279636Y-54412676D01*
X139279636Y-54412676D02*
X139374874Y-54317438D01*
X139374874Y-54317438D02*
X139470112Y-54269819D01*
X140279636Y-54984104D02*
X140755826Y-54984104D01*
X140184398Y-55269819D02*
X140517731Y-54269819D01*
X140517731Y-54269819D02*
X140851064Y-55269819D01*
X141755826Y-55269819D02*
X141422493Y-54793628D01*
X141184398Y-55269819D02*
X141184398Y-54269819D01*
X141184398Y-54269819D02*
X141565350Y-54269819D01*
X141565350Y-54269819D02*
X141660588Y-54317438D01*
X141660588Y-54317438D02*
X141708207Y-54365057D01*
X141708207Y-54365057D02*
X141755826Y-54460295D01*
X141755826Y-54460295D02*
X141755826Y-54603152D01*
X141755826Y-54603152D02*
X141708207Y-54698390D01*
X141708207Y-54698390D02*
X141660588Y-54746009D01*
X141660588Y-54746009D02*
X141565350Y-54793628D01*
X141565350Y-54793628D02*
X141184398Y-54793628D01*
X142184398Y-55269819D02*
X142184398Y-54269819D01*
X142184398Y-54269819D02*
X142422493Y-54269819D01*
X142422493Y-54269819D02*
X142565350Y-54317438D01*
X142565350Y-54317438D02*
X142660588Y-54412676D01*
X142660588Y-54412676D02*
X142708207Y-54507914D01*
X142708207Y-54507914D02*
X142755826Y-54698390D01*
X142755826Y-54698390D02*
X142755826Y-54841247D01*
X142755826Y-54841247D02*
X142708207Y-55031723D01*
X142708207Y-55031723D02*
X142660588Y-55126961D01*
X142660588Y-55126961D02*
X142565350Y-55222200D01*
X142565350Y-55222200D02*
X142422493Y-55269819D01*
X142422493Y-55269819D02*
X142184398Y-55269819D01*
X96869819Y-99063220D02*
X95869819Y-99063220D01*
X95869819Y-99063220D02*
X96584104Y-98729887D01*
X96584104Y-98729887D02*
X95869819Y-98396554D01*
X95869819Y-98396554D02*
X96869819Y-98396554D01*
X95869819Y-97729887D02*
X95869819Y-97539411D01*
X95869819Y-97539411D02*
X95917438Y-97444173D01*
X95917438Y-97444173D02*
X96012676Y-97348935D01*
X96012676Y-97348935D02*
X96203152Y-97301316D01*
X96203152Y-97301316D02*
X96536485Y-97301316D01*
X96536485Y-97301316D02*
X96726961Y-97348935D01*
X96726961Y-97348935D02*
X96822200Y-97444173D01*
X96822200Y-97444173D02*
X96869819Y-97539411D01*
X96869819Y-97539411D02*
X96869819Y-97729887D01*
X96869819Y-97729887D02*
X96822200Y-97825125D01*
X96822200Y-97825125D02*
X96726961Y-97920363D01*
X96726961Y-97920363D02*
X96536485Y-97967982D01*
X96536485Y-97967982D02*
X96203152Y-97967982D01*
X96203152Y-97967982D02*
X96012676Y-97920363D01*
X96012676Y-97920363D02*
X95917438Y-97825125D01*
X95917438Y-97825125D02*
X95869819Y-97729887D01*
X96869819Y-96872744D02*
X95869819Y-96872744D01*
X96346009Y-96872744D02*
X96346009Y-96301316D01*
X96869819Y-96301316D02*
X95869819Y-96301316D01*
X96584104Y-95872744D02*
X96584104Y-95396554D01*
X96869819Y-95967982D02*
X95869819Y-95634649D01*
X95869819Y-95634649D02*
X96869819Y-95301316D01*
X96869819Y-94967982D02*
X95869819Y-94967982D01*
X95869819Y-94967982D02*
X96584104Y-94634649D01*
X96584104Y-94634649D02*
X95869819Y-94301316D01*
X95869819Y-94301316D02*
X96869819Y-94301316D01*
X96346009Y-93825125D02*
X96346009Y-93491792D01*
X96869819Y-93348935D02*
X96869819Y-93825125D01*
X96869819Y-93825125D02*
X95869819Y-93825125D01*
X95869819Y-93825125D02*
X95869819Y-93348935D01*
X96869819Y-92920363D02*
X95869819Y-92920363D01*
X95869819Y-92920363D02*
X95869819Y-92682268D01*
X95869819Y-92682268D02*
X95917438Y-92539411D01*
X95917438Y-92539411D02*
X96012676Y-92444173D01*
X96012676Y-92444173D02*
X96107914Y-92396554D01*
X96107914Y-92396554D02*
X96298390Y-92348935D01*
X96298390Y-92348935D02*
X96441247Y-92348935D01*
X96441247Y-92348935D02*
X96631723Y-92396554D01*
X96631723Y-92396554D02*
X96726961Y-92444173D01*
X96726961Y-92444173D02*
X96822200Y-92539411D01*
X96822200Y-92539411D02*
X96869819Y-92682268D01*
X96869819Y-92682268D02*
X96869819Y-92920363D01*
X96869819Y-91158458D02*
X95869819Y-91158458D01*
X96346009Y-91158458D02*
X96346009Y-90587030D01*
X96869819Y-90587030D02*
X95869819Y-90587030D01*
X96584104Y-90158458D02*
X96584104Y-89682268D01*
X96869819Y-90253696D02*
X95869819Y-89920363D01*
X95869819Y-89920363D02*
X96869819Y-89587030D01*
X96869819Y-89253696D02*
X95869819Y-89253696D01*
X95869819Y-89253696D02*
X96584104Y-88920363D01*
X96584104Y-88920363D02*
X95869819Y-88587030D01*
X95869819Y-88587030D02*
X96869819Y-88587030D01*
X96346009Y-87777506D02*
X96393628Y-87634649D01*
X96393628Y-87634649D02*
X96441247Y-87587030D01*
X96441247Y-87587030D02*
X96536485Y-87539411D01*
X96536485Y-87539411D02*
X96679342Y-87539411D01*
X96679342Y-87539411D02*
X96774580Y-87587030D01*
X96774580Y-87587030D02*
X96822200Y-87634649D01*
X96822200Y-87634649D02*
X96869819Y-87729887D01*
X96869819Y-87729887D02*
X96869819Y-88110839D01*
X96869819Y-88110839D02*
X95869819Y-88110839D01*
X95869819Y-88110839D02*
X95869819Y-87777506D01*
X95869819Y-87777506D02*
X95917438Y-87682268D01*
X95917438Y-87682268D02*
X95965057Y-87634649D01*
X95965057Y-87634649D02*
X96060295Y-87587030D01*
X96060295Y-87587030D02*
X96155533Y-87587030D01*
X96155533Y-87587030D02*
X96250771Y-87634649D01*
X96250771Y-87634649D02*
X96298390Y-87682268D01*
X96298390Y-87682268D02*
X96346009Y-87777506D01*
X96346009Y-87777506D02*
X96346009Y-88110839D01*
X95869819Y-86920363D02*
X95869819Y-86729887D01*
X95869819Y-86729887D02*
X95917438Y-86634649D01*
X95917438Y-86634649D02*
X96012676Y-86539411D01*
X96012676Y-86539411D02*
X96203152Y-86491792D01*
X96203152Y-86491792D02*
X96536485Y-86491792D01*
X96536485Y-86491792D02*
X96726961Y-86539411D01*
X96726961Y-86539411D02*
X96822200Y-86634649D01*
X96822200Y-86634649D02*
X96869819Y-86729887D01*
X96869819Y-86729887D02*
X96869819Y-86920363D01*
X96869819Y-86920363D02*
X96822200Y-87015601D01*
X96822200Y-87015601D02*
X96726961Y-87110839D01*
X96726961Y-87110839D02*
X96536485Y-87158458D01*
X96536485Y-87158458D02*
X96203152Y-87158458D01*
X96203152Y-87158458D02*
X96012676Y-87110839D01*
X96012676Y-87110839D02*
X95917438Y-87015601D01*
X95917438Y-87015601D02*
X95869819Y-86920363D01*
X95869819Y-86063220D02*
X96679342Y-86063220D01*
X96679342Y-86063220D02*
X96774580Y-86015601D01*
X96774580Y-86015601D02*
X96822200Y-85967982D01*
X96822200Y-85967982D02*
X96869819Y-85872744D01*
X96869819Y-85872744D02*
X96869819Y-85682268D01*
X96869819Y-85682268D02*
X96822200Y-85587030D01*
X96822200Y-85587030D02*
X96774580Y-85539411D01*
X96774580Y-85539411D02*
X96679342Y-85491792D01*
X96679342Y-85491792D02*
X95869819Y-85491792D01*
X95869819Y-85158458D02*
X95869819Y-84587030D01*
X96869819Y-84872744D02*
X95869819Y-84872744D01*
X96584104Y-84301315D02*
X96584104Y-83825125D01*
X96869819Y-84396553D02*
X95869819Y-84063220D01*
X95869819Y-84063220D02*
X96869819Y-83729887D01*
D11*
X150988720Y-87306028D02*
X150988720Y-88520314D01*
X150988720Y-88520314D02*
X151060149Y-88663171D01*
X151060149Y-88663171D02*
X151131578Y-88734600D01*
X151131578Y-88734600D02*
X151274435Y-88806028D01*
X151274435Y-88806028D02*
X151560149Y-88806028D01*
X151560149Y-88806028D02*
X151703006Y-88734600D01*
X151703006Y-88734600D02*
X151774435Y-88663171D01*
X151774435Y-88663171D02*
X151845863Y-88520314D01*
X151845863Y-88520314D02*
X151845863Y-87306028D01*
X152488721Y-88734600D02*
X152703007Y-88806028D01*
X152703007Y-88806028D02*
X153060149Y-88806028D01*
X153060149Y-88806028D02*
X153203007Y-88734600D01*
X153203007Y-88734600D02*
X153274435Y-88663171D01*
X153274435Y-88663171D02*
X153345864Y-88520314D01*
X153345864Y-88520314D02*
X153345864Y-88377457D01*
X153345864Y-88377457D02*
X153274435Y-88234600D01*
X153274435Y-88234600D02*
X153203007Y-88163171D01*
X153203007Y-88163171D02*
X153060149Y-88091742D01*
X153060149Y-88091742D02*
X152774435Y-88020314D01*
X152774435Y-88020314D02*
X152631578Y-87948885D01*
X152631578Y-87948885D02*
X152560149Y-87877457D01*
X152560149Y-87877457D02*
X152488721Y-87734600D01*
X152488721Y-87734600D02*
X152488721Y-87591742D01*
X152488721Y-87591742D02*
X152560149Y-87448885D01*
X152560149Y-87448885D02*
X152631578Y-87377457D01*
X152631578Y-87377457D02*
X152774435Y-87306028D01*
X152774435Y-87306028D02*
X153131578Y-87306028D01*
X153131578Y-87306028D02*
X153345864Y-87377457D01*
X154488720Y-88020314D02*
X154703006Y-88091742D01*
X154703006Y-88091742D02*
X154774435Y-88163171D01*
X154774435Y-88163171D02*
X154845863Y-88306028D01*
X154845863Y-88306028D02*
X154845863Y-88520314D01*
X154845863Y-88520314D02*
X154774435Y-88663171D01*
X154774435Y-88663171D02*
X154703006Y-88734600D01*
X154703006Y-88734600D02*
X154560149Y-88806028D01*
X154560149Y-88806028D02*
X153988720Y-88806028D01*
X153988720Y-88806028D02*
X153988720Y-87306028D01*
X153988720Y-87306028D02*
X154488720Y-87306028D01*
X154488720Y-87306028D02*
X154631578Y-87377457D01*
X154631578Y-87377457D02*
X154703006Y-87448885D01*
X154703006Y-87448885D02*
X154774435Y-87591742D01*
X154774435Y-87591742D02*
X154774435Y-87734600D01*
X154774435Y-87734600D02*
X154703006Y-87877457D01*
X154703006Y-87877457D02*
X154631578Y-87948885D01*
X154631578Y-87948885D02*
X154488720Y-88020314D01*
X154488720Y-88020314D02*
X153988720Y-88020314D01*
X151774435Y-64056028D02*
X152060149Y-64056028D01*
X152060149Y-64056028D02*
X152203006Y-64127457D01*
X152203006Y-64127457D02*
X152345863Y-64270314D01*
X152345863Y-64270314D02*
X152417292Y-64556028D01*
X152417292Y-64556028D02*
X152417292Y-65056028D01*
X152417292Y-65056028D02*
X152345863Y-65341742D01*
X152345863Y-65341742D02*
X152203006Y-65484600D01*
X152203006Y-65484600D02*
X152060149Y-65556028D01*
X152060149Y-65556028D02*
X151774435Y-65556028D01*
X151774435Y-65556028D02*
X151631578Y-65484600D01*
X151631578Y-65484600D02*
X151488720Y-65341742D01*
X151488720Y-65341742D02*
X151417292Y-65056028D01*
X151417292Y-65056028D02*
X151417292Y-64556028D01*
X151417292Y-64556028D02*
X151488720Y-64270314D01*
X151488720Y-64270314D02*
X151631578Y-64127457D01*
X151631578Y-64127457D02*
X151774435Y-64056028D01*
X153060149Y-65556028D02*
X153060149Y-64056028D01*
X153060149Y-64056028D02*
X153917292Y-65556028D01*
X153917292Y-65556028D02*
X153917292Y-64056028D01*
D10*
X117318095Y-120417561D02*
X117413333Y-120465180D01*
X117413333Y-120465180D02*
X117556190Y-120465180D01*
X117556190Y-120465180D02*
X117699047Y-120417561D01*
X117699047Y-120417561D02*
X117794285Y-120322323D01*
X117794285Y-120322323D02*
X117841904Y-120227085D01*
X117841904Y-120227085D02*
X117889523Y-120036609D01*
X117889523Y-120036609D02*
X117889523Y-119893752D01*
X117889523Y-119893752D02*
X117841904Y-119703276D01*
X117841904Y-119703276D02*
X117794285Y-119608038D01*
X117794285Y-119608038D02*
X117699047Y-119512800D01*
X117699047Y-119512800D02*
X117556190Y-119465180D01*
X117556190Y-119465180D02*
X117460952Y-119465180D01*
X117460952Y-119465180D02*
X117318095Y-119512800D01*
X117318095Y-119512800D02*
X117270476Y-119560419D01*
X117270476Y-119560419D02*
X117270476Y-119893752D01*
X117270476Y-119893752D02*
X117460952Y-119893752D01*
X111365713Y-119512800D02*
X111222856Y-119465180D01*
X111222856Y-119465180D02*
X110984761Y-119465180D01*
X110984761Y-119465180D02*
X110889523Y-119512800D01*
X110889523Y-119512800D02*
X110841904Y-119560419D01*
X110841904Y-119560419D02*
X110794285Y-119655657D01*
X110794285Y-119655657D02*
X110794285Y-119750895D01*
X110794285Y-119750895D02*
X110841904Y-119846133D01*
X110841904Y-119846133D02*
X110889523Y-119893752D01*
X110889523Y-119893752D02*
X110984761Y-119941371D01*
X110984761Y-119941371D02*
X111175237Y-119988990D01*
X111175237Y-119988990D02*
X111270475Y-120036609D01*
X111270475Y-120036609D02*
X111318094Y-120084228D01*
X111318094Y-120084228D02*
X111365713Y-120179466D01*
X111365713Y-120179466D02*
X111365713Y-120274704D01*
X111365713Y-120274704D02*
X111318094Y-120369942D01*
X111318094Y-120369942D02*
X111270475Y-120417561D01*
X111270475Y-120417561D02*
X111175237Y-120465180D01*
X111175237Y-120465180D02*
X110937142Y-120465180D01*
X110937142Y-120465180D02*
X110794285Y-120417561D01*
X142261695Y-120417561D02*
X142356933Y-120465180D01*
X142356933Y-120465180D02*
X142499790Y-120465180D01*
X142499790Y-120465180D02*
X142642647Y-120417561D01*
X142642647Y-120417561D02*
X142737885Y-120322323D01*
X142737885Y-120322323D02*
X142785504Y-120227085D01*
X142785504Y-120227085D02*
X142833123Y-120036609D01*
X142833123Y-120036609D02*
X142833123Y-119893752D01*
X142833123Y-119893752D02*
X142785504Y-119703276D01*
X142785504Y-119703276D02*
X142737885Y-119608038D01*
X142737885Y-119608038D02*
X142642647Y-119512800D01*
X142642647Y-119512800D02*
X142499790Y-119465180D01*
X142499790Y-119465180D02*
X142404552Y-119465180D01*
X142404552Y-119465180D02*
X142261695Y-119512800D01*
X142261695Y-119512800D02*
X142214076Y-119560419D01*
X142214076Y-119560419D02*
X142214076Y-119893752D01*
X142214076Y-119893752D02*
X142404552Y-119893752D01*
X136309313Y-119512800D02*
X136166456Y-119465180D01*
X136166456Y-119465180D02*
X135928361Y-119465180D01*
X135928361Y-119465180D02*
X135833123Y-119512800D01*
X135833123Y-119512800D02*
X135785504Y-119560419D01*
X135785504Y-119560419D02*
X135737885Y-119655657D01*
X135737885Y-119655657D02*
X135737885Y-119750895D01*
X135737885Y-119750895D02*
X135785504Y-119846133D01*
X135785504Y-119846133D02*
X135833123Y-119893752D01*
X135833123Y-119893752D02*
X135928361Y-119941371D01*
X135928361Y-119941371D02*
X136118837Y-119988990D01*
X136118837Y-119988990D02*
X136214075Y-120036609D01*
X136214075Y-120036609D02*
X136261694Y-120084228D01*
X136261694Y-120084228D02*
X136309313Y-120179466D01*
X136309313Y-120179466D02*
X136309313Y-120274704D01*
X136309313Y-120274704D02*
X136261694Y-120369942D01*
X136261694Y-120369942D02*
X136214075Y-120417561D01*
X136214075Y-120417561D02*
X136118837Y-120465180D01*
X136118837Y-120465180D02*
X135880742Y-120465180D01*
X135880742Y-120465180D02*
X135737885Y-120417561D01*
D12*
%TO.C,C300*%
X114900600Y-111747836D02*
X114900600Y-111532164D01*
X115620600Y-111747836D02*
X115620600Y-111532164D01*
%TO.C,U100*%
X137900000Y-67110000D02*
X139700000Y-67110000D01*
X137900000Y-67110000D02*
X137100000Y-67110000D01*
X137900000Y-63990000D02*
X138700000Y-63990000D01*
X137900000Y-63990000D02*
X137100000Y-63990000D01*
%TO.C,C305*%
X111484236Y-108106800D02*
X111268564Y-108106800D01*
X111484236Y-107386800D02*
X111268564Y-107386800D01*
%TO.C,U200*%
X120677500Y-76689999D02*
X120677500Y-77139999D01*
X120677500Y-77139999D02*
X119387500Y-77139999D01*
X120677500Y-83909999D02*
X120677500Y-83459999D01*
X121127500Y-76689999D02*
X120677500Y-76689999D01*
X121127500Y-83909999D02*
X120677500Y-83909999D01*
X127447500Y-76689999D02*
X127897500Y-76689999D01*
X127447500Y-83909999D02*
X127897500Y-83909999D01*
X127897500Y-76689999D02*
X127897500Y-77139999D01*
X127897500Y-83909999D02*
X127897500Y-83459999D01*
%TO.C,R212*%
X113053641Y-66140000D02*
X112746359Y-66140000D01*
X113053641Y-65380000D02*
X112746359Y-65380000D01*
%TO.C,C212*%
X106580000Y-60977836D02*
X106580000Y-60762164D01*
X107300000Y-60977836D02*
X107300000Y-60762164D01*
%TO.C,R403*%
X137380000Y-104516359D02*
X137380000Y-104823641D01*
X136620000Y-104516359D02*
X136620000Y-104823641D01*
%TO.C,C309*%
X104384611Y-103420000D02*
X104103451Y-103420000D01*
X104384611Y-102400000D02*
X104103451Y-102400000D01*
%TO.C,R202*%
X130770000Y-83726359D02*
X130770000Y-84033641D01*
X130010000Y-83726359D02*
X130010000Y-84033641D01*
%TO.C,C205*%
X117927500Y-81407835D02*
X117927500Y-81192163D01*
X118647500Y-81407835D02*
X118647500Y-81192163D01*
%TO.C,C206*%
X116277500Y-81445579D02*
X116277500Y-81164419D01*
X117297500Y-81445579D02*
X117297500Y-81164419D01*
%TO.C,U401*%
X136420000Y-109260000D02*
X138220000Y-109260000D01*
X136420000Y-109260000D02*
X135620000Y-109260000D01*
X136420000Y-106140000D02*
X137220000Y-106140000D01*
X136420000Y-106140000D02*
X135620000Y-106140000D01*
%TO.C,C202*%
X126895336Y-86659999D02*
X126679664Y-86659999D01*
X126895336Y-85939999D02*
X126679664Y-85939999D01*
%TO.C,R205*%
X151573641Y-73930000D02*
X151266359Y-73930000D01*
X151573641Y-73170000D02*
X151266359Y-73170000D01*
%TO.C,C100*%
X143695000Y-84199420D02*
X143695000Y-84480580D01*
X142675000Y-84199420D02*
X142675000Y-84480580D01*
%TO.C,J300*%
X120580000Y-132420000D02*
X120580000Y-117420000D01*
X120580000Y-132420000D02*
X105580000Y-132420000D01*
X120580000Y-117420000D02*
X105580000Y-117420000D01*
X105580000Y-132420000D02*
X105580000Y-117420000D01*
%TO.C,C201*%
X117927500Y-77157835D02*
X117927500Y-76942163D01*
X118647500Y-77157835D02*
X118647500Y-76942163D01*
%TO.C,C200*%
X116277500Y-77215579D02*
X116277500Y-76934419D01*
X117297500Y-77215579D02*
X117297500Y-76934419D01*
%TO.C,U201*%
X143675000Y-80860000D02*
X145475000Y-80860000D01*
X143675000Y-80860000D02*
X142875000Y-80860000D01*
X143675000Y-77740000D02*
X144475000Y-77740000D01*
X143675000Y-77740000D02*
X142875000Y-77740000D01*
%TO.C,C315*%
X109696867Y-93110000D02*
X109481195Y-93110000D01*
X109696867Y-92390000D02*
X109481195Y-92390000D01*
%TO.C,C207*%
X114377500Y-81445579D02*
X114377500Y-81164419D01*
X115397500Y-81445579D02*
X115397500Y-81164419D01*
%TO.C,C302*%
X116137836Y-105810000D02*
X115922164Y-105810000D01*
X116137836Y-105090000D02*
X115922164Y-105090000D01*
%TO.C,R211*%
X116493641Y-66170000D02*
X116186359Y-66170000D01*
X116493641Y-65410000D02*
X116186359Y-65410000D01*
%TO.C,D205*%
X108940000Y-63050000D02*
X110640000Y-63050000D01*
X108940000Y-63050000D02*
X108940000Y-60390000D01*
X110640000Y-63050000D02*
X110640000Y-60390000D01*
%TO.C,C209*%
X112199664Y-77939999D02*
X112415336Y-77939999D01*
X112199664Y-78659999D02*
X112415336Y-78659999D01*
%TO.C,R103*%
X149333641Y-66620000D02*
X149026359Y-66620000D01*
X149333641Y-65860000D02*
X149026359Y-65860000D01*
%TO.C,C103*%
X120941800Y-102969052D02*
X120941800Y-102446548D01*
X122411800Y-102969052D02*
X122411800Y-102446548D01*
%TO.C,U303*%
X109924031Y-95755000D02*
X112424031Y-95755000D01*
X109924031Y-96905000D02*
X109924031Y-95755000D01*
X110724031Y-97705000D02*
X109924031Y-96905000D01*
X112424031Y-95755000D02*
X112424031Y-97705000D01*
X112424031Y-97705000D02*
X110724031Y-97705000D01*
%TO.C,R306*%
X108960000Y-102243641D02*
X108960000Y-101936359D01*
X109720000Y-102243641D02*
X109720000Y-101936359D01*
%TO.C,R402*%
X136346359Y-102650000D02*
X136653641Y-102650000D01*
X136346359Y-103410000D02*
X136653641Y-103410000D01*
%TO.C,U101*%
X123355700Y-100461000D02*
X124495700Y-100461000D01*
X124495700Y-100231000D02*
X124495700Y-100461000D01*
X124495700Y-100231000D02*
X127215700Y-100231000D01*
X124495700Y-104951000D02*
X124495700Y-104721000D01*
X127215700Y-100231000D02*
X127215700Y-101541000D01*
X127215700Y-103641000D02*
X127215700Y-104951000D01*
X127215700Y-104951000D02*
X124495700Y-104951000D01*
%TO.C,C108*%
X128454200Y-108447836D02*
X128454200Y-108232164D01*
X129174200Y-108447836D02*
X129174200Y-108232164D01*
%TO.C,C101*%
X141845000Y-84199420D02*
X141845000Y-84480580D01*
X140825000Y-84199420D02*
X140825000Y-84480580D01*
%TO.C,R405*%
X139490000Y-109156359D02*
X139490000Y-109463641D01*
X138730000Y-109156359D02*
X138730000Y-109463641D01*
%TO.C,L101*%
X134500000Y-56500000D02*
X141500000Y-56500000D01*
X134500000Y-58000000D02*
X134500000Y-56500000D01*
X134500000Y-62000000D02*
X134500000Y-63500000D01*
X134500000Y-63500000D02*
X141500000Y-63500000D01*
X136500000Y-58500000D02*
X136500000Y-61500000D01*
X136500000Y-61500000D02*
X139500000Y-61500000D01*
X139500000Y-58500000D02*
X136500000Y-58500000D01*
X139500000Y-61500000D02*
X139500000Y-58500000D01*
X141500000Y-56500000D02*
X141500000Y-58000000D01*
X141500000Y-63500000D02*
X141500000Y-62000000D01*
%TO.C,C105*%
X141993300Y-65273548D02*
X141993300Y-65796052D01*
X140523300Y-65273548D02*
X140523300Y-65796052D01*
%TO.C,D201*%
X120690000Y-55910000D02*
X118990000Y-55910000D01*
X120690000Y-55910000D02*
X120690000Y-58570000D01*
X118990000Y-55910000D02*
X118990000Y-58570000D01*
%TO.C,R204*%
X134420000Y-78443641D02*
X134420000Y-78136359D01*
X135180000Y-78443641D02*
X135180000Y-78136359D01*
%TO.C,R213*%
X108480000Y-60706359D02*
X108480000Y-61013641D01*
X107720000Y-60706359D02*
X107720000Y-61013641D01*
%TO.C,D200*%
X100490000Y-71579956D02*
X100490000Y-76030000D01*
X99690000Y-71580000D02*
X100490000Y-71580000D01*
X97490000Y-72130000D02*
X97490000Y-76030000D01*
%TO.C,C306*%
X113872600Y-104644364D02*
X113872600Y-104860036D01*
X113152600Y-104644364D02*
X113152600Y-104860036D01*
%TO.C,R308*%
X101316800Y-92836841D02*
X101316800Y-92529559D01*
X102076800Y-92836841D02*
X102076800Y-92529559D01*
%TO.C,R309*%
X114360000Y-90376359D02*
X114360000Y-90683641D01*
X113600000Y-90376359D02*
X113600000Y-90683641D01*
%TO.C,C301*%
X116794964Y-111745200D02*
X117010636Y-111745200D01*
X116794964Y-112465200D02*
X117010636Y-112465200D01*
%TO.C,R302*%
X118083641Y-111310000D02*
X117776359Y-111310000D01*
X118083641Y-110550000D02*
X117776359Y-110550000D01*
%TO.C,C204*%
X121699664Y-73939999D02*
X121915336Y-73939999D01*
X121699664Y-74659999D02*
X121915336Y-74659999D01*
%TO.C,R209*%
X102293641Y-75270000D02*
X101986359Y-75270000D01*
X102293641Y-74510000D02*
X101986359Y-74510000D01*
%TO.C,R304*%
X109398800Y-108359641D02*
X109398800Y-108052359D01*
X110158800Y-108359641D02*
X110158800Y-108052359D01*
%TO.C,C401*%
X136452836Y-93340000D02*
X136237164Y-93340000D01*
X136452836Y-92620000D02*
X136237164Y-92620000D01*
%TO.C,R100*%
X126425000Y-95355436D02*
X126425000Y-95809564D01*
X124955000Y-95355436D02*
X124955000Y-95809564D01*
%TO.C,C203*%
X130680000Y-77312164D02*
X130680000Y-77527836D01*
X129960000Y-77312164D02*
X129960000Y-77527836D01*
%TO.C,C403*%
X138552164Y-102680000D02*
X138767836Y-102680000D01*
X138552164Y-103400000D02*
X138767836Y-103400000D01*
%TO.C,J200*%
X117950000Y-55390000D02*
X117950000Y-56715000D01*
X118015000Y-56715000D02*
X117950000Y-56715000D01*
X118015000Y-56715000D02*
X118015000Y-60245000D01*
X111610000Y-56715000D02*
X111545000Y-56715000D01*
X111545000Y-56715000D02*
X111545000Y-60245000D01*
X118015000Y-60245000D02*
X117950000Y-60245000D01*
X111610000Y-60245000D02*
X111545000Y-60245000D01*
%TO.C,R102*%
X135364741Y-68541200D02*
X135057459Y-68541200D01*
X135364741Y-67781200D02*
X135057459Y-67781200D01*
%TO.C,R104*%
X127318841Y-111560000D02*
X127011559Y-111560000D01*
X127318841Y-110800000D02*
X127011559Y-110800000D01*
%TO.C,C210*%
X144042164Y-76030000D02*
X144257836Y-76030000D01*
X144042164Y-76750000D02*
X144257836Y-76750000D01*
%TO.C,D300*%
X115535000Y-115800000D02*
X115535000Y-114100000D01*
X115535000Y-115800000D02*
X112875000Y-115800000D01*
X115535000Y-114100000D02*
X112875000Y-114100000D01*
%TO.C,C308*%
X101095580Y-91260000D02*
X100814420Y-91260000D01*
X101095580Y-90240000D02*
X100814420Y-90240000D01*
%TO.C,R207*%
X102323641Y-73760000D02*
X102016359Y-73760000D01*
X102323641Y-73000000D02*
X102016359Y-73000000D01*
%TO.C,C310*%
X108384031Y-98727836D02*
X108384031Y-98512164D01*
X109104031Y-98727836D02*
X109104031Y-98512164D01*
%TO.C,U400*%
X136520000Y-95795000D02*
X139020000Y-95795000D01*
X136520000Y-96945000D02*
X136520000Y-95795000D01*
X137320000Y-97745000D02*
X136520000Y-96945000D01*
X139020000Y-95795000D02*
X139020000Y-97745000D01*
X139020000Y-97745000D02*
X137320000Y-97745000D01*
%TO.C,U300*%
X114926800Y-108146100D02*
X114926800Y-109946100D01*
X114926800Y-108146100D02*
X114926800Y-107346100D01*
X118046800Y-108146100D02*
X118046800Y-108946100D01*
X118046800Y-108146100D02*
X118046800Y-107346100D01*
%TO.C,R210*%
X118596359Y-65380000D02*
X118903641Y-65380000D01*
X118596359Y-66140000D02*
X118903641Y-66140000D01*
%TO.C,J400*%
X145523600Y-132420000D02*
X145523600Y-117420000D01*
X145523600Y-132420000D02*
X130523600Y-132420000D01*
X145523600Y-117420000D02*
X130523600Y-117420000D01*
X130523600Y-132420000D02*
X130523600Y-117420000D01*
%TO.C,R401*%
X137551359Y-100990000D02*
X137858641Y-100990000D01*
X137551359Y-101750000D02*
X137858641Y-101750000D01*
%TO.C,Y200*%
X115262500Y-77599999D02*
X115262500Y-74299999D01*
X115262500Y-74299999D02*
X111262500Y-74299999D01*
%TO.C,R105*%
X124520841Y-111560000D02*
X124213559Y-111560000D01*
X124520841Y-110800000D02*
X124213559Y-110800000D01*
%TO.C,R206*%
X151623641Y-86560000D02*
X151316359Y-86560000D01*
X151623641Y-85800000D02*
X151316359Y-85800000D01*
%TO.C,C304*%
X106140000Y-107377836D02*
X106140000Y-107162164D01*
X106860000Y-107377836D02*
X106860000Y-107162164D01*
%TO.C,C107*%
X124411252Y-113595000D02*
X123888748Y-113595000D01*
X124411252Y-112125000D02*
X123888748Y-112125000D01*
%TO.C,R404*%
X138546359Y-104820000D02*
X138853641Y-104820000D01*
X138546359Y-105580000D02*
X138853641Y-105580000D01*
%TO.C,C406*%
X133978400Y-108172164D02*
X133978400Y-108387836D01*
X133258400Y-108172164D02*
X133258400Y-108387836D01*
%TO.C,C404*%
X139492164Y-106340000D02*
X139707836Y-106340000D01*
X139492164Y-107060000D02*
X139707836Y-107060000D01*
%TO.C,D400*%
X138560000Y-113470000D02*
X138560000Y-115170000D01*
X138560000Y-113470000D02*
X141220000Y-113470000D01*
X138560000Y-115170000D02*
X141220000Y-115170000D01*
%TO.C,C400*%
X136205580Y-91960000D02*
X135924420Y-91960000D01*
X136205580Y-90940000D02*
X135924420Y-90940000D01*
%TO.C,R300*%
X112470600Y-112833641D02*
X112470600Y-112526359D01*
X113230600Y-112833641D02*
X113230600Y-112526359D01*
%TO.C,U102*%
X126040100Y-107247600D02*
X124240100Y-107247600D01*
X126040100Y-107247600D02*
X126840100Y-107247600D01*
X126040100Y-110367600D02*
X125240100Y-110367600D01*
X126040100Y-110367600D02*
X126840100Y-110367600D01*
%TO.C,R200*%
X123940000Y-73896359D02*
X123940000Y-74203641D01*
X123180000Y-73896359D02*
X123180000Y-74203641D01*
%TO.C,D204*%
X110770000Y-63180000D02*
X110770000Y-64880000D01*
X110770000Y-63180000D02*
X113430000Y-63180000D01*
X110770000Y-64880000D02*
X113430000Y-64880000D01*
%TO.C,R303*%
X112633641Y-109190000D02*
X112326359Y-109190000D01*
X112633641Y-108430000D02*
X112326359Y-108430000D01*
%TO.C,C312*%
X109124031Y-94522164D02*
X109124031Y-94737836D01*
X108404031Y-94522164D02*
X108404031Y-94737836D01*
%TO.C,C208*%
X114665336Y-78659999D02*
X114449664Y-78659999D01*
X114665336Y-77939999D02*
X114449664Y-77939999D01*
%TO.C,C405*%
X135477836Y-105550000D02*
X135262164Y-105550000D01*
X135477836Y-104830000D02*
X135262164Y-104830000D01*
%TO.C,R301*%
X114440600Y-111496359D02*
X114440600Y-111803641D01*
X113680600Y-111496359D02*
X113680600Y-111803641D01*
%TO.C,C303*%
X111290000Y-109152164D02*
X111290000Y-109367836D01*
X110570000Y-109152164D02*
X110570000Y-109367836D01*
%TO.C,R400*%
X138745000Y-89246359D02*
X138745000Y-89553641D01*
X137985000Y-89246359D02*
X137985000Y-89553641D01*
%TO.C,C102*%
X125102852Y-99465200D02*
X124580348Y-99465200D01*
X125102852Y-97995200D02*
X124580348Y-97995200D01*
%TO.C,R101*%
X137474941Y-68531000D02*
X137167659Y-68531000D01*
X137474941Y-67771000D02*
X137167659Y-67771000D01*
%TO.C,C402*%
X135750000Y-95134420D02*
X135750000Y-95415580D01*
X134730000Y-95134420D02*
X134730000Y-95415580D01*
%TO.C,D203*%
X117380000Y-64880000D02*
X117380000Y-63180000D01*
X117380000Y-64880000D02*
X114720000Y-64880000D01*
X117380000Y-63180000D02*
X114720000Y-63180000D01*
%TO.C,C106*%
X137457136Y-69664200D02*
X137241464Y-69664200D01*
X137457136Y-68944200D02*
X137241464Y-68944200D01*
%TO.C,R307*%
X112142000Y-102253641D02*
X112142000Y-101946359D01*
X112902000Y-102253641D02*
X112902000Y-101946359D01*
%TO.C,C104*%
X135262300Y-65273548D02*
X135262300Y-65796052D01*
X133792300Y-65273548D02*
X133792300Y-65796052D01*
%TO.C,R208*%
X102293641Y-76820000D02*
X101986359Y-76820000D01*
X102293641Y-76060000D02*
X101986359Y-76060000D01*
%TO.C,C307*%
X110812164Y-101260000D02*
X111027836Y-101260000D01*
X110812164Y-101980000D02*
X111027836Y-101980000D01*
%TO.C,D202*%
X117680000Y-63170000D02*
X117680000Y-64870000D01*
X117680000Y-63170000D02*
X120340000Y-63170000D01*
X117680000Y-64870000D02*
X120340000Y-64870000D01*
%TO.C,U301*%
X110876500Y-103657000D02*
X109076500Y-103657000D01*
X110876500Y-103657000D02*
X111676500Y-103657000D01*
X110876500Y-106777000D02*
X110076500Y-106777000D01*
X110876500Y-106777000D02*
X111676500Y-106777000D01*
%TO.C,D100*%
X150392500Y-65435000D02*
X150392500Y-63965000D01*
X150392500Y-63965000D02*
X148107500Y-63965000D01*
X148107500Y-65435000D02*
X150392500Y-65435000D01*
%TO.C,C211*%
X100087164Y-70388400D02*
X100302836Y-70388400D01*
X100087164Y-71108400D02*
X100302836Y-71108400D01*
%TO.C,U302*%
X104224031Y-101650000D02*
X105899031Y-101650000D01*
X104224031Y-101650000D02*
X103574031Y-101650000D01*
X104224031Y-98530000D02*
X104874031Y-98530000D01*
X104224031Y-98530000D02*
X103574031Y-98530000D01*
%TO.C,R201*%
X112133859Y-79044999D02*
X112441141Y-79044999D01*
X112133859Y-79804999D02*
X112441141Y-79804999D01*
%TO.C,C311*%
X106834031Y-98475580D02*
X106834031Y-98194420D01*
X107854031Y-98475580D02*
X107854031Y-98194420D01*
%TO.C,R305*%
X108318641Y-108130000D02*
X108011359Y-108130000D01*
X108318641Y-107370000D02*
X108011359Y-107370000D01*
%TO.C,R203*%
X121183641Y-86690000D02*
X120876359Y-86690000D01*
X121183641Y-85930000D02*
X120876359Y-85930000D01*
%TO.C,C313*%
X107854031Y-94794420D02*
X107854031Y-95075580D01*
X106834031Y-94794420D02*
X106834031Y-95075580D01*
%TO.C,C314*%
X109420580Y-91870000D02*
X109139420Y-91870000D01*
X109420580Y-90850000D02*
X109139420Y-90850000D01*
%TD*%
M02*
