M48
; DRILL file {KiCad 7.0.9} date Tue Jan  9 08:16:32 2024
; FORMAT={-:-/ absolute / metric / decimal}
; #@! TF.CreationDate,2024-01-09T08:16:32-05:00
; #@! TF.GenerationSoftware,Kicad,Pcbnew,7.0.9
; #@! TF.FileFunction,MixedPlating,1,4
FMAT,2
METRIC
; #@! TA.AperFunction,Plated,PTH,ViaDrill
T1C0.300
; #@! TA.AperFunction,Plated,PTH,ViaDrill
T2C0.400
; #@! TA.AperFunction,Plated,PTH,ComponentDrill
T3C0.600
; #@! TA.AperFunction,Plated,PTH,ComponentDrill
T4C1.100
; #@! TA.AperFunction,Plated,PTH,ComponentDrill
T5C2.000
; #@! TA.AperFunction,NonPlated,NPTH,ComponentDrill
T6C0.650
; #@! TA.AperFunction,NonPlated,NPTH,ComponentDrill
T7C3.200
%
G90
G05
T1
X98.9Y-90.72
X98.936Y-70.82
X101.59Y-70.755
X103.14Y-90.75
X103.275Y-101.05
X103.275Y-101.975
X103.29Y-89.85
X104.57Y-94.76
X105.58Y-95.01
X106.501Y-105.858
X106.96Y-59.4
X107.35Y-96.625
X108.235Y-92.755
X108.5Y-105.25
X108.75Y-96.0
X108.75Y-97.25
X109.76Y-61.6
X110.06Y-90.07
X110.562Y-75.1
X110.97Y-110.66
X112.225Y-64.04
X112.25Y-54.83
X112.25Y-100.25
X112.29Y-83.02
X112.29Y-84.37
X112.33Y-82.0
X113.0Y-98.925
X113.438Y-77.85
X114.05Y-114.95
X114.189Y-101.697
X114.425Y-105.225
X114.675Y-110.575
X114.78Y-54.82
X115.1Y-101.89
X115.12Y-103.306
X115.26Y-85.27
X115.73Y-64.03
X115.837Y-80.1
X116.06Y-54.81
X116.24Y-103.49
X116.46Y-110.7
X116.525Y-104.475
X116.87Y-89.66
X116.89Y-90.77
X116.96Y-87.93
X117.688Y-75.925
X117.688Y-80.1
X118.64Y-87.94
X119.35Y-64.0
X119.38Y-86.28
X119.5Y-75.99
X119.835Y-57.605
X121.27Y-100.41
X121.29Y-98.43
X121.29Y-99.4
X121.31Y-73.18
X121.6Y-56.47
X121.87Y-78.5
X122.36Y-98.43
X122.36Y-99.4
X122.396Y-100.338
X122.81Y-78.23
X122.89Y-111.24
X123.49Y-108.77
X123.56Y-72.685
X124.06Y-79.02
X125.7Y-93.34
X125.73Y-92.202
X125.99Y-78.63
X126.537Y-83.125
X127.59Y-108.795
X128.22Y-86.3
X130.33Y-75.86
X132.93Y-87.13
X133.43Y-67.42
X133.92Y-68.2
X133.94Y-86.75
X134.74Y-76.85
X134.78Y-107.75
X135.185Y-92.455
X135.25Y-97.225
X135.4Y-90.236
X136.47Y-87.08
X136.48Y-88.82
X136.63Y-65.57
X136.73Y-85.39
X137.19Y-89.54
X137.21Y-87.85
X137.5Y-84.81
X137.67Y-65.54
X138.047Y-100.24
X138.42Y-76.84
X138.69Y-69.3
X139.04Y-107.76
X139.07Y-101.345
X139.21Y-81.1
X139.38Y-84.92
X139.394Y-85.85
X139.46Y-76.75
X139.62Y-98.05
X139.65Y-97.06
X140.09Y-105.84
X140.23Y-103.06
X140.24Y-114.31
X140.51Y-80.91
X140.6Y-97.6
X140.73Y-67.54
X141.34Y-86.08
X141.66Y-67.53
X143.17Y-86.07
X143.33Y-64.71
X143.96Y-63.75
X144.55Y-64.7
X145.481Y-76.4
X146.05Y-79.3
X147.12Y-76.4
X147.2Y-83.29
X147.73Y-66.2
X147.79Y-84.2
X147.84Y-75.54
X149.97Y-73.56
X150.0Y-86.16
T2
X97.5Y-64.5
X97.5Y-67.0
X97.5Y-80.0
X97.5Y-82.5
X97.5Y-85.0
X97.5Y-87.5
X97.5Y-90.0
X97.5Y-92.5
X97.5Y-95.0
X97.5Y-97.5
X97.5Y-100.0
X97.5Y-102.5
X97.5Y-105.0
X97.5Y-107.5
X97.5Y-110.0
X97.5Y-112.5
X97.5Y-115.0
X97.5Y-117.5
X97.5Y-120.0
X97.5Y-122.5
X100.0Y-64.5
X100.0Y-67.0
X100.0Y-80.0
X100.0Y-82.5
X100.0Y-85.0
X100.0Y-87.5
X100.0Y-107.5
X100.0Y-110.0
X100.0Y-112.5
X100.0Y-115.0
X100.0Y-117.5
X100.0Y-120.0
X100.0Y-122.5
X102.5Y-64.5
X102.5Y-67.0
X102.5Y-80.0
X102.5Y-82.5
X102.5Y-85.0
X102.5Y-87.5
X102.5Y-97.5
X102.5Y-107.5
X102.5Y-110.0
X102.5Y-112.5
X102.5Y-115.0
X102.5Y-117.5
X102.5Y-120.0
X102.5Y-122.5
X105.0Y-55.0
X105.0Y-57.5
X105.0Y-60.0
X105.0Y-62.5
X105.0Y-64.5
X105.0Y-67.0
X105.0Y-70.0
X105.0Y-87.5
X105.0Y-92.5
X105.0Y-110.0
X105.0Y-112.5
X105.0Y-115.0
X107.5Y-55.0
X107.5Y-57.5
X107.5Y-70.0
X107.5Y-72.5
X107.5Y-87.5
X107.5Y-110.0
X107.5Y-112.5
X107.5Y-115.0
X107.5Y-120.0
X107.5Y-122.5
X107.5Y-127.5
X107.5Y-130.0
X110.0Y-55.0
X110.0Y-57.5
X110.0Y-112.5
X110.0Y-115.0
X110.0Y-120.0
X110.0Y-122.5
X110.0Y-127.5
X110.0Y-130.0
X112.5Y-122.5
X112.5Y-125.0
X112.5Y-127.5
X112.5Y-130.0
X113.06Y-81.23
X113.07Y-85.2
X115.0Y-97.5
X115.0Y-100.0
X115.0Y-122.5
X115.0Y-125.0
X115.0Y-127.5
X115.0Y-130.0
X117.5Y-97.5
X117.5Y-115.0
X117.5Y-122.5
X117.5Y-127.5
X117.5Y-130.0
X120.0Y-55.0
X120.0Y-60.0
X120.0Y-95.0
X120.0Y-97.5
X120.0Y-115.0
X120.0Y-120.0
X120.0Y-122.5
X120.0Y-127.5
X120.0Y-130.0
X120.56Y-75.98
X122.037Y-77.5
X122.5Y-55.0
X122.5Y-60.0
X122.5Y-62.5
X122.5Y-95.0
X122.5Y-115.0
X122.5Y-117.5
X122.5Y-120.0
X122.5Y-122.5
X122.5Y-125.0
X122.5Y-127.5
X122.5Y-130.0
X122.5Y-132.5
X125.0Y-55.0
X125.0Y-115.0
X125.0Y-117.5
X125.0Y-120.0
X125.0Y-122.5
X125.0Y-125.0
X125.0Y-127.5
X125.0Y-130.0
X125.0Y-132.5
X125.05Y-79.41
X126.1Y-77.54
X127.062Y-78.025
X127.5Y-57.5
X127.5Y-60.0
X127.5Y-62.5
X127.5Y-115.0
X127.5Y-117.5
X127.5Y-120.0
X127.5Y-122.5
X127.5Y-125.0
X127.5Y-127.5
X127.5Y-130.0
X127.5Y-132.5
X130.0Y-57.5
X130.0Y-60.0
X130.0Y-62.5
X130.0Y-95.0
X130.0Y-97.5
X130.0Y-100.0
X130.0Y-102.5
X130.0Y-112.5
X130.0Y-115.0
X132.5Y-92.5
X132.5Y-95.0
X132.5Y-97.5
X132.5Y-100.0
X132.5Y-102.5
X132.5Y-105.0
X132.5Y-112.5
X132.5Y-115.0
X132.5Y-120.0
X132.5Y-122.5
X132.5Y-127.5
X132.5Y-130.0
X135.0Y-112.5
X135.0Y-115.0
X135.0Y-120.0
X135.0Y-122.5
X135.0Y-127.5
X135.0Y-130.0
X137.5Y-112.5
X137.5Y-115.0
X137.5Y-122.5
X137.5Y-125.0
X137.5Y-127.5
X137.5Y-130.0
X140.0Y-75.0
X140.0Y-122.5
X140.0Y-125.0
X140.0Y-127.5
X140.0Y-130.0
X142.5Y-72.5
X142.5Y-75.0
X142.5Y-87.5
X142.5Y-90.0
X142.5Y-92.5
X142.5Y-95.0
X142.5Y-97.5
X142.5Y-100.0
X142.5Y-102.5
X142.5Y-105.0
X142.5Y-107.5
X142.5Y-110.0
X142.5Y-112.5
X142.5Y-115.0
X142.5Y-122.5
X142.5Y-127.5
X142.5Y-130.0
X145.0Y-55.0
X145.0Y-57.5
X145.0Y-60.0
X145.0Y-62.5
X145.0Y-67.5
X145.0Y-70.0
X145.0Y-72.5
X145.0Y-87.5
X145.0Y-90.0
X145.0Y-92.5
X145.0Y-95.0
X145.0Y-97.5
X145.0Y-100.0
X145.0Y-102.5
X145.0Y-105.0
X145.0Y-107.5
X145.0Y-110.0
X145.0Y-112.5
X145.0Y-115.0
X145.0Y-120.0
X145.0Y-122.5
X145.0Y-127.5
X145.0Y-130.0
X147.5Y-67.5
X147.5Y-70.0
X147.5Y-72.5
X147.5Y-87.5
X147.5Y-90.0
X147.5Y-92.5
X147.5Y-95.0
X147.5Y-97.5
X147.5Y-100.0
X147.5Y-102.5
X147.5Y-105.0
X147.5Y-107.5
X147.5Y-110.0
X147.5Y-112.5
X147.5Y-115.0
X147.5Y-120.0
X147.5Y-122.5
X150.0Y-67.5
X150.0Y-70.0
X150.0Y-72.5
X150.0Y-87.5
X150.0Y-90.0
X150.0Y-92.5
X150.0Y-95.0
X150.0Y-97.5
X150.0Y-100.0
X150.0Y-102.5
X150.0Y-105.0
X150.0Y-107.5
X150.0Y-110.0
X150.0Y-112.5
X150.0Y-115.0
X150.0Y-120.0
X150.0Y-122.5
X152.5Y-67.5
X152.5Y-70.0
X152.5Y-72.5
X152.5Y-90.0
X152.5Y-92.5
X152.5Y-95.0
X152.5Y-97.5
X152.5Y-100.0
X152.5Y-102.5
X152.5Y-105.0
X152.5Y-107.5
X152.5Y-110.0
X152.5Y-112.5
X152.5Y-115.0
X152.5Y-117.5
X152.5Y-120.0
X152.5Y-122.5
X155.0Y-65.0
X155.0Y-67.5
X155.0Y-70.0
X155.0Y-72.5
X155.0Y-90.0
X155.0Y-92.5
X155.0Y-95.0
X155.0Y-97.5
X155.0Y-100.0
X155.0Y-102.5
X155.0Y-105.0
X155.0Y-107.5
X155.0Y-110.0
X155.0Y-112.5
X155.0Y-115.0
X155.0Y-117.5
X155.0Y-120.0
X155.0Y-122.5
T4
X113.08Y-119.92
X115.62Y-119.92
X138.024Y-119.92
X140.564Y-119.92
T5
X108.0Y-125.0
X118.16Y-125.0
X132.944Y-125.0
X143.104Y-125.0
T6
X150.21Y-76.935
X150.21Y-82.715
T7
X100.5Y-58.25
X100.5Y-128.25
X150.5Y-58.25
X150.5Y-128.25
T3
G00X149.13Y-75.505
M15
G01X150.23Y-75.505
M16
G05
G00X149.13Y-84.145
M15
G01X150.23Y-84.145
M16
G05
G00X153.56Y-75.505
M15
G01X154.16Y-75.505
M16
G05
G00X153.56Y-84.145
M15
G01X154.16Y-84.145
M16
G05
T0
M30
