%TF.GenerationSoftware,KiCad,Pcbnew,7.0.9*%
%TF.CreationDate,2024-01-09T08:16:39-05:00*%
%TF.ProjectId,mixed_signal_hw,6d697865-645f-4736-9967-6e616c5f6877,rev?*%
%TF.SameCoordinates,Original*%
%TF.FileFunction,Soldermask,Top*%
%TF.FilePolarity,Negative*%
%FSLAX46Y46*%
G04 Gerber Fmt 4.6, Leading zero omitted, Abs format (unit mm)*
G04 Created by KiCad (PCBNEW 7.0.9) date 2024-01-09 08:16:39*
%MOMM*%
%LPD*%
G01*
G04 APERTURE LIST*
G04 Aperture macros list*
%AMRoundRect*
0 Rectangle with rounded corners*
0 $1 Rounding radius*
0 $2 $3 $4 $5 $6 $7 $8 $9 X,Y pos of 4 corners*
0 Add a 4 corners polygon primitive as box body*
4,1,4,$2,$3,$4,$5,$6,$7,$8,$9,$2,$3,0*
0 Add four circle primitives for the rounded corners*
1,1,$1+$1,$2,$3*
1,1,$1+$1,$4,$5*
1,1,$1+$1,$6,$7*
1,1,$1+$1,$8,$9*
0 Add four rect primitives between the rounded corners*
20,1,$1+$1,$2,$3,$4,$5,0*
20,1,$1+$1,$4,$5,$6,$7,0*
20,1,$1+$1,$6,$7,$8,$9,0*
20,1,$1+$1,$8,$9,$2,$3,0*%
%AMFreePoly0*
4,1,9,3.862500,-0.866500,0.737500,-0.866500,0.737500,-0.450000,-0.737500,-0.450000,-0.737500,0.450000,0.737500,0.450000,0.737500,0.866500,3.862500,0.866500,3.862500,-0.866500,3.862500,-0.866500,$1*%
G04 Aperture macros list end*
%ADD10RoundRect,0.140000X0.170000X-0.140000X0.170000X0.140000X-0.170000X0.140000X-0.170000X-0.140000X0*%
%ADD11RoundRect,0.150000X0.512500X0.150000X-0.512500X0.150000X-0.512500X-0.150000X0.512500X-0.150000X0*%
%ADD12RoundRect,0.140000X0.140000X0.170000X-0.140000X0.170000X-0.140000X-0.170000X0.140000X-0.170000X0*%
%ADD13RoundRect,0.075000X-0.662500X-0.075000X0.662500X-0.075000X0.662500X0.075000X-0.662500X0.075000X0*%
%ADD14RoundRect,0.075000X-0.075000X-0.662500X0.075000X-0.662500X0.075000X0.662500X-0.075000X0.662500X0*%
%ADD15RoundRect,0.135000X0.135000X0.185000X-0.135000X0.185000X-0.135000X-0.185000X0.135000X-0.185000X0*%
%ADD16RoundRect,0.135000X-0.185000X0.135000X-0.185000X-0.135000X0.185000X-0.135000X0.185000X0.135000X0*%
%ADD17RoundRect,0.225000X0.225000X0.250000X-0.225000X0.250000X-0.225000X-0.250000X0.225000X-0.250000X0*%
%ADD18C,3.200000*%
%ADD19RoundRect,0.225000X0.250000X-0.225000X0.250000X0.225000X-0.250000X0.225000X-0.250000X-0.225000X0*%
%ADD20RoundRect,0.225000X-0.250000X0.225000X-0.250000X-0.225000X0.250000X-0.225000X0.250000X0.225000X0*%
%ADD21C,1.900000*%
%ADD22C,3.000000*%
%ADD23RoundRect,0.112500X0.112500X-0.187500X0.112500X0.187500X-0.112500X0.187500X-0.112500X-0.187500X0*%
%ADD24RoundRect,0.140000X-0.140000X-0.170000X0.140000X-0.170000X0.140000X0.170000X-0.140000X0.170000X0*%
%ADD25RoundRect,0.250000X0.475000X-0.250000X0.475000X0.250000X-0.475000X0.250000X-0.475000X-0.250000X0*%
%ADD26R,0.300000X1.450000*%
%ADD27RoundRect,0.135000X0.185000X-0.135000X0.185000X0.135000X-0.185000X0.135000X-0.185000X-0.135000X0*%
%ADD28RoundRect,0.135000X-0.135000X-0.185000X0.135000X-0.185000X0.135000X0.185000X-0.135000X0.185000X0*%
%ADD29R,1.300000X0.900000*%
%ADD30FreePoly0,0.000000*%
%ADD31R,2.350000X3.500000*%
%ADD32RoundRect,0.250000X-0.475000X0.250000X-0.475000X-0.250000X0.475000X-0.250000X0.475000X0.250000X0*%
%ADD33RoundRect,0.112500X-0.112500X0.187500X-0.112500X-0.187500X0.112500X-0.187500X0.112500X0.187500X0*%
%ADD34R,1.100000X1.500000*%
%ADD35RoundRect,0.140000X-0.170000X0.140000X-0.170000X-0.140000X0.170000X-0.140000X0.170000X0.140000X0*%
%ADD36RoundRect,0.250000X-0.450000X0.262500X-0.450000X-0.262500X0.450000X-0.262500X0.450000X0.262500X0*%
%ADD37R,1.200000X0.700000*%
%ADD38R,0.740000X2.400000*%
%ADD39RoundRect,0.112500X0.187500X0.112500X-0.187500X0.112500X-0.187500X-0.112500X0.187500X-0.112500X0*%
%ADD40RoundRect,0.150000X0.150000X-0.512500X0.150000X0.512500X-0.150000X0.512500X-0.150000X-0.512500X0*%
%ADD41R,1.400000X1.200000*%
%ADD42RoundRect,0.250000X0.250000X0.475000X-0.250000X0.475000X-0.250000X-0.475000X0.250000X-0.475000X0*%
%ADD43RoundRect,0.112500X-0.187500X-0.112500X0.187500X-0.112500X0.187500X0.112500X-0.187500X0.112500X0*%
%ADD44RoundRect,0.150000X-0.512500X-0.150000X0.512500X-0.150000X0.512500X0.150000X-0.512500X0.150000X0*%
%ADD45RoundRect,0.147500X0.147500X0.172500X-0.147500X0.172500X-0.147500X-0.172500X0.147500X-0.172500X0*%
%ADD46C,0.650000*%
%ADD47R,1.450000X0.600000*%
%ADD48R,1.450000X0.300000*%
%ADD49O,2.100000X1.000000*%
%ADD50O,1.600000X1.000000*%
%ADD51RoundRect,0.218750X0.218750X0.256250X-0.218750X0.256250X-0.218750X-0.256250X0.218750X-0.256250X0*%
%ADD52RoundRect,0.150000X0.587500X0.150000X-0.587500X0.150000X-0.587500X-0.150000X0.587500X-0.150000X0*%
G04 APERTURE END LIST*
D10*
%TO.C,C300*%
X115260600Y-112120000D03*
X115260600Y-111160000D03*
%TD*%
D11*
%TO.C,U100*%
X139037500Y-66500000D03*
X139037500Y-65550000D03*
X139037500Y-64600000D03*
X136762500Y-64600000D03*
X136762500Y-66500000D03*
%TD*%
D12*
%TO.C,C305*%
X111856400Y-107746800D03*
X110896400Y-107746800D03*
%TD*%
D13*
%TO.C,U200*%
X120125000Y-77549999D03*
X120125000Y-78049999D03*
X120125000Y-78549999D03*
X120125000Y-79049999D03*
X120125000Y-79549999D03*
X120125000Y-80049999D03*
X120125000Y-80549999D03*
X120125000Y-81049999D03*
X120125000Y-81549999D03*
X120125000Y-82049999D03*
X120125000Y-82549999D03*
X120125000Y-83049999D03*
D14*
X121537500Y-84462499D03*
X122037500Y-84462499D03*
X122537500Y-84462499D03*
X123037500Y-84462499D03*
X123537500Y-84462499D03*
X124037500Y-84462499D03*
X124537500Y-84462499D03*
X125037500Y-84462499D03*
X125537500Y-84462499D03*
X126037500Y-84462499D03*
X126537500Y-84462499D03*
X127037500Y-84462499D03*
D13*
X128450000Y-83049999D03*
X128450000Y-82549999D03*
X128450000Y-82049999D03*
X128450000Y-81549999D03*
X128450000Y-81049999D03*
X128450000Y-80549999D03*
X128450000Y-80049999D03*
X128450000Y-79549999D03*
X128450000Y-79049999D03*
X128450000Y-78549999D03*
X128450000Y-78049999D03*
X128450000Y-77549999D03*
D14*
X127037500Y-76137499D03*
X126537500Y-76137499D03*
X126037500Y-76137499D03*
X125537500Y-76137499D03*
X125037500Y-76137499D03*
X124537500Y-76137499D03*
X124037500Y-76137499D03*
X123537500Y-76137499D03*
X123037500Y-76137499D03*
X122537500Y-76137499D03*
X122037500Y-76137499D03*
X121537500Y-76137499D03*
%TD*%
D15*
%TO.C,R212*%
X113410000Y-65760000D03*
X112390000Y-65760000D03*
%TD*%
D10*
%TO.C,C212*%
X106940000Y-61350000D03*
X106940000Y-60390000D03*
%TD*%
D16*
%TO.C,R403*%
X137000000Y-104160000D03*
X137000000Y-105180000D03*
%TD*%
D17*
%TO.C,C309*%
X105019031Y-102910000D03*
X103469031Y-102910000D03*
%TD*%
D16*
%TO.C,R202*%
X130390000Y-83370000D03*
X130390000Y-84390000D03*
%TD*%
D10*
%TO.C,C205*%
X118287500Y-81779999D03*
X118287500Y-80819999D03*
%TD*%
D18*
%TO.C,H4*%
X150500000Y-128250000D03*
%TD*%
D19*
%TO.C,C206*%
X116787500Y-82079999D03*
X116787500Y-80529999D03*
%TD*%
D11*
%TO.C,U401*%
X137557500Y-108650000D03*
X137557500Y-107700000D03*
X137557500Y-106750000D03*
X135282500Y-106750000D03*
X135282500Y-108650000D03*
%TD*%
D12*
%TO.C,C202*%
X127267500Y-86299999D03*
X126307500Y-86299999D03*
%TD*%
D15*
%TO.C,R205*%
X151930000Y-73550000D03*
X150910000Y-73550000D03*
%TD*%
D20*
%TO.C,C100*%
X143185000Y-83565000D03*
X143185000Y-85115000D03*
%TD*%
D21*
%TO.C,J300*%
X113080000Y-119920000D03*
D22*
X118160000Y-125000000D03*
D21*
X115620000Y-119920000D03*
D22*
X108000000Y-125000000D03*
%TD*%
D10*
%TO.C,C201*%
X118287500Y-77529999D03*
X118287500Y-76569999D03*
%TD*%
D19*
%TO.C,C200*%
X116787500Y-77849999D03*
X116787500Y-76299999D03*
%TD*%
D18*
%TO.C,H3*%
X100500000Y-128250000D03*
%TD*%
D11*
%TO.C,U201*%
X144812500Y-80250000D03*
X144812500Y-79300000D03*
X144812500Y-78350000D03*
X142537500Y-78350000D03*
X142537500Y-79300000D03*
X142537500Y-80250000D03*
%TD*%
D12*
%TO.C,C315*%
X110069031Y-92750000D03*
X109109031Y-92750000D03*
%TD*%
D19*
%TO.C,C207*%
X114887500Y-82079999D03*
X114887500Y-80529999D03*
%TD*%
D12*
%TO.C,C302*%
X116510000Y-105450000D03*
X115550000Y-105450000D03*
%TD*%
D15*
%TO.C,R211*%
X116850000Y-65790000D03*
X115830000Y-65790000D03*
%TD*%
D23*
%TO.C,D205*%
X109790000Y-62490000D03*
X109790000Y-60390000D03*
%TD*%
D24*
%TO.C,C209*%
X111827500Y-78299999D03*
X112787500Y-78299999D03*
%TD*%
D15*
%TO.C,R103*%
X149690000Y-66240000D03*
X148670000Y-66240000D03*
%TD*%
D25*
%TO.C,C103*%
X121676800Y-103657800D03*
X121676800Y-101757800D03*
%TD*%
D26*
%TO.C,U303*%
X110174031Y-98930000D03*
X110674031Y-98930000D03*
X111174031Y-98930000D03*
X111674031Y-98930000D03*
X112174031Y-98930000D03*
X112174031Y-94530000D03*
X111674031Y-94530000D03*
X111174031Y-94530000D03*
X110674031Y-94530000D03*
X110174031Y-94530000D03*
%TD*%
D27*
%TO.C,R306*%
X109340000Y-102600000D03*
X109340000Y-101580000D03*
%TD*%
D28*
%TO.C,R402*%
X135990000Y-103030000D03*
X137010000Y-103030000D03*
%TD*%
D29*
%TO.C,U101*%
X123905700Y-101091000D03*
D30*
X123993200Y-102591000D03*
D29*
X123905700Y-104091000D03*
%TD*%
D10*
%TO.C,C108*%
X128814200Y-108820000D03*
X128814200Y-107860000D03*
%TD*%
D20*
%TO.C,C101*%
X141335000Y-83565000D03*
X141335000Y-85115000D03*
%TD*%
D16*
%TO.C,R405*%
X139110000Y-108800000D03*
X139110000Y-109820000D03*
%TD*%
D31*
%TO.C,L101*%
X134975000Y-60000000D03*
X141025000Y-60000000D03*
%TD*%
D32*
%TO.C,C105*%
X141258300Y-64584800D03*
X141258300Y-66484800D03*
%TD*%
D33*
%TO.C,D201*%
X119840000Y-56470000D03*
X119840000Y-58570000D03*
%TD*%
D27*
%TO.C,R204*%
X134800000Y-78800000D03*
X134800000Y-77780000D03*
%TD*%
D16*
%TO.C,R213*%
X108100000Y-60350000D03*
X108100000Y-61370000D03*
%TD*%
D34*
%TO.C,D200*%
X99740000Y-72580000D03*
X99740000Y-75580000D03*
X98240000Y-75580000D03*
X98240000Y-72580000D03*
%TD*%
D35*
%TO.C,C306*%
X113512600Y-104272200D03*
X113512600Y-105232200D03*
%TD*%
D27*
%TO.C,R308*%
X101696800Y-93193200D03*
X101696800Y-92173200D03*
%TD*%
D16*
%TO.C,R309*%
X113980000Y-90020000D03*
X113980000Y-91040000D03*
%TD*%
D24*
%TO.C,C301*%
X116422800Y-112105200D03*
X117382800Y-112105200D03*
%TD*%
D15*
%TO.C,R302*%
X118440000Y-110930000D03*
X117420000Y-110930000D03*
%TD*%
D24*
%TO.C,C204*%
X121327500Y-74299999D03*
X122287500Y-74299999D03*
%TD*%
D15*
%TO.C,R209*%
X102650000Y-74890000D03*
X101630000Y-74890000D03*
%TD*%
D27*
%TO.C,R304*%
X109778800Y-108716000D03*
X109778800Y-107696000D03*
%TD*%
D12*
%TO.C,C401*%
X136825000Y-92980000D03*
X135865000Y-92980000D03*
%TD*%
D36*
%TO.C,R100*%
X125690000Y-94670000D03*
X125690000Y-96495000D03*
%TD*%
D37*
%TO.C,FL201*%
X139775000Y-79875000D03*
X139775000Y-78775000D03*
X137125000Y-78775000D03*
X137125000Y-79875000D03*
%TD*%
D18*
%TO.C,H2*%
X150500000Y-58250000D03*
%TD*%
D35*
%TO.C,C203*%
X130320000Y-76940000D03*
X130320000Y-77900000D03*
%TD*%
D24*
%TO.C,C403*%
X138180000Y-103040000D03*
X139140000Y-103040000D03*
%TD*%
D38*
%TO.C,J200*%
X117320000Y-56530000D03*
X117320000Y-60430000D03*
X116050000Y-56530000D03*
X116050000Y-60430000D03*
X114780000Y-56530000D03*
X114780000Y-60430000D03*
X113510000Y-56530000D03*
X113510000Y-60430000D03*
X112240000Y-56530000D03*
X112240000Y-60430000D03*
%TD*%
D15*
%TO.C,R102*%
X135721100Y-68161200D03*
X134701100Y-68161200D03*
%TD*%
%TO.C,R104*%
X127675200Y-111180000D03*
X126655200Y-111180000D03*
%TD*%
D24*
%TO.C,C210*%
X143670000Y-76390000D03*
X144630000Y-76390000D03*
%TD*%
D39*
%TO.C,D300*%
X114975000Y-114950000D03*
X112875000Y-114950000D03*
%TD*%
D17*
%TO.C,C308*%
X101730000Y-90750000D03*
X100180000Y-90750000D03*
%TD*%
D15*
%TO.C,R207*%
X102680000Y-73380000D03*
X101660000Y-73380000D03*
%TD*%
D10*
%TO.C,C310*%
X108744031Y-99100000D03*
X108744031Y-98140000D03*
%TD*%
D26*
%TO.C,U400*%
X136770000Y-98970000D03*
X137270000Y-98970000D03*
X137770000Y-98970000D03*
X138270000Y-98970000D03*
X138770000Y-98970000D03*
X138770000Y-94570000D03*
X138270000Y-94570000D03*
X137770000Y-94570000D03*
X137270000Y-94570000D03*
X136770000Y-94570000D03*
%TD*%
D40*
%TO.C,U300*%
X115536800Y-109283600D03*
X116486800Y-109283600D03*
X117436800Y-109283600D03*
X117436800Y-107008600D03*
X115536800Y-107008600D03*
%TD*%
D28*
%TO.C,R210*%
X118240000Y-65760000D03*
X119260000Y-65760000D03*
%TD*%
D21*
%TO.C,J400*%
X138023600Y-119920000D03*
D22*
X143103600Y-125000000D03*
D21*
X140563600Y-119920000D03*
D22*
X132943600Y-125000000D03*
%TD*%
D28*
%TO.C,R401*%
X137195000Y-101370000D03*
X138215000Y-101370000D03*
%TD*%
D41*
%TO.C,Y200*%
X114362500Y-75099999D03*
X112162500Y-75099999D03*
X112162500Y-76799999D03*
X114362500Y-76799999D03*
%TD*%
D15*
%TO.C,R105*%
X124877200Y-111180000D03*
X123857200Y-111180000D03*
%TD*%
%TO.C,R206*%
X151980000Y-86180000D03*
X150960000Y-86180000D03*
%TD*%
D10*
%TO.C,C304*%
X106500000Y-107750000D03*
X106500000Y-106790000D03*
%TD*%
D42*
%TO.C,C107*%
X125100000Y-112860000D03*
X123200000Y-112860000D03*
%TD*%
D28*
%TO.C,R404*%
X138190000Y-105200000D03*
X139210000Y-105200000D03*
%TD*%
D35*
%TO.C,C406*%
X133618400Y-107800000D03*
X133618400Y-108760000D03*
%TD*%
D24*
%TO.C,C404*%
X139120000Y-106700000D03*
X140080000Y-106700000D03*
%TD*%
D43*
%TO.C,D400*%
X139120000Y-114320000D03*
X141220000Y-114320000D03*
%TD*%
D17*
%TO.C,C400*%
X136840000Y-91450000D03*
X135290000Y-91450000D03*
%TD*%
D27*
%TO.C,R300*%
X112850600Y-113190000D03*
X112850600Y-112170000D03*
%TD*%
D44*
%TO.C,U102*%
X124902600Y-107857600D03*
X124902600Y-108807600D03*
X124902600Y-109757600D03*
X127177600Y-109757600D03*
X127177600Y-107857600D03*
%TD*%
D16*
%TO.C,R200*%
X123560000Y-73540000D03*
X123560000Y-74560000D03*
%TD*%
D43*
%TO.C,D204*%
X111330000Y-64030000D03*
X113430000Y-64030000D03*
%TD*%
D15*
%TO.C,R303*%
X112990000Y-108810000D03*
X111970000Y-108810000D03*
%TD*%
D45*
%TO.C,L100*%
X142755000Y-82140000D03*
X141785000Y-82140000D03*
%TD*%
D35*
%TO.C,C312*%
X108764031Y-94150000D03*
X108764031Y-95110000D03*
%TD*%
D12*
%TO.C,C208*%
X115037500Y-78299999D03*
X114077500Y-78299999D03*
%TD*%
%TO.C,C405*%
X135850000Y-105190000D03*
X134890000Y-105190000D03*
%TD*%
D16*
%TO.C,R301*%
X114060600Y-111140000D03*
X114060600Y-112160000D03*
%TD*%
D18*
%TO.C,H1*%
X100500000Y-58250000D03*
%TD*%
D35*
%TO.C,C303*%
X110930000Y-108780000D03*
X110930000Y-109740000D03*
%TD*%
D46*
%TO.C,J201*%
X150210000Y-82715000D03*
X150210000Y-76935000D03*
D47*
X148765000Y-83075000D03*
X148765000Y-82275000D03*
D48*
X148765000Y-81075000D03*
X148765000Y-80075000D03*
X148765000Y-79575000D03*
X148765000Y-78575000D03*
D47*
X148765000Y-77375000D03*
X148765000Y-76575000D03*
X148765000Y-76575000D03*
X148765000Y-77375000D03*
D48*
X148765000Y-78075000D03*
X148765000Y-79075000D03*
X148765000Y-80575000D03*
X148765000Y-81575000D03*
D47*
X148765000Y-82275000D03*
X148765000Y-83075000D03*
D49*
X149680000Y-84145000D03*
D50*
X153860000Y-84145000D03*
D49*
X149680000Y-75505000D03*
D50*
X153860000Y-75505000D03*
%TD*%
D16*
%TO.C,R400*%
X138365000Y-88890000D03*
X138365000Y-89910000D03*
%TD*%
D42*
%TO.C,C102*%
X125791600Y-98730200D03*
X123891600Y-98730200D03*
%TD*%
D15*
%TO.C,R101*%
X137831300Y-68151000D03*
X136811300Y-68151000D03*
%TD*%
D20*
%TO.C,C402*%
X135240000Y-94500000D03*
X135240000Y-96050000D03*
%TD*%
D39*
%TO.C,D203*%
X116820000Y-64030000D03*
X114720000Y-64030000D03*
%TD*%
D12*
%TO.C,C106*%
X137829300Y-69304200D03*
X136869300Y-69304200D03*
%TD*%
D27*
%TO.C,R307*%
X112522000Y-102610000D03*
X112522000Y-101590000D03*
%TD*%
D32*
%TO.C,C104*%
X134527300Y-64584800D03*
X134527300Y-66484800D03*
%TD*%
D15*
%TO.C,R208*%
X102650000Y-76440000D03*
X101630000Y-76440000D03*
%TD*%
D24*
%TO.C,C307*%
X110440000Y-101620000D03*
X111400000Y-101620000D03*
%TD*%
D43*
%TO.C,D202*%
X118240000Y-64020000D03*
X120340000Y-64020000D03*
%TD*%
D44*
%TO.C,U301*%
X109739000Y-104267000D03*
X109739000Y-105217000D03*
X109739000Y-106167000D03*
X112014000Y-106167000D03*
X112014000Y-104267000D03*
%TD*%
D51*
%TO.C,D100*%
X149695000Y-64700000D03*
X148120000Y-64700000D03*
%TD*%
D24*
%TO.C,C211*%
X99715000Y-70748400D03*
X100675000Y-70748400D03*
%TD*%
D52*
%TO.C,U302*%
X105161531Y-101040000D03*
X105161531Y-99140000D03*
X103286531Y-100090000D03*
%TD*%
D28*
%TO.C,R201*%
X111777500Y-79424999D03*
X112797500Y-79424999D03*
%TD*%
D19*
%TO.C,C311*%
X107344031Y-99110000D03*
X107344031Y-97560000D03*
%TD*%
D15*
%TO.C,R305*%
X108675000Y-107750000D03*
X107655000Y-107750000D03*
%TD*%
%TO.C,R203*%
X121540000Y-86310000D03*
X120520000Y-86310000D03*
%TD*%
D20*
%TO.C,C313*%
X107344031Y-94160000D03*
X107344031Y-95710000D03*
%TD*%
D45*
%TO.C,L200*%
X116257500Y-83479999D03*
X115287500Y-83479999D03*
%TD*%
D17*
%TO.C,C314*%
X110055000Y-91360000D03*
X108505000Y-91360000D03*
%TD*%
M02*
